<svg xmlns="http://www.w3.org/2000/svg" width="14" height="16" fill="none"><path fill-rule="evenodd" clip-rule="evenodd" d="M12.927 12.927c.403.403.407 1.063-.045 1.41a8 8 0 110-12.675c.452.348.448 1.008.045 1.411L8.73 7.27a1.032 1.032 0 000 1.46l4.197 4.197zm-6.934-9.56c.127-.041.274-.058.439-.05.038.006.055.033.052.082-.002.048.036.078.114.088.057.009.15.009.278 0 .13-.008.26-.026.39-.052.133-.028.247-.064.344-.11.096-.046.14-.103.133-.171-.007-.445-.171-.752-.493-.922a2.041 2.041 0 00-1.069-.23c-.594.03-1.087.214-1.478.553-.388.338-.618.81-.69 1.414-.063.554.094 1.02.472 1.396.378.377.847.587 1.407.628a3.35 3.35 0 00.965-.08c.017.025.033.04.05.041.11.031.297.044.558.037.264-.007.41-.03.44-.066.03-.026.053-.113.067-.263.017-.149.026-.32.028-.515a9.26 9.26 0 00-.055-1.09c-.01-.069-.093-.114-.245-.135a2.077 2.077 0 00-.491-.01 2.11 2.11 0 00-.474.094c-.142.046-.21.103-.202.169a7.666 7.666 0 01-.05.297c-.017.097-.106.145-.264.143-.218-.01-.385-.07-.501-.177a.613.613 0 01-.202-.37.623.623 0 01.093-.409.687.687 0 01.384-.292z" fill="url(#paint0_linear_9_326)"/><defs><linearGradient id="paint0_linear_9_326" x1="8" y1="0" x2="8" y2="16" gradientUnits="userSpaceOnUse"><stop stop-color="#4DD4AF"/><stop offset="1" stop-color="#31CFDB"/></linearGradient></defs></svg>