<svg width="416" height="441" viewBox="0 0 416 441" fill="none" xmlns="http://www.w3.org/2000/svg">
    <path d="M342 294C342 360.274 288.274 414 222 414C155.726 414 102 360.274 102 294C102 227.726 155.726 174 222 174C288.274 174 342 227.726 342 294ZM150.255 294C150.255 333.624 182.376 365.745 222 365.745C261.624 365.745 293.745 333.624 293.745 294C293.745 254.376 261.624 222.255 222 222.255C182.376 222.255 150.255 254.376 150.255 294Z" fill="white"/>
    <path d="M443 391C443 418.614 420.614 441 393 441C365.386 441 343 418.614 343 391C343 363.386 365.386 341 393 341C420.614 341 443 363.386 443 391ZM369.638 391C369.638 403.902 380.098 414.362 393 414.362C405.902 414.362 416.362 403.902 416.362 391C416.362 378.098 405.902 367.638 393 367.638C380.098 367.638 369.638 378.098 369.638 391Z" fill="white"/>
    <path d="M98.2774 395.518C100.333 395.518 102 393.852 102 391.796L102 370.204C102 368.148 100.333 366.482 98.2774 366.482L65.5183 366.482L65.5183 333.723C65.5183 331.667 63.8516 330 61.7956 330L40.2044 330C38.1484 330 36.4817 331.667 36.4818 333.723L36.4818 366.482L3.72263 366.482C1.66668 366.482 -2.79104e-06 368.148 -2.70117e-06 370.204L-1.75739e-06 391.796C-1.66752e-06 393.852 1.66668 395.518 3.72263 395.518L36.4818 395.518L36.4818 428.277C36.4818 430.333 38.1484 432 40.2044 432L61.7956 432C63.8516 432 65.5183 430.333 65.5183 428.277L65.5183 395.518L98.2774 395.518Z" fill="white"/>
    <path d="M282.33 97.5666C280.406 94.2333 282.811 90.0667 286.66 90.0667L449.473 90.0666C453.322 90.0666 455.728 94.2333 453.803 97.5666L372.397 238.567C370.472 241.9 365.661 241.9 363.737 238.567L282.33 97.5666Z" fill="white"/>
</svg>
