<svg width="371" height="360" viewBox="0 0 371 360" fill="none" xmlns="http://www.w3.org/2000/svg">
    <path d="M233.184 240C233.184 294.101 189.326 337.959 135.225 337.959C81.1231 337.959 37.2653 294.101 37.2653 240C37.2653 185.899 81.1231 142.041 135.225 142.041C189.326 142.041 233.184 185.899 233.184 240ZM76.657 240C76.657 272.346 102.879 298.567 135.225 298.567C167.57 298.567 193.792 272.346 193.792 240C193.792 207.654 167.57 181.432 135.225 181.432C102.879 181.432 76.657 207.654 76.657 240Z" fill="white"/>
    <path d="M315.633 319.184C315.633 341.726 297.359 360 274.816 360C252.274 360 234 341.726 234 319.184C234 296.641 252.274 278.367 274.816 278.367C297.359 278.367 315.633 296.641 315.633 319.184ZM255.745 319.184C255.745 329.716 264.284 338.255 274.816 338.255C285.349 338.255 293.887 329.716 293.887 319.184C293.887 308.651 285.349 300.113 274.816 300.113C264.284 300.113 255.745 308.651 255.745 319.184Z" fill="white"/>
    <path d="M44.2264 322.872C45.9048 322.872 47.2653 321.511 47.2653 319.833L47.2653 302.208C47.2653 300.529 45.9048 299.169 44.2264 299.169L17.4843 299.169L17.4843 272.427C17.4843 270.748 16.1237 269.388 14.4454 269.388L-3.1801 269.388C-4.85842 269.388 -6.21898 270.748 -6.21898 272.427L-6.21898 299.169L-32.9611 299.169C-34.6394 299.169 -36 300.529 -36 302.208L-36 319.833C-36 321.512 -34.6394 322.872 -32.9611 322.872L-6.21898 322.872L-6.21898 349.614C-6.21898 351.293 -4.85842 352.653 -3.1801 352.653L14.4454 352.653C16.1237 352.653 17.4843 351.293 17.4843 349.614L17.4843 322.872L44.2264 322.872Z" fill="white"/>
    <path d="M185.269 81.0238C183.344 77.6905 185.75 73.5238 189.599 73.5238L319.326 73.5238C323.175 73.5238 325.581 77.6905 323.656 81.0238L258.793 193.371C256.868 196.704 252.057 196.704 250.132 193.371L185.269 81.0238Z" fill="white"/>
</svg>
