<svg width="604" height="28" viewBox="0 0 604 28" fill="none" xmlns="http://www.w3.org/2000/svg">
    <path fill-rule="evenodd" clip-rule="evenodd" d="M293.382 0.346175C294.23 0.0407265 295.09 4.31252e-09 295.802 4.31252e-09H296.826C298.556 4.31252e-09 300.242 0.54302 301.653 1.55609L302.494 2.1585C302.935 2.47453 303.461 2.64424 304.001 2.64424C304.541 2.64424 305.067 2.47453 305.508 2.1585L306.348 1.55609C307.76 0.543635 309.446 -5.59103e-05 311.175 4.31252e-09H312.2C312.913 4.31252e-09 313.774 0.0407265 314.619 0.346175C317.035 1.21501 318.946 3.21061 320.205 6.43988C321.451 9.63691 322.09 14.11 321.99 20.1342C321.968 21.4069 321.812 22.8323 321.328 24.1152C320.841 25.4167 319.986 26.6436 318.549 27.3394C317.652 27.7755 316.67 28.0012 315.676 27.9995C314.523 28.0147 313.392 27.684 312.424 27.0492C311.634 26.5231 310.943 25.8444 310.352 25.264C310.281 25.1949 310.21 25.1259 310.139 25.057C309.462 24.3952 308.892 23.881 308.259 23.5467C307.46 23.1275 306.574 22.9087 305.675 22.9087H302.327C301.427 22.9093 300.54 23.1287 299.741 23.5484C299.108 23.881 298.538 24.3969 297.861 25.0587L297.648 25.2657C297.057 25.8444 296.366 26.5248 295.576 27.0509C294.608 27.6851 293.477 28.0152 292.324 27.9995C291.33 28.0006 290.347 27.7744 289.451 27.3377C288.013 26.6419 287.159 25.4167 286.672 24.1152C286.188 22.8323 286.032 21.4069 286.01 20.1342C285.91 14.11 286.549 9.63691 287.795 6.43988C289.054 3.21061 290.966 1.21331 293.382 0.346175ZM295.802 2.54541C295.159 2.54541 294.651 2.59122 294.223 2.74395C292.649 3.31072 291.194 4.653 290.132 7.37659C289.059 10.1307 288.425 14.2254 288.523 20.0917C288.542 21.2151 288.682 22.3113 289.019 23.209C289.351 24.0914 289.839 24.7057 290.536 25.0417C291.094 25.315 291.706 25.456 292.326 25.4541C293.138 25.4541 293.746 25.2233 294.201 24.9212C294.779 24.536 295.294 24.0337 295.912 23.4279L296.12 23.2243C296.791 22.5693 297.593 21.809 298.586 21.2898C299.742 20.6815 301.026 20.3638 302.328 20.3632H305.675C306.978 20.3632 308.26 20.6806 309.417 21.2881C310.408 21.809 311.212 22.5693 311.884 23.2226L312.091 23.4262C312.711 24.0337 313.225 24.536 313.804 24.9195C314.258 25.2233 314.865 25.4541 315.679 25.4541C316.361 25.4541 316.955 25.2911 317.467 25.0434C318.164 24.704 318.653 24.0914 318.984 23.2107C319.321 22.3113 319.462 21.2151 319.48 20.0917C319.577 14.2254 318.944 10.1307 317.871 7.37489C316.809 4.653 315.354 3.31072 313.781 2.74395C313.352 2.59122 312.843 2.54541 312.202 2.54541H311.177C309.968 2.54541 308.788 2.92552 307.8 3.63314L306.959 4.23725C306.095 4.8574 305.062 5.19043 304.003 5.19043C302.943 5.19043 301.91 4.8574 301.046 4.23725L300.205 3.63314C299.218 2.92513 298.038 2.54508 296.828 2.54541H295.802ZM296.466 8.48469C296.799 8.48469 297.119 8.61877 297.354 8.85745C297.59 9.09613 297.722 9.41985 297.722 9.75739V11.0301H298.978C299.311 11.0301 299.63 11.1642 299.866 11.4029C300.101 11.6415 300.234 11.9653 300.234 12.3028C300.234 12.6403 300.101 12.9641 299.866 13.2027C299.63 13.4414 299.311 13.5755 298.978 13.5755H297.722V14.8482C297.722 15.1857 297.59 15.5095 297.354 15.7481C297.119 15.9868 296.799 16.1209 296.466 16.1209C296.133 16.1209 295.814 15.9868 295.578 15.7481C295.343 15.5095 295.211 15.1857 295.211 14.8482V13.5755H293.955C293.622 13.5755 293.302 13.4414 293.067 13.2027C292.831 12.9641 292.699 12.6403 292.699 12.3028C292.699 11.9653 292.831 11.6415 293.067 11.4029C293.302 11.1642 293.622 11.0301 293.955 11.0301H295.211V9.75739C295.211 9.41985 295.343 9.09613 295.578 8.85745C295.814 8.61877 296.133 8.48469 296.466 8.48469Z" fill="#D8E4E4"/>
    <path d="M315.721 11.8786C315.721 12.2161 315.589 12.5398 315.353 12.7785C315.118 13.0172 314.798 13.1513 314.465 13.1513C314.132 13.1513 313.813 13.0172 313.577 12.7785C313.342 12.5398 313.21 12.2161 313.21 11.8786C313.21 11.541 313.342 11.2173 313.577 10.9786C313.813 10.7399 314.132 10.6059 314.465 10.6059C314.798 10.6059 315.118 10.7399 315.353 10.9786C315.589 11.2173 315.721 11.541 315.721 11.8786ZM310.698 11.8786C310.698 12.2161 310.566 12.5398 310.33 12.7785C310.095 13.0172 309.775 13.1513 309.442 13.1513C309.109 13.1513 308.79 13.0172 308.554 12.7785C308.319 12.5398 308.187 12.2161 308.187 11.8786C308.187 11.541 308.319 11.2173 308.554 10.9786C308.79 10.7399 309.109 10.6059 309.442 10.6059C309.775 10.6059 310.095 10.7399 310.33 10.9786C310.566 11.2173 310.698 11.541 310.698 11.8786ZM311.954 8.06045C312.287 8.06045 312.606 8.19454 312.842 8.43322C313.077 8.6719 313.21 8.99561 313.21 9.33315C313.21 9.6707 313.077 9.99441 312.842 10.2331C312.606 10.4718 312.287 10.6059 311.954 10.6059C311.621 10.6059 311.301 10.4718 311.066 10.2331C310.83 9.99441 310.698 9.6707 310.698 9.33315C310.698 8.99561 310.83 8.6719 311.066 8.43322C311.301 8.19454 311.621 8.06045 311.954 8.06045ZM311.954 13.1513C312.119 13.1513 312.282 13.1842 312.434 13.2481C312.587 13.3121 312.725 13.4058 312.842 13.524C312.958 13.6422 313.051 13.7825 313.114 13.9369C313.177 14.0913 313.21 14.2568 313.21 14.424C313.21 14.5911 313.177 14.7566 313.114 14.911C313.051 15.0654 312.958 15.2057 312.842 15.3239C312.725 15.4421 312.587 15.5358 312.434 15.5998C312.282 15.6637 312.119 15.6967 311.954 15.6967C311.621 15.6967 311.301 15.5626 311.066 15.3239C310.83 15.0852 310.698 14.7615 310.698 14.424C310.698 14.0864 310.83 13.7627 311.066 13.524C311.301 13.2854 311.621 13.1513 311.954 13.1513Z" fill="#D8E4E4"/>
    <path d="M2 17L267 17" stroke="#D8E4E4" stroke-width="3" stroke-linecap="round"/>
    <path d="M342 17H602" stroke="#D8E4E4" stroke-width="3" stroke-linecap="round"/>
</svg>
