<svg width="480" height="410" viewBox="0 0 480 410" fill="none" xmlns="http://www.w3.org/2000/svg">
    <rect x="0.442871" y="207" width="143.462" height="143.462" rx="5" transform="rotate(45 0.442871 207)" fill="#DEF0F0"/>
    <rect x="90.0936" y="142" width="86.1433" height="86.1433" rx="5" transform="rotate(15 90.0936 142)" fill="#DEF0F0"/>
    <path d="M347 309.5C347 358.929 306.929 399 257.5 399C208.071 399 168 358.929 168 309.5C168 260.071 208.071 220 257.5 220C306.929 220 347 260.071 347 309.5ZM215.682 309.5C215.682 332.595 234.405 351.318 257.5 351.318C280.595 351.318 299.318 332.595 299.318 309.5C299.318 286.405 280.595 267.682 257.5 267.682C234.405 267.682 215.682 286.405 215.682 309.5Z" fill="#DEF0F0"/>
    <path d="M384 195.5C384 215.658 367.658 232 347.5 232C327.342 232 311 215.658 311 195.5C311 175.342 327.342 159 347.5 159C367.658 159 384 175.342 384 195.5ZM330.446 195.5C330.446 204.919 338.081 212.554 347.5 212.554C356.919 212.554 364.554 204.919 364.554 195.5C364.554 186.081 356.919 178.446 347.5 178.446C338.081 178.446 330.446 186.081 330.446 195.5Z" fill="#DEF0F0"/>
    <path d="M420.813 340.92C421.302 342.747 423.18 343.831 425.007 343.341L444.191 338.201C446.018 337.712 447.102 335.834 446.612 334.007L438.813 304.9L467.92 297.101C469.747 296.611 470.831 294.734 470.341 292.907L465.201 273.723C464.712 271.896 462.834 270.812 461.007 271.301L431.9 279.1L424.101 249.993C423.611 248.166 421.734 247.082 419.907 247.572L400.722 252.712C398.896 253.202 397.812 255.079 398.301 256.906L406.1 286.013L376.993 293.813C375.166 294.302 374.082 296.18 374.572 298.007L379.712 317.191C380.202 319.018 382.079 320.102 383.906 319.612L413.013 311.813L420.813 340.92Z" fill="#DEF0F0"/>
    <path d="M26.5 53.3301C23.1667 51.4056 23.1667 46.5944 26.5 44.6699L85 10.8949C88.3333 8.97038 92.5 11.376 92.5 15.225L92.5 82.775C92.5 86.624 88.3333 89.0296 85 87.1051L26.5 53.3301Z" fill="#DEF0F0"/>
</svg>
