<svg width="314" height="496" viewBox="0 0 314 496" fill="none" xmlns="http://www.w3.org/2000/svg">
    <rect x="22.2955" width="86.1433" height="86.1433" rx="5" transform="rotate(15 22.2955 0)" fill="#DEF0F0"/>
    <path d="M175 151C175 173.091 157.091 191 135 191C112.909 191 95 173.091 95 151C95 128.909 112.909 111 135 111C157.091 111 175 128.909 175 151ZM116.31 151C116.31 161.322 124.678 169.69 135 169.69C145.322 169.69 153.69 161.322 153.69 151C153.69 140.678 145.322 132.31 135 132.31C124.678 132.31 116.31 140.678 116.31 151Z" fill="#DEF0F0"/>
    <path d="M89.6458 286.769C88.6496 283.052 92.0516 279.65 95.7695 280.646L250.35 322.065C254.068 323.062 255.313 327.709 252.591 330.431L139.431 443.591C136.709 446.313 132.062 445.067 131.065 441.35L89.6458 286.769Z" fill="#DEF0F0"/>
    <path d="M244.905 457.663C244.041 458.527 244.041 459.929 244.905 460.794L253.984 469.872C254.848 470.737 256.25 470.737 257.114 469.872L270.889 456.098L284.663 469.872C285.527 470.737 286.929 470.737 287.794 469.872L296.872 460.794C297.737 459.929 297.737 458.527 296.872 457.663L283.098 443.889L296.872 430.114C297.737 429.25 297.737 427.848 296.872 426.984L287.794 417.905C286.929 417.04 285.527 417.04 284.663 417.905L270.889 431.679L257.114 417.905C256.25 417.04 254.848 417.04 253.984 417.905L244.905 426.984C244.041 427.848 244.041 429.25 244.905 430.114L258.679 443.889L244.905 457.663Z" fill="#DEF0F0"/>
</svg>
