<svg xmlns="http://www.w3.org/2000/svg" width="325" height="195" viewBox="0 0 325 195" fill="none">
    <path d="M162.832 89.5377C163.518 88.8229 164.061 87.7364 164.891 87.4505C171.153 85.2204 177.301 82.7615 183.478 80.2454C187.625 78.5585 191.886 77.1575 196.032 75.4706C197.101 74.9366 198.069 74.2206 198.892 73.3548C199.835 72.497 198.892 72.1825 198.291 72.3255C195.86 72.8115 196.089 71.1818 196.261 69.7522C196.261 69.1518 197.205 68.6086 197.233 68.0367C197.159 67.5046 197.223 66.9624 197.418 66.4619C197.614 65.9614 197.934 65.5192 198.348 65.1775C197.335 65.071 196.332 64.8894 195.346 64.6343C194.831 64.4628 194.488 63.8623 194.059 63.462C194.402 63.1475 194.774 62.5185 195.06 62.5757C195.67 62.7389 196.32 62.6718 196.884 62.387C197.448 62.1023 197.888 61.6199 198.12 61.0317C198.464 60.0377 198.609 58.9854 198.545 57.9353C198.481 56.8852 198.21 55.8581 197.748 54.9131C196.716 52.9708 195.459 51.157 194.002 49.5093C192.6 48.1655 192.658 45.8781 190.284 44.9918C188.969 44.5057 188.568 41.8753 187.425 40.3885C185.251 37.3292 182.706 34.47 180.647 31.3249C178.588 28.1798 176.386 25.6066 174.242 22.7474C171.426 19.3866 169.008 15.7121 167.035 11.7967C165.793 9.85698 164.237 8.13711 162.431 6.70741C160.287 9.10912 160.858 3.9912 159.057 5.47797C159.057 5.22064 158.742 4.76317 158.771 4.76317C160.744 3.56232 157.484 2.81894 158.542 1.904C157.593 1.16798 156.555 0.553275 155.454 0.0741276C154.41 -0.0757627 153.347 0.00227408 152.337 0.302861C151.176 0.426612 150.065 0.839498 149.105 1.50371C148.116 2.6476 147.297 3.9284 146.675 5.30642C145.53 7.71418 144.639 10.2342 144.015 12.826C142.786 16.6002 140.669 20.0884 139.611 23.8911C137.838 30.1812 134.979 36.0425 133.206 42.247C132.09 46.1068 130.146 49.6522 129.402 53.6837C128.659 57.7151 126.257 61.0603 125.485 64.9774C124.713 68.8945 122.625 72.2969 122.196 75.9566C122.048 77.72 121.3 79.3795 120.077 80.6591C118.855 81.9387 117.231 82.7614 115.476 82.9902C113.16 83.4477 112.159 85.8494 109.385 85.5635C107.555 85.3633 105.467 87.136 103.666 88.1081C99.9767 89.9952 95.63 90.2525 92.227 92.8258C91.2833 93.5406 89.9679 92.6256 89.0242 91.6535C84.506 87.0216 79.9877 82.3898 75.2979 77.958C73.4459 75.8194 71.3542 73.9007 69.0639 72.2397C67.0819 70.6079 65.3648 68.6789 63.9737 66.5213C62.452 64.5983 60.2524 63.3299 57.8255 62.976C57.4823 62.976 57.6539 62.976 57.8255 62.6615L58.3116 63.1475C58.0829 63.2905 57.8827 63.4906 57.6539 63.605C57.4252 63.7194 57.4538 63.4049 57.8255 62.976C56.9754 60.6892 55.4743 58.7014 53.5074 57.2576C51.2363 55.8251 49.5138 53.6698 48.6175 51.139C46.4441 50.3384 45.5576 48.2798 44.1278 46.7645C41.8401 44.3342 39.1806 42.247 36.7499 39.9596C35.9492 39.1876 35.5203 37.9868 34.6624 37.3006C33.8045 36.6144 34.0905 35.5565 32.3747 36.1855C30.6589 36.8145 32.2031 34.4414 31.288 33.8124C30.3729 33.1834 29.7724 33.3549 29.1719 32.0969C27.7499 30.0011 25.9801 28.1638 23.9387 26.6644C22.8807 25.8067 21.0791 25.3206 20.7645 24.3199C20.3261 23.2033 19.6071 22.2185 18.677 21.4607C15.8173 18.6016 12.9577 15.5423 9.89789 12.7117C9.06897 11.9047 8.09993 11.2556 7.03824 10.796C1.26176 8.65165 -0.625603 10.1384 0.175097 14.8275C0.354689 17.7208 1.28079 20.5184 2.86316 22.9475C3.89263 24.2627 4.1214 26.0068 5.95158 27.0075C7.78175 28.0083 8.32508 30.0383 9.84069 30.5815C10.9452 31.0216 11.9485 31.682 12.7892 32.5226C13.63 33.3632 14.2906 34.3663 14.7307 35.4707C15.4456 36.8431 17.3044 37.5293 18.5054 38.7016C19.7065 39.8738 20.3928 41.1605 21.3651 42.3041C22.3373 43.4478 23.6814 45.392 25.2256 46.0211C27.5419 46.9646 27.8278 49.4235 29.6294 50.7101C31.4949 52.1083 33.1428 53.7752 34.5194 55.6565C34.8939 56.2813 35.3671 56.8413 35.9206 57.3148C38.0256 58.8917 39.8359 60.8274 41.2682 63.0332C42.7266 65.3205 44.471 68.3226 48.1313 68.1225C49.218 68.1225 47.7596 70.61 49.6469 69.7236C52.0204 68.6086 49.8757 71.8966 51.5915 71.6393C51.9346 71.6393 53.679 72.6972 52.049 73.8408C52.3064 74.2125 52.5638 74.6128 52.8497 74.9559C58.7318 81.8297 64.9545 88.4045 71.4946 94.6556C72.5813 95.7421 73.4678 97.0573 74.5258 98.2296C74.9382 98.6525 75.4352 98.9837 75.9842 99.2017C76.4418 99.4019 77.4141 99.459 77.4141 99.5162C77.1853 102.204 79.2156 103.119 80.9028 104.491C82.3886 105.97 83.7738 107.546 85.0493 109.209C86.6221 110.924 88.3665 112.497 89.9679 114.184C90.74 114.984 91.1404 115.499 92.37 114.441C93.0277 113.926 95.0581 112.44 96.0304 114.813C97.8833 114.538 99.7171 114.146 101.521 113.641C103.375 112.566 105.5 112.05 107.64 112.154L106.84 112.154C106.84 111.868 106.84 111.41 107.212 111.267C108.13 110.781 109.086 110.37 110.071 110.038C110.329 110.038 110.7 110.038 111.015 110.267C110.815 110.667 110.7 111.182 110.386 111.382C109.593 111.844 108.7 112.109 107.783 112.154C107.503 112.315 107.278 112.557 107.135 112.847C106.993 113.137 106.939 113.463 106.983 113.784C107.355 113.784 107.812 113.784 108.098 113.784C109.242 113.04 110.071 112.926 110.186 114.584C110.186 115.299 112.616 116.586 109.642 116.7C109.07 116.7 108.155 118.301 108.127 119.159C108.127 121.332 104.981 122.876 106.954 125.392C106.874 125.7 106.705 125.979 106.468 126.192C104.095 125.621 104.323 128.165 104.037 129.052C103.322 130.91 102.293 132.768 101.807 134.57C101.513 136.588 100.727 138.502 99.5191 140.145C99.3667 140.359 99.2695 140.608 99.236 140.869C99.2025 141.13 99.2337 141.395 99.327 141.641C99.4203 141.887 99.5727 142.106 99.7708 142.279C99.9689 142.452 100.207 142.573 100.463 142.633C102.207 143.176 103.58 144.034 101.75 146.378C100.978 147.407 101.521 149.523 101.75 151.096C101.75 151.525 102.608 151.839 103.008 152.268C103.408 152.697 103.523 153.011 103.437 153.183C101.778 155.642 102.922 157.357 104.752 159.13C106.582 160.903 107.04 163.762 110.1 160.931C110.414 160.617 111.444 160.931 112.102 161.103C112.302 161.103 112.502 161.732 112.445 161.961C112.388 162.189 111.959 162.504 111.701 162.79C111.444 163.076 111.415 162.389 111.301 162.418C109.957 162.733 108.613 163.076 107.24 163.419C108.27 164.791 109.728 164.076 110.929 164.048C114.858 163.952 118.755 163.317 122.511 162.161C124.627 161.56 127.086 162.561 129.002 160.874C134.006 160.874 138.639 158.215 143.729 158.73C147.189 156.871 151.221 157.243 154.91 155.871C157.727 155.163 160.596 154.685 163.489 154.441C164.644 154.23 165.781 153.934 166.892 153.555C169.331 152.727 171.871 152.237 174.442 152.096C177.318 152.036 180.159 151.445 182.821 150.352C184.679 149.552 186.738 150.181 188.797 149.209C191.586 148.398 194.472 147.965 197.376 147.922C198.863 147.693 200.236 147.207 201.78 146.864C204.096 146.35 206.47 145.978 208.843 145.606C211.012 145.146 213.21 144.831 215.42 144.663C216.021 144.663 216.593 144.005 217.251 143.919C219.767 143.519 222.112 142.575 224.743 142.404C228.613 141.934 232.439 141.15 236.181 140.059C236.811 139.916 237.411 139.345 238.012 139.373C243.731 139.602 248.85 137.429 254.369 137.172C257.228 134.97 260.746 136.886 263.777 135.113C266.351 133.598 269.668 134.227 272.556 132.997C274.952 132.613 277.395 132.613 279.791 132.997C280.592 132.997 280.048 132.997 279.505 132.997C279.124 132.891 278.766 132.716 278.447 132.483C278.704 132.311 278.99 131.996 279.276 131.968C280.838 132.126 282.41 131.786 283.766 130.996C284.366 130.538 285.853 131.31 286.94 131.539C285.931 132.106 284.879 132.593 283.795 132.997C282.463 133.125 281.122 133.125 279.791 132.997C278.788 133.198 277.823 133.555 276.931 134.055C276.077 134.102 275.226 134.207 274.386 134.37C273.843 134.57 273.5 135.313 273.099 135.828C273.555 136.027 274.036 136.162 274.529 136.228C277.044 135.954 279.509 135.329 281.85 134.37C282.485 134.116 283.176 134.037 283.852 134.141C284.315 134.495 284.639 135.001 284.767 135.57C281.907 138.144 280.706 142.061 277.932 144.577C275.788 147.006 273.874 149.629 272.213 152.411C270.24 155.013 267.809 157.186 265.979 159.902C263.377 163.733 260.26 167.222 257.4 170.853C256.714 171.71 256.628 172.568 257.829 172.854C260.231 173.369 259.23 174.798 258.687 175.971C258.228 177.032 257.578 178.001 256.771 178.83C255.827 179.716 256.113 180.231 256.942 180.745C258.687 181.889 258.172 183.605 258.029 185.149C257.8 187.407 257.686 187.579 259.631 190.009C259.91 190.417 260.113 190.873 260.231 191.353C260.546 192.468 259.287 194.555 261.89 194.212C263.062 194.212 264.092 195.985 265.378 194.212C265.636 193.869 266.751 194.212 267.466 194.212C267.929 194.128 268.374 193.963 268.781 193.726C267.952 191.153 270.64 190.552 271.641 189.008C272.642 187.464 274.243 185.863 274.501 183.633C274.501 183.204 274.901 182.489 275.158 182.461C277.732 182.175 276.674 180.574 276.245 179.402C276.016 178.801 275.044 178.287 276.417 178.115C278.304 177.858 278.676 177.772 279.677 176.628C280.678 175.485 281.964 173.998 283.08 172.654C284.195 171.31 283.852 170.023 281.507 169.795C281.192 169.795 281.507 169.795 281.507 169.509L281.993 169.966C281.788 170.147 281.568 170.309 281.335 170.452C281.335 170.452 281.106 170.252 281.335 169.795C281.936 168.851 281.85 168.051 282.222 167.593C283.051 166.507 285.081 165.449 284.881 164.734C284.595 162.504 287.741 163.848 287.455 161.417C287.169 161.417 286.883 162.046 286.711 162.018C286.148 161.853 285.601 161.633 285.081 161.36C285.367 160.874 285.596 160.159 286.025 159.988C286.454 159.816 286.94 160.417 287.455 161.417C289.428 162.132 291.63 162.218 291.601 158.987C291.601 158.587 292.373 158.187 292.745 157.758C292.977 157.505 293.178 157.227 293.346 156.928C291.516 155.127 292.917 154.841 294.432 154.269C295.948 153.698 295.433 152.84 294.89 151.41C294.347 149.981 295.977 150.152 296.92 150.066C296.92 149.752 297.12 149.266 297.321 149.18C298.236 148.837 300.009 148.694 300.18 148.351C300.18 146.578 302.382 145.492 301.896 143.576C301.901 143.217 301.959 142.861 302.068 142.518C304.584 143.405 305.127 140.974 305.556 139.659C306.672 136.543 309.817 135.227 311.276 132.254C312.849 128.594 315.251 125.306 317.195 121.789C317.367 121.475 316.823 120.789 316.623 120.302C317.266 120.142 317.875 119.871 318.425 119.502C319.34 118.501 320.083 117.329 320.913 116.242C321.742 115.156 322.829 114.041 321.056 112.697C321.056 112.697 321.971 111.096 322.371 110.21C323.466 108.352 324.321 106.364 324.916 104.291C325.165 102.47 324.856 100.615 324.03 98.973C323.429 97.7436 321.799 96.9716 320.57 96.1138C320.02 95.8235 319.433 95.6118 318.825 95.4848C319.34 94.9702 319.797 94.0838 320.369 94.0266C321.799 93.8551 322.514 93.6263 321.027 92.4541C320.144 91.7173 319.185 91.0752 318.167 90.5384C313.706 88.3083 309.36 85.9066 304.727 84.0195C301.696 82.7901 298.665 81.3319 295.662 79.8737C289.399 76.843 283.165 73.6979 276.817 70.7815C271.384 68.294 265.722 66.3212 260.403 63.6336C258.506 62.771 256.401 62.4732 254.34 62.7758C253.703 62.8326 253.086 63.0285 252.532 63.3496C251.979 63.6707 251.503 64.1092 251.137 64.6343C250.651 65.8066 251.938 66.6643 253.282 67.0646C253.711 67.0646 253.911 68.0081 254.226 68.5228C253.81 68.7696 253.369 68.971 252.91 69.1232C252.567 69.1232 252.167 69.1232 251.824 69.1232C251.481 69.1232 250.537 69.4949 249.908 69.6665C250.165 70.2955 250.251 71.096 250.708 71.4677C251.881 72.3827 251.709 73.0689 251.109 74.3269C250.794 74.9559 251.595 76.1854 251.967 77.1861C253.911 82.0753 258.773 83.7622 262.662 86.3069C265.463 88.2 268.355 89.9557 271.326 91.5677C273.7 92.8258 276.588 93.0259 278.333 95.5134C279.133 96.6571 281.192 95.1703 282.022 97.0573C282.422 97.9723 282.822 98.7729 281.736 99.116C280.163 99.7248 278.502 100.072 276.817 100.145C274.94 100.226 273.087 100.602 271.326 101.26C269.553 101.804 267.638 100.774 265.75 102.204C264.378 103.233 261.861 101.489 260.374 103.433C255.799 102.833 251.624 104.949 247.334 105.835C241.496 106.568 235.748 107.89 230.176 109.781C228.403 110.553 226.03 109.523 224.228 111.01C219.996 110.553 216.364 113.269 212.189 113.154C210.788 114.67 208.958 114.041 207.27 114.27C205.583 114.498 204.411 115.042 202.867 115.299C200.322 115.728 197.319 115.299 195.346 116.557C192.944 118.101 190.198 116.557 187.939 118.415C186.824 119.416 184.451 117.672 183.021 119.388C178.445 118.959 174.613 122.418 170.009 121.761C167.436 123.219 164.29 122.504 161.688 123.762C160.83 124.162 159.2 125.535 157.856 124.077C156.741 125.792 154.624 124.248 153.538 125.277C152.451 126.307 150.678 125.478 149.62 126.164C148.133 127.25 146.532 126.736 145.159 127.222C140.526 128.937 135.293 127.679 130.861 130.338C130.06 130.796 128.745 130.338 127.658 130.338C124.798 130.338 124.541 129.823 125.57 127.307C125.885 126.507 126.6 125.992 125.828 125.077C124.083 122.99 126.114 122.533 127.315 121.703C127.544 120.931 127.572 119.731 128.087 119.416C129.269 118.6 130.213 117.484 130.821 116.182C131.429 114.881 131.68 113.441 131.547 112.011C131.547 110.438 130.232 107.979 133.377 107.579C133.155 107.21 132.954 106.828 132.777 106.435C132.434 105.549 132.262 104.72 133.635 104.606C132.977 102.032 135.522 102.347 136.666 101.432C137.295 100.917 138.839 102.061 139.011 100.317L137.409 100.317C137.409 99.8022 137.409 98.973 137.867 98.8586C140.806 97.3512 143.855 96.0704 146.989 95.0273C149.391 94.3125 151.25 91.968 154.11 92.7686C155.215 91.5925 156.577 90.6887 158.091 90.1281C159.604 89.5675 161.227 89.3654 162.832 89.5377ZM32.4319 46.4213L32.0887 47.3363L31.4596 46.4213C30.985 45.9957 30.6134 45.4678 30.3729 44.8774L30.3729 45.3635C30.0833 45.2841 29.8047 45.1688 29.5436 45.0204C29.5436 45.0204 29.5436 44.5915 29.7438 44.3913C30.0717 44.6215 30.2973 44.9701 30.3729 45.3635L31.4596 46.4213L32.5177 46.4213C32.6024 46.1427 32.7174 45.8743 32.8608 45.6208C32.8608 45.6208 33.2898 45.6208 33.5185 45.7923C33.3891 45.965 33.2262 46.1097 33.0394 46.2178C32.8527 46.3259 32.646 46.3951 32.4319 46.4213ZM171.582 81.9895C171.582 83.5906 170.238 82.9044 169.409 83.076C168.923 85.1346 167.235 83.7336 166.177 84.1339C166.177 85.7636 164.862 85.0488 161.43 85.878C161.95 85.6331 162.485 85.423 163.032 85.249C163.364 85.2059 163.7 85.2059 164.033 85.249C163.775 85.6207 163.604 86.1639 163.261 86.2783C162.917 86.3926 162.374 86.1353 164.033 85.249C164.033 83.6478 165.377 84.334 166.177 84.1625C166.692 82.1039 168.351 83.5049 169.409 83.1046C169.409 81.4748 170.753 82.1896 172.554 82.2182L171.582 81.5034C171.811 81.3033 172.068 80.9316 172.326 80.9602C172.782 81.0275 173.225 81.1624 173.641 81.3605C173.212 81.6178 172.869 81.8465 171.582 81.9895ZM159.6 87.7078L158.657 86.993C158.885 86.7929 159.143 86.4498 159.371 86.4498C159.834 86.5303 160.285 86.6646 160.715 86.8501C160.123 87.2932 159.395 87.5157 158.657 87.4791C158.657 89.1088 157.313 88.394 156.483 88.5656C155.968 90.6528 154.31 89.2232 148.819 90.9387C149.849 90.4812 150.707 89.9952 151.679 89.6807C152.208 89.5808 152.751 89.5808 153.28 89.6807C153.28 89.6807 153.28 90.1381 153.28 90.1667C152.079 90.7386 150.878 91.2818 149.649 91.7679C149.649 91.7679 149.277 91.3676 153.28 89.6521C153.795 87.5649 155.454 88.9945 156.512 88.5656C156.455 86.8501 157.713 87.5363 159.486 87.5935L159.6 87.7078ZM112.302 104.863C113.388 106.836 113.36 106.95 106.811 108.322C107.742 107.853 108.696 107.433 109.671 107.064C110.19 106.964 110.724 106.964 111.244 107.064C111.244 107.064 111.244 107.522 111.244 107.551C110.043 108.122 108.842 108.666 107.612 109.152C107.612 109.152 107.24 108.751 111.244 107.036C111.415 106.207 110.729 104.977 112.816 104.863L112.33 104.863C112.418 104.59 112.523 104.322 112.645 104.062C112.645 104.062 113.074 104.062 113.303 104.234C113.151 104.367 112.974 104.468 112.782 104.532C112.591 104.596 112.389 104.621 112.187 104.606L112.302 104.863ZM176.844 79.8451C177.359 77.7579 179.017 79.1589 180.075 78.7586C180.075 77.1575 181.419 77.8437 183.993 77.6721L182.249 77.6721C182.506 77.329 182.735 76.7286 183.106 76.6428C184.508 76.3283 185.652 74.527 187.339 75.8137L187.51 76.1568C185.853 76.9524 184.075 77.4646 182.249 77.6721C182.249 79.3019 180.905 78.5871 180.075 78.7586C179.589 80.8458 177.902 79.4162 174.356 80.5027C174.862 80.2412 175.388 80.0213 175.929 79.8451C176.262 79.8159 176.597 79.8159 176.93 79.8451C176.701 80.1882 176.501 80.76 176.186 80.8744C175.872 80.9888 175.214 80.7029 176.844 79.8451ZM258.001 132.625C257.486 132.654 256.971 132.654 256.456 132.625C256.146 132.523 255.856 132.368 255.598 132.168C255.799 131.968 255.999 131.596 256.199 131.596C257.237 131.539 258.278 131.539 259.316 131.596C259.488 131.596 259.659 131.939 259.831 132.111C259.589 132.318 259.319 132.492 259.03 132.625C258.715 132.625 258.344 132.625 261.89 131.596C261.548 131.639 261.202 131.639 260.86 131.596C260.498 131.465 260.153 131.293 259.831 131.082C260.246 130.856 260.688 130.683 261.146 130.567C261.829 130.467 262.522 130.467 263.205 130.567C263.517 130.651 263.809 130.797 264.063 130.996C263.697 131.224 263.315 131.425 262.919 131.596C262.605 131.596 262.233 131.596 258.001 132.625ZM183.307 146.635C182.878 147.007 182.477 147.608 182.02 147.665C180.658 147.736 179.293 147.736 177.931 147.665C177.473 148.008 177.073 148.608 176.586 148.694C175.385 148.866 174.013 148.437 173.012 148.923C169.486 150.497 165.625 151.174 161.774 150.896C161.345 151.239 160.916 151.868 160.458 151.925C159.114 151.925 157.598 151.925 136.208 156.5L135.036 155.527C136.208 155.242 137.152 154.727 137.238 153.326C137.61 153.526 138.01 153.898 138.382 153.869C139.24 153.869 140.469 153.011 140.898 153.354C141.361 153.738 141.92 153.988 142.514 154.079C143.108 154.17 143.716 154.097 144.273 153.869C147.813 152.599 151.549 151.96 155.311 151.982C155.689 152.095 156.047 152.268 156.369 152.497C155.932 152.727 155.472 152.909 154.996 153.04C151.9 153.246 148.833 153.773 145.845 154.613C144.351 154.961 142.83 155.181 141.299 155.27C139.668 155.642 138.039 156.071 156.283 152.039C156.712 151.668 157.112 151.039 157.57 151.01C158.942 150.939 160.316 150.939 161.688 151.01L161.688 150.495C162.829 150.245 163.985 150.063 165.148 149.952C166.835 149.952 163.804 147.293 166.349 147.779C167.779 146.006 168.951 146.664 170.124 148.094C170.265 148.232 170.437 148.336 170.626 148.395C170.815 148.455 171.015 148.469 171.21 148.437C173.327 147.121 175.643 148.065 177.845 147.779C178.274 147.407 178.674 146.807 179.132 146.75C180.476 146.607 181.848 146.75 185.823 146.75C185.309 146.793 184.793 146.793 184.279 146.75C183.904 146.641 183.547 146.478 183.221 146.264C183.642 146.022 184.094 145.839 184.565 145.72C185.603 145.663 186.644 145.663 187.682 145.72C188.042 145.714 188.4 145.772 188.74 145.892C188.394 146.153 188.007 146.356 187.596 146.492C186.171 146.63 184.738 146.678 183.307 146.635ZM212.875 141.26C212.352 141.303 211.826 141.303 211.303 141.26C210.924 141.148 210.567 140.974 210.244 140.746C210.672 140.49 211.135 140.298 211.617 140.174C212.655 140.102 213.696 140.102 214.734 140.174C215.02 140.174 215.306 140.46 215.592 140.603C215.239 140.852 214.854 141.054 214.448 141.203C212.437 141.451 210.441 141.813 208.472 142.289C207.948 142.318 207.423 142.318 206.899 142.289C206.606 142.181 206.327 142.037 206.069 141.861C206.27 141.632 206.441 141.26 206.67 141.26C207.699 141.203 208.73 141.203 209.758 141.26C209.959 141.26 210.102 141.575 210.273 141.746C210.445 141.918 209.787 142.204 209.501 142.289C209.215 142.375 208.757 142.318 212.875 141.26ZM187.139 137.257C186.424 136.914 185.737 136.771 185.451 136.371C185.165 135.971 186.652 133.512 186.881 133.855C187.504 134.559 188.006 135.361 188.368 136.228C188.368 136.228 187.625 136.857 184.107 138.172L182.277 137.572C182.62 137.372 183.021 136.971 183.364 136.971C184.062 137.079 184.75 137.242 185.423 137.457C185.051 137.686 184.651 137.915 187.196 137.315L187.139 137.257ZM99.2045 110.181L99.7479 108.98C100.72 110.41 102.207 109.952 103.58 110.009C103.58 110.324 103.38 110.839 103.179 110.896C102.35 111.096 101.235 110.896 100.72 111.353C98.604 113.269 99.4333 111.153 104.552 110.21L103.58 109.495C103.809 109.323 104.066 108.952 104.323 108.952C104.776 109.047 105.217 109.19 105.639 109.38C105.296 109.638 104.981 109.866 99.2045 110.181ZM142.099 94.913L140.126 94.913C140.126 94.627 140.298 94.141 140.498 94.0266C142.471 93.226 144.444 92.4541 146.446 91.7107C146.703 91.7107 147.075 91.8536 147.39 91.968C147.704 92.0824 147.39 92.6256 147.161 92.6828C144.072 94.0102 140.837 94.9699 137.524 95.542C138.043 95.2971 138.578 95.087 139.125 94.913C139.457 94.8699 139.794 94.8699 140.126 94.913C139.869 95.2847 139.697 95.8279 139.354 95.9423C139.011 96.0566 138.553 95.7993 141.956 94.913L142.099 94.913ZM126.857 158.501C126.143 158.549 125.427 158.549 124.713 158.501C124.167 158.369 123.632 158.197 123.111 157.986C123.559 157.781 124.017 157.599 124.484 157.443C127.343 156.871 130.203 156.299 132.891 155.756C133.206 155.756 133.549 155.928 133.892 156.042C133.72 156.5 133.606 157.3 133.349 157.357C131.032 157.843 128.687 158.215 120.509 159.159C121.028 158.914 121.563 158.704 122.11 158.53C122.443 158.5 122.778 158.5 123.111 158.53C122.854 158.873 122.682 159.445 122.339 159.559C121.996 159.673 121.31 159.359 126.714 158.501L126.857 158.501ZM131.547 147.722C130.949 148.554 130.31 149.356 129.631 150.124C129.402 150.41 128.745 150.695 128.544 150.581C126.057 149.009 123.34 150.267 119.794 150.581L120.309 149.952L120.795 150.438C120.566 150.61 120.366 150.781 120.137 150.924C119.908 151.067 119.908 150.695 120.795 149.952C123.551 148.626 126.423 147.554 129.374 146.75C130.146 147.007 130.861 147.436 132.891 148.237C132.233 147.751 131.633 147.465 131.662 147.293C131.829 146.717 132.059 146.161 132.348 145.635C132.805 145.949 133.52 146.178 133.692 146.607C133.863 147.036 133.234 147.436 131.547 147.722ZM225.343 139.144C223.685 139.144 223.141 139.144 222.484 139.144C222.484 139.144 222.112 138.858 222.141 138.801C222.169 138.744 222.427 138.144 222.627 138.144C225.532 138.353 228.42 137.555 230.805 135.885C232.721 134.341 234.208 136.828 235.895 135.885C235.895 135.885 236.353 135.885 236.41 135.885C238.155 133.884 240.442 135.17 242.444 134.856C242.759 134.856 243.159 135.17 243.531 135.342C243.245 135.542 242.959 135.885 242.673 135.856C238.073 136.225 233.51 136.971 229.032 138.087C227.402 138.344 225.801 138.944 245.59 134.827C245.248 134.87 244.902 134.87 244.56 134.827C244.199 134.706 243.854 134.543 243.531 134.341C243.932 134.1 244.365 133.917 244.818 133.798C245.511 133.713 246.212 133.713 246.905 133.798C247.208 133.883 247.49 134.029 247.734 134.227C247.378 134.455 247.006 134.655 246.619 134.827C246.448 134.856 246.076 134.798 225.372 139.087L225.343 139.144ZM166.664 141.489L164.976 140.746C165.319 140.574 165.663 140.231 165.977 140.259C166.704 140.416 167.42 140.616 168.122 140.86C167.664 141.06 167.235 141.232 151.164 144.577C150.518 144.596 149.872 144.519 149.248 144.348C148.962 144.348 148.934 143.462 148.791 143.004C149.163 143.004 149.62 142.804 149.877 143.004C150.935 143.69 151.793 144.005 152.022 142.318C152.251 140.631 153.481 141.117 153.995 141.403C155.883 142.432 157.455 142.718 158.742 140.603C158.742 140.603 159.286 140.603 159.486 140.603C161.345 141.889 162.546 141.518 163.203 139.287C163.203 139.144 164.118 139.144 164.576 139.287C165.034 139.43 165.034 139.974 164.919 140.117C164.433 140.888 163.947 142.061 163.261 142.232C159.343 143.033 155.339 143.776 166.692 141.432L166.664 141.489ZM152.051 52.4256L152.051 52.9117C151.772 52.827 151.504 52.7119 151.25 52.5686C151.25 52.5686 151.25 52.1397 151.422 51.911C151.593 51.6822 151.851 52.2541 148.162 67.9509C148.162 67.5793 147.618 66.9216 147.79 66.6929C149.563 64.1196 149.363 60.9746 150.65 58.1154C151.679 55.7994 152.423 53.3406 153.223 50.9389C154.024 48.5371 156.083 46.1926 155.397 43.2191C155.404 42.9693 155.467 42.7243 155.581 42.5018C155.694 42.2793 155.856 42.0848 156.054 41.9324C157.427 41.0175 157.427 39.7023 157.598 38.2441C157.923 36.626 158.411 35.0452 159.057 33.5265C160.058 34.47 161.144 35.3849 162.088 36.3857C162.822 37.297 163.5 38.2518 164.118 39.2448C167.235 43.9053 170.724 48.3656 174.242 52.7687C176.386 55.4564 176.529 55.6279 173.412 57.0861C171.811 57.9152 170.067 58.4585 168.437 59.2591C165.777 60.6029 162.889 61.432 160.172 62.6043C156.512 64.1482 153.023 66.0639 149.448 67.808C149.105 68.0653 148.705 67.9509 152.051 52.4256ZM210.244 120.302L210.244 120.788C209.966 120.704 209.697 120.589 209.444 120.445C209.444 120.445 209.444 120.017 209.615 119.788C209.945 120.029 210.17 120.387 210.244 120.788C211.065 120.617 211.862 120.348 212.618 119.988C213.899 119.337 215.33 119.04 216.764 119.13C217.98 119.243 219.206 119.094 220.36 118.695C221.514 118.295 222.57 117.654 223.456 116.814C223.856 116.557 224.657 116.814 225.258 116.814C225.858 116.814 226.802 117.472 227.031 117.243C228.918 115.528 231.148 116.7 233.15 116.357C234.025 116.376 234.899 116.29 235.753 116.099C236.496 115.756 236.954 114.555 237.697 114.355C238.441 114.155 239.87 115.156 240.214 114.813C241.729 113.326 243.845 114.813 245.618 113.269C246.905 112.125 249.593 113.755 251.624 112.297C252.238 111.687 253.039 111.299 253.899 111.195C254.759 111.092 255.629 111.278 256.371 111.725C257.686 110.21 259.573 111.582 260.86 110.896C262.206 110.106 263.769 109.766 265.321 109.924C266.551 109.924 267.209 109.38 268.181 108.723C269.153 108.065 271.041 106.721 271.441 107.036C275.158 109.352 278.504 106.15 282.05 106.664C283.451 104.634 284.91 107.751 286.483 106.664C288.999 104.72 291.973 106.064 294.718 105.721C294.947 105.721 295.204 106.092 295.462 106.264C295.199 106.464 294.911 106.627 294.604 106.75C289.735 108.117 284.775 109.139 279.762 109.809C274.815 110.41 269.897 111.41 265.121 112.411C259.275 113.158 253.524 114.519 247.963 116.471C242.902 116.042 238.269 118.701 233.236 118.616C231.377 120.417 228.804 119.073 226.83 120.017C225.371 120.587 223.87 121.046 222.341 121.389C220.448 121.688 218.537 121.85 216.622 121.875C215.821 122.047 214.763 122.218 214.334 122.79C213.276 124.191 211.903 123.905 210.502 124.048C208.232 123.97 205.96 124.133 203.724 124.534C199.964 125.609 196.145 126.469 192.286 127.107C189.54 127.224 186.817 127.646 184.165 128.365C181.779 129.693 178.977 130.061 176.329 129.395C175.185 131.396 172.898 129.738 171.554 130.881C170.209 132.025 168.122 131.167 166.463 131.596C164.817 131.806 163.236 132.372 161.831 133.255C161.173 133.798 161.516 135.399 160.201 133.826C159.457 132.969 158.828 132.282 157.884 133.683C156.941 135.084 156.111 135.427 154.882 133.998C154.683 133.863 154.453 133.779 154.213 133.754C153.974 133.729 153.732 133.764 153.509 133.855C149.992 136.485 144.787 134.169 141.727 138.029L141.356 137.629C139.783 135.427 138.782 138.372 137.238 138.144C135.694 137.915 133.778 137.343 132.205 138.858C130.632 140.374 128.888 137.315 127.258 139.059C127.258 139.059 126.629 139.059 126.343 138.773C125.986 138.598 125.595 138.508 125.199 138.508C124.802 138.508 124.411 138.598 124.055 138.773L124.57 138.144L125.027 138.601C124.837 138.787 124.626 138.951 124.398 139.087C124.398 139.087 124.169 138.887 125.027 138.144C125.027 137.829 125.313 137.257 125.399 137.257C129.974 137.743 133.835 134.141 138.439 134.913C139.583 132.683 141.956 134.284 143.701 133.226C145.445 132.168 147.818 132.969 149.906 132.711C151.241 132.635 152.532 132.211 153.652 131.482C155.168 130.252 155.225 130.881 155.282 132.225C155.282 132.225 155.74 132.397 155.997 132.483C156.455 129.194 158.085 131.139 159.514 131.625C160.174 131.738 160.852 131.617 161.43 131.282C161.602 128.594 163.661 129.795 164.976 129.509C165.834 129.309 166.463 131.51 167.378 129.709C168.093 128.337 169.123 129.08 170.067 129.223C170.352 126.364 172.554 127.708 174.041 127.307C175.014 127.05 176.901 129.709 176.901 126.564C177.52 126.534 178.139 126.611 178.731 126.793C179.117 127.072 179.56 127.262 180.029 127.349C180.498 127.436 180.98 127.417 181.44 127.293C181.9 127.17 182.327 126.946 182.69 126.636C183.052 126.327 183.341 125.941 183.535 125.506C182.963 125.992 182.792 126.25 182.62 126.25C182.144 126.222 181.674 126.136 181.219 125.992C181.219 125.763 181.219 125.335 181.419 125.335C181.762 125.308 182.105 125.383 182.406 125.551C182.706 125.719 182.95 125.972 183.106 126.278C184.022 125.935 185.48 125.049 185.737 125.335C187.139 126.736 188.082 126.45 189.169 125.106C189.481 124.784 189.849 124.523 190.256 124.334C192.057 126.45 192.858 124.334 194.002 123.505C194.373 123.247 195.26 122.961 195.346 123.076C196.518 124.763 198.205 123.305 198.634 123.076C200.036 121.703 200.951 122.018 202.152 123.076C202.323 123.076 203.038 122.819 203.496 122.647C201.465 120.045 204.068 121.103 204.897 120.989C205.573 120.823 206.28 120.827 206.953 121.002C207.627 121.177 208.247 121.516 208.757 121.989C209.383 121.556 209.893 120.977 210.244 120.302ZM144.244 77.2719C146.046 76.9002 144.959 74.67 147.104 74.4127C149.486 73.7037 151.764 72.6847 153.881 71.382C156.284 70.6709 158.555 69.5697 160.601 68.1225C163.632 68.8945 165.091 66.0067 167.436 65.2633C168.082 65.0177 168.781 64.9391 169.466 65.0346C171.263 65.1129 173.028 64.5448 174.442 63.4334C175.929 62.6901 177.13 61.3177 178.617 60.5743C179.046 60.3455 180.104 61.1461 180.762 61.6608C180.732 62.1587 180.518 62.6277 180.161 62.976C178.28 64.1266 176.287 65.0845 174.213 65.8352C171.537 66.7453 168.944 67.8837 166.463 69.2376C161.659 71.5249 156.483 72.8115 151.793 75.3562C149.867 76.2579 147.879 77.0222 145.845 77.6435C145.474 77.7579 144.959 77.2719 144.244 77.2719ZM96.2305 98.4298C95.63 98.1152 95.1153 98.0009 95.0867 97.8293C94.9588 97.3484 95.0202 96.8367 95.2582 96.3997C95.8673 95.8156 96.5867 95.3588 97.3744 95.0559C99.7193 94.1696 102.121 93.512 104.409 92.5398C107.898 90.9959 111.301 89.2518 114.761 87.6221C115.095 87.5088 115.457 87.5088 115.79 87.6221C116.41 87.7528 117.001 87.995 117.535 88.3369C117.535 88.3369 117.392 89.3376 117.077 89.6807C114.589 91.9723 111.472 93.4661 108.127 93.9694C106.282 94.2394 104.544 94.9998 103.094 96.171C101.121 97.9723 98.0893 96.6571 96.2305 98.3154L96.2305 98.4298ZM202.609 142.375L204.697 143.147C203.867 143.147 203.01 143.376 202.18 143.519C201.351 143.662 201.208 143.776 200.722 143.891C197.465 144.907 194.092 145.502 190.685 145.663C190.399 145.663 190.113 145.349 189.798 145.177C190.055 144.92 190.256 144.634 190.513 144.405C190.77 144.177 191.399 143.49 191.743 143.576C195.317 144.119 198.606 142.289 202.609 142.261L202.609 142.375ZM135.122 146.55L134.922 145.892C135.231 145.768 135.528 145.615 135.808 145.435C138.181 143.776 140.87 144.462 143.443 144.405C144.83 144.449 146.214 144.563 147.59 144.748C146.589 146.121 144.902 144.748 143.929 145.52C141.785 147.007 139.097 145.835 137.038 147.093C135.665 148.036 135.808 146.492 135.122 146.435L135.122 146.55ZM98.2037 104.062L98.9758 103.29C100.012 102.296 101.244 101.529 102.593 101.037C103.942 100.545 105.378 100.338 106.811 100.431C107.097 100.431 107.412 100.688 107.726 100.803C107.411 101.057 107.076 101.287 106.725 101.489C104.323 102.576 101.921 103.662 99.5191 104.72C99.1827 104.746 98.8458 104.676 98.5468 104.52C98.4038 104.377 98.3181 104.177 98.2037 104.062ZM194.917 135.856C194.574 135.885 194.23 135.885 193.887 135.856C193.258 135.856 192.629 135.542 192 135.37C192.458 134.884 192.886 134.37 193.344 133.912C195.117 132.225 195.689 132.225 196.976 133.912C197.662 134.77 197.405 135.742 196.49 135.856C195.966 135.885 195.441 135.885 194.917 135.856ZM251.938 133.712C251.481 132.54 249.851 134.97 249.221 132.997C250.251 132.997 251.252 132.74 252.253 132.654C252.784 132.583 253.323 132.583 253.854 132.654C254.026 132.654 254.169 133.083 254.254 133.34C254.34 133.598 254.026 133.683 253.883 133.683C253.74 133.683 252.825 133.712 251.938 133.712ZM49.6755 62.6043C49.6327 62.0905 49.6327 61.5741 49.6755 61.0603C49.6755 60.8602 50.1045 60.7172 50.3618 60.6029C50.6192 60.4885 50.6192 60.803 50.705 60.946C51.1824 61.595 51.5229 62.3343 51.7059 63.1189C51.7059 63.605 50.848 64.0911 50.3618 64.5771C50.0925 64.2942 49.8617 63.977 49.6755 63.6336C49.6168 63.293 49.6168 62.9449 49.6755 62.6043ZM219.424 140.174C218.729 140.216 218.032 140.216 217.336 140.174C217.165 140.174 217.05 139.716 216.936 139.487L220.854 139.487C220.854 139.745 220.682 140.117 220.482 140.202C220.13 140.254 219.772 140.245 219.424 140.174ZM156.512 81.046C156.083 80.8458 155.825 80.8172 155.797 80.7315C155.768 80.6457 155.797 80.1596 155.797 80.0167C156.26 79.5456 156.778 79.1327 157.341 78.7872C157.541 78.7872 157.97 78.7872 158.285 78.7872C158.235 79.1748 158.098 79.5462 157.884 79.8737C157.42 80.3023 156.923 80.6942 156.397 81.046L156.512 81.046ZM268.438 130.481C267.915 130.524 267.389 130.524 266.865 130.481C266.694 130.481 266.608 130.024 266.494 129.766L270.411 129.766C270.411 129.995 270.183 130.424 270.011 130.453C269.488 130.505 268.962 130.514 268.438 130.481ZM152.165 7.85108L150.993 7.13629L152.794 5.79248C152.794 6.10699 153.195 6.47868 153.109 6.67882C152.837 7.10194 152.52 7.4949 152.165 7.85108ZM163.404 77.7293C163.203 77.3862 162.803 77.0145 162.889 76.8716C163.148 76.3737 163.497 75.9279 163.918 75.5564C163.918 75.5564 164.519 75.9852 164.833 76.214L163.404 77.7293ZM40.9822 53.4263L42.841 51.9967C42.841 52.2827 43.2699 52.7401 43.1841 52.8545C42.8351 53.2909 42.4085 53.6592 41.9259 53.941C41.7829 54.0268 41.3826 53.6551 40.9822 53.4263ZM161.087 78.9302L159.772 78.4155L161.202 76.6142C161.373 76.9002 161.745 77.2147 161.688 77.4434C161.552 77.9583 161.36 78.4568 161.116 78.9302L161.087 78.9302ZM286.197 158.987C284.996 158.101 284.652 157.929 284.395 157.672C284.138 157.415 283.937 156.928 283.709 156.585C284.195 156.585 284.91 156.128 285.081 156.299C285.583 157.17 285.967 158.102 286.225 159.073L286.197 158.987ZM284.281 127.365C283.537 127.107 283.08 126.964 282.622 126.793C283.063 126.496 283.545 126.265 284.052 126.107C284.543 126.132 285.026 126.238 285.482 126.421L284.281 127.365ZM278.847 126.936C279.248 127.222 279.677 127.536 280.106 127.879C279.65 128.062 279.166 128.168 278.676 128.194C278.158 128.053 277.666 127.831 277.217 127.536L278.847 126.936ZM273.5 129.538L271.841 128.966C272.275 128.657 272.759 128.425 273.271 128.28C273.762 128.305 274.245 128.411 274.701 128.594L273.5 129.538ZM248.792 125.277C248.192 125.02 247.591 124.791 246.991 124.563C247.393 124.289 247.853 124.112 248.335 124.048C248.983 124.139 249.617 124.312 250.222 124.563C249.708 124.763 249.279 124.991 248.792 125.277ZM147.533 7.13629C147.704 7.13629 148.076 6.90755 148.476 6.736C148.476 7.02192 148.848 7.36502 148.791 7.62235C148.734 7.87967 148.362 8.25137 148.133 8.56588L147.533 7.13629ZM147.704 11.6824C147.332 11.6824 146.875 11.6824 146.875 11.6824C146.832 11.2068 146.832 10.7284 146.875 10.2528C147.103 10.2252 147.333 10.2252 147.561 10.2528C147.647 10.6245 147.647 11.1105 147.704 11.6824ZM36.7213 46.2212C36.2132 46.3273 35.6961 46.3847 35.1771 46.3928C35.0341 46.3928 34.8912 45.9639 34.7768 45.7351C35.2281 45.5641 35.6987 45.4489 36.178 45.392C36.178 45.392 36.464 45.8209 36.7213 46.2212ZM126.772 117.701L126.371 116.786C126.657 116.786 127 116.385 127.258 116.443C127.515 116.5 127.887 116.9 128.173 117.129L126.772 117.701ZM111.015 97.9723L111.644 97.0288C111.886 97.4463 112.06 97.9 112.159 98.3726C112.159 98.6013 111.844 98.8872 111.644 99.1731L111.015 97.9723ZM277.703 160.874C277.418 160.474 277.074 160.159 277.103 159.931C277.207 159.46 277.38 159.007 277.618 158.587C277.789 158.844 278.132 159.13 278.104 159.387C278.031 159.87 277.896 160.34 277.703 160.788L277.703 160.874ZM199.521 134.455C199.778 134.055 199.921 133.626 200.064 133.626C200.543 133.686 201.013 133.801 201.465 133.969C201.465 134.198 201.208 134.627 201.065 134.627C200.546 134.622 200.028 134.564 199.521 134.455ZM109.871 120.159L109.499 120.56C109.362 120.323 109.247 120.074 109.156 119.816C109.156 119.816 109.385 119.588 109.499 119.473L109.871 120.159ZM43.3843 59.7451L43.7561 59.3734C43.8989 59.597 44.0141 59.837 44.0992 60.0882C44.0992 60.0882 43.8704 60.3169 43.7561 60.4313L43.3843 59.7451ZM53.6218 61.6608L53.9936 62.061C53.77 62.2038 53.5299 62.319 53.2787 62.4041C53.2787 62.4041 53.0499 62.1754 52.9069 62.061L53.6218 61.6608ZM106.64 104.234L106.268 104.606C106.125 104.382 106.01 104.142 105.925 103.891C105.925 103.891 106.153 103.662 106.268 103.548L106.64 104.234ZM108.813 124.706L108.413 125.077C108.27 124.854 108.155 124.614 108.069 124.362C108.069 124.362 108.298 124.134 108.413 124.019L108.813 124.706ZM113.274 97.6006C113.274 97.6006 113.531 97.2575 113.617 97.2861C113.867 97.3614 114.107 97.467 114.332 97.6006C114.332 97.6006 114.075 97.9723 113.989 97.9437C113.733 97.8707 113.491 97.7547 113.274 97.6006ZM133.291 154.012L132.605 153.64C132.605 153.64 132.863 153.297 132.948 153.297C133.206 153.388 133.455 153.503 133.692 153.64L133.291 154.012ZM135.465 154.012L134.75 153.64C134.75 153.64 135.036 153.297 135.122 153.297C135.373 153.382 135.613 153.498 135.837 153.64L135.465 154.012ZM142.357 77.2719C142.357 77.2719 142.643 76.9287 142.728 76.9573C142.979 77.0326 143.219 77.1383 143.443 77.2719C143.443 77.4148 143.186 77.6435 143.1 77.615C142.837 77.5368 142.587 77.4213 142.357 77.2719ZM150.449 82.1325C150.449 82.1325 150.078 81.8751 150.106 81.7894C150.197 81.5312 150.312 81.2823 150.449 81.046C150.449 81.1889 150.793 81.3319 150.793 81.4177C150.698 81.6194 150.583 81.811 150.449 81.9895L150.449 82.1325ZM156.54 4.01979L156.912 3.33359C156.912 3.33359 157.255 3.59091 157.255 3.67669C157.165 3.93479 157.05 4.18371 156.912 4.42007L156.54 4.01979ZM158.371 149.495L157.999 149.866C157.856 149.643 157.741 149.403 157.656 149.152C157.656 149.152 157.884 148.923 157.999 148.808L158.371 149.495ZM160.287 17.2292L159.6 16.8289C159.6 16.8289 159.886 16.4858 159.972 16.4858C160.221 16.5766 160.46 16.6915 160.687 16.8289L160.287 17.2292ZM159.772 145.206L160.144 144.52C160.144 144.52 160.515 144.777 160.487 144.863C160.402 145.114 160.286 145.354 160.144 145.578L159.772 145.206ZM161.373 22.6044L160.687 22.2327C160.687 22.2327 160.944 21.861 161.03 21.8896C161.293 21.9677 161.543 22.0833 161.774 22.2327L161.373 22.6044ZM167.092 16.8861L166.606 17.2292C166.464 17.0056 166.348 16.7656 166.263 16.5144C166.263 16.5144 166.492 16.2571 166.606 16.1427L167.092 16.8861ZM168.923 74.4127L168.236 74.0124C168.236 74.0124 168.494 73.6693 168.58 73.6979C168.83 73.7732 169.07 73.8788 169.294 74.0124L168.923 74.4127ZM172.011 140.174C172.011 140.174 171.639 139.916 171.668 139.831C171.746 139.568 171.862 139.317 172.011 139.087C172.011 139.23 172.354 139.373 172.326 139.459C172.25 139.709 172.145 139.949 172.011 140.174ZM173.612 72.8401C173.612 72.8401 173.87 72.4684 173.984 72.497C174.231 72.5936 174.47 72.7082 174.699 72.8401C174.699 72.8401 174.442 73.1832 174.327 73.1832C174.078 73.0925 173.839 72.9775 173.612 72.8401ZM176.301 72.2969C176.301 72.2969 175.957 72.0396 175.986 71.9538C176.066 71.6964 176.172 71.4474 176.301 71.2104C176.444 71.2104 176.672 71.4677 176.644 71.5821C176.563 71.8351 176.448 72.0757 176.301 72.2969ZM177.301 138.944L176.901 138.573C177.124 138.429 177.364 138.314 177.616 138.229C177.616 138.229 177.873 138.43 177.988 138.573L177.301 138.944ZM178.674 70.3241L179.074 70.6958C178.844 70.8452 178.594 70.9607 178.331 71.0388C178.331 71.0388 178.102 70.8387 177.988 70.6958L178.674 70.3241ZM188.74 75.1561L189.14 74.4413C189.14 74.4413 189.483 74.7272 189.455 74.813C189.38 75.0632 189.274 75.3032 189.14 75.5278L188.74 75.1561ZM207.985 139.63C207.985 139.63 208.243 139.287 208.329 139.287C208.587 139.378 208.836 139.493 209.072 139.63C209.072 139.63 208.786 140.002 208.7 139.974C208.489 139.881 208.287 139.766 208.1 139.63L207.985 139.63ZM253.368 123.476C253.368 123.476 253.625 123.104 253.711 123.133C253.962 123.218 254.202 123.333 254.426 123.476C254.426 123.476 254.169 123.819 254.083 123.819C253.832 123.734 253.592 123.619 253.368 123.476ZM262.919 176.428L262.519 176.8C262.376 176.576 262.261 176.336 262.176 176.085C262.176 176.085 262.404 175.856 262.519 175.742L262.919 176.428ZM271.841 119.245L272.213 118.53C272.213 118.53 272.585 118.816 272.556 118.901C272.471 119.153 272.356 119.393 272.213 119.616L271.841 119.245ZM280.678 118.387L280.249 118.072C280.473 117.939 280.713 117.833 280.963 117.758C280.963 117.758 281.192 117.958 281.335 118.072L280.678 118.387ZM283.394 162.332L282.994 162.704C282.851 162.48 282.736 162.24 282.651 161.989C282.651 161.989 282.879 161.76 282.994 161.646L283.394 162.332ZM288.227 150.896L288.828 151.61C288.828 151.61 288.57 151.954 288.484 151.954C288.233 151.868 287.993 151.753 287.769 151.61L288.227 150.896ZM290.143 154.67L290.543 153.984C290.543 153.984 290.886 154.241 290.886 154.327C290.796 154.585 290.681 154.834 290.543 155.07L290.143 154.67Z" fill="#1FCCF2"/>
    <path d="M204.868 148.98C204.868 148.637 204.868 148.237 204.582 148.036C204.469 147.911 204.325 147.819 204.164 147.769C204.003 147.718 203.831 147.712 203.667 147.751C199.907 148.762 196.086 149.535 192.229 150.066C188.368 150.953 184.165 150.81 180.647 152.926C177.748 152.873 174.857 153.248 172.068 154.041C169.895 154.384 167.722 154.727 165.577 155.213C165.32 155.213 165.205 156.099 165.062 156.557C165.377 156.7 165.717 156.778 166.063 156.786C168.522 156.242 170.953 155.585 173.412 155.127C175.872 154.67 178.931 155.127 180.905 153.869C182.878 152.611 185.852 153.383 188.282 152.125C191.214 151.261 194.264 150.865 197.319 150.953C199.664 150.61 202.009 150.238 204.354 149.809C204.582 149.752 204.697 149.266 204.868 148.98Z" fill="#1FCCF2"/>
    <path d="M245.933 141.46C247.792 141.003 249.593 140.574 251.423 140.174C253.254 139.773 255.169 140.831 257.143 139.345C258.058 138.63 260.002 139.345 261.318 139.059C262.633 138.773 263.891 138.315 265.178 138.029C267.008 137.629 268.839 137.343 270.64 136.914C270.983 136.914 271.241 136.428 271.527 136.171L269.982 134.913C268.581 136.6 266.637 135.427 265.007 135.885C259.304 137.583 253.438 138.676 247.506 139.144C246.905 139.144 246.39 139.888 245.79 140.145C245.144 140.351 244.484 140.513 243.817 140.631L245.933 141.46Z" fill="#1FCCF2"/>
    <path d="M223.227 145.892C225.172 145.463 227.145 145.006 229.118 144.634C231.091 144.262 233.064 145.463 234.58 143.548C237.24 144.177 239.584 142.575 242.13 142.347C242.33 142.347 242.444 141.46 242.587 140.974C242.236 140.933 241.88 140.933 241.529 140.974C238.355 141.518 235.152 141.861 232.064 142.69C229.059 142.985 226.107 143.677 223.284 144.748C222.611 145.066 221.9 145.297 221.168 145.435L223.227 145.892Z" fill="#1FCCF2"/>
    <path d="M161.402 156.014C160.268 156.619 159.055 157.061 157.799 157.329C153.242 157.805 148.717 158.54 144.244 159.53C142.442 159.873 140.612 160.245 138.811 160.645C138.553 160.645 138.353 161.017 138.124 161.217C138.41 161.389 138.725 161.703 138.982 161.675C142.25 161.376 145.497 160.879 148.705 160.188C151.468 159.486 154.264 158.923 157.084 158.501C158.776 158.465 160.441 158.076 161.974 157.357C162.602 157.098 163.269 156.944 163.947 156.9L161.402 156.014Z" fill="#1FCCF2"/>
    <path d="M216.107 145.549C214.791 145.806 212.589 146.149 210.387 146.664C208.929 147.007 207.528 147.579 206.127 148.036L206.127 148.408C206.821 148.762 207.6 148.917 208.377 148.857C209.154 148.796 209.899 148.522 210.53 148.065C211.137 147.719 211.849 147.608 212.532 147.751C214.593 147.841 216.647 147.46 218.537 146.635L219.939 146.121C219.518 145.898 219.078 145.716 218.623 145.578C217.786 145.515 216.945 145.505 216.107 145.549Z" fill="#1FCCF2"/>
    <path d="M116.791 165.906C119.451 165.506 122.11 165.106 124.741 164.648C124.913 164.648 125.142 164.019 125.084 163.79C125.027 163.562 124.512 162.876 124.398 162.933C121.592 163.793 118.724 164.434 115.819 164.848C115.371 165.005 114.932 165.186 114.504 165.392C114.951 165.588 115.41 165.76 115.876 165.906C116.18 165.938 116.487 165.938 116.791 165.906Z" fill="#1FCCF2"/>
    <path d="M154.053 94.913C155.568 94.3411 157.112 93.8265 158.628 93.1689C159 92.9973 159.171 92.4541 159.457 92.0824C158.971 92.0824 158.085 91.6821 158.085 91.7107C157.341 93.8551 154.624 91.7107 153.824 93.6549C153.824 93.9694 153.395 94.1696 153.195 94.4269C153.481 94.5985 153.767 94.77 154.053 94.913Z" fill="#1FCCF2"/>
    <path d="M193.001 78.7586C191.993 78.5438 190.944 78.6329 189.987 79.0147C189.03 79.3964 188.208 80.0536 187.625 80.903C188.632 81.1178 189.681 81.0287 190.638 80.647C191.596 80.2652 192.418 79.608 193.001 78.7586Z" fill="#1FCCF2"/>
    <path d="M128.859 162.79C127.801 162.79 127.258 162.79 126.743 162.79C126.228 162.79 126.371 163.076 126.4 163.133C126.428 163.19 126.629 163.79 126.8 163.819C127.322 163.892 127.851 163.892 128.373 163.819C129.031 163.819 129.688 163.562 130.346 163.447C129.717 163.19 129.059 163.047 128.859 162.79Z" fill="#1FCCF2"/>
    <path d="M173.612 86.3068C174.671 85.878 176.472 87.3076 176.844 85.2204C175.786 85.6207 174.127 84.2197 173.612 86.3068Z" fill="#1FCCF2"/>
    <path d="M182.249 82.9902C181.191 83.3905 179.389 81.9895 179.017 84.0481C180.161 83.7336 181.734 85.1346 182.249 82.9902Z" fill="#1FCCF2"/>
    <path d="M144.53 98.1438C143.472 98.5727 141.67 97.1431 141.299 99.2303C142.357 98.83 144.015 100.145 144.53 98.1438Z" fill="#1FCCF2"/>
    <path d="M133.034 163.047L134.664 162.447C134.202 162.158 133.702 161.936 133.177 161.789C132.683 161.811 132.198 161.927 131.747 162.132L133.034 163.047Z" fill="#1FCCF2"/>
    <path d="M162.832 89.5377L162.832 90.6242C163.182 90.6823 163.539 90.6823 163.89 90.6242C164.227 90.4297 164.535 90.1891 164.805 89.9094C164.51 89.7701 164.204 89.6554 163.89 89.5663C163.538 89.5281 163.184 89.5186 162.832 89.5377Z" fill="#1FCCF2"/>
    <path d="M165.634 89.1088C166.578 89.3376 167.092 89.5949 167.464 89.4805C167.836 89.3662 167.979 88.8229 168.236 88.4512C167.904 88.4081 167.568 88.4081 167.235 88.4512C166.686 88.6297 166.15 88.8495 165.634 89.1088Z" fill="#1FCCF2"/>
    <path d="M139.125 100.317C139.954 100.145 141.184 100.831 141.299 99.2303C140.469 99.4019 139.211 98.6871 139.125 100.317Z" fill="#1FCCF2"/>
    <path d="M169.209 88.7086L170.295 87.8508C169.873 87.6693 169.432 87.535 168.98 87.4505C168.722 87.4505 168.465 87.7936 168.236 87.9938L169.209 88.7086Z" fill="#1FCCF2"/>
    <path d="M171.01 86.9645C171.982 87.1646 172.469 87.4505 172.869 87.3362C173.269 87.2218 173.355 86.6499 173.612 86.3068C173.279 86.2776 172.945 86.2776 172.612 86.3068C172.24 86.4212 171.868 86.6214 171.01 86.9645Z" fill="#1FCCF2"/>
    <path d="M179.017 84.1339C178.188 84.3054 176.93 83.6192 176.844 85.2204C177.673 85.0488 178.903 85.8494 179.017 84.1339Z" fill="#1FCCF2"/>
    <path d="M185.022 81.5606C185.995 81.7894 186.481 82.0753 186.853 81.9323C187.224 81.7894 187.367 81.2747 187.625 80.903C187.292 80.8599 186.956 80.8599 186.624 80.903C186.076 81.0863 185.541 81.306 185.022 81.5606Z" fill="#1FCCF2"/>
    <path d="M193.973 78.9588L195.088 78.1296C194.662 77.9312 194.21 77.7963 193.744 77.7293C193.516 77.7293 193.258 78.0724 193.001 78.244L193.973 78.9588Z" fill="#1FCCF2"/>
    <path d="M98.3467 117.3L98.7184 117.701C98.8561 117.464 98.971 117.215 99.0616 116.957C99.0616 116.957 98.8328 116.728 98.7184 116.614L98.3467 117.3Z" fill="#1FCCF2"/>
    <path d="M103.179 115.242L103.58 114.841C103.383 114.689 103.172 114.555 102.951 114.441C102.951 114.441 102.722 114.641 102.608 114.756L103.179 115.242Z" fill="#1FCCF2"/>
    <path d="M127.915 122.847C127.915 122.847 128.259 122.533 128.23 122.504C128.087 122.272 127.924 122.052 127.744 121.846L127.286 122.332L127.915 122.847Z" fill="#1FCCF2"/>
    <path d="M134.407 105.606C134.407 105.606 134.75 105.32 134.721 105.263C134.693 105.206 134.407 104.834 134.264 104.606L133.778 105.092L134.407 105.606Z" fill="#1FCCF2"/>
    <path d="M144.987 98.1438L145.502 97.5148C145.273 97.5148 144.902 97.2575 144.844 97.3433C144.7 97.5927 144.594 97.8626 144.53 98.1438L144.987 98.1438Z" fill="#1FCCF2"/>
    <path d="M149.906 95.4562C150.13 95.599 150.37 95.7142 150.621 95.7993C150.621 95.7993 150.878 95.5706 150.993 95.4562C150.756 95.3185 150.507 95.2037 150.249 95.1131C150.249 95.1131 150.02 95.3418 149.906 95.4562Z" fill="#1FCCF2"/>
    <path d="M161.859 91.2246C161.859 91.3676 162.145 91.5963 162.202 91.5677C162.431 91.4311 162.642 91.2679 162.832 91.0817L162.345 90.6242L161.859 91.2246Z" fill="#1FCCF2"/>
    <path d="M182.706 82.9902L183.221 82.3326C182.992 82.3326 182.62 82.1039 182.563 82.161C182.412 82.4176 182.306 82.698 182.249 82.9902L182.706 82.9902Z" fill="#1FCCF2"/>
    <path d="M297.092 150.867C297.092 150.724 297.435 150.553 297.435 150.524L296.949 149.866L296.463 150.352L297.092 150.867Z" fill="#1FCCF2"/>
</svg>