<svg width="317" height="365" viewBox="0 0 317 365" fill="none" xmlns="http://www.w3.org/2000/svg">
    <rect x="49.2955" width="86.1433" height="86.1433" rx="5" transform="rotate(15 49.2955 0)" fill="#DEF0F0"/>
    <path d="M80 215C80 237.091 62.0914 255 40 255C17.9086 255 0 237.091 0 215C0 192.909 17.9086 175 40 175C62.0914 175 80 192.909 80 215ZM21.3104 215C21.3104 225.322 29.678 233.69 40 233.69C50.322 233.69 58.6896 225.322 58.6896 215C58.6896 204.678 50.322 196.31 40 196.31C29.678 196.31 21.3104 204.678 21.3104 215Z" fill="#DEF0F0"/>
    <path d="M101.646 145.769C100.65 142.052 104.052 138.65 107.769 139.646L262.35 181.065C266.068 182.062 267.313 186.709 264.591 189.431L151.431 302.591C148.709 305.313 144.062 304.067 143.065 300.35L101.646 145.769Z" fill="#DEF0F0"/>
    <path d="M207.905 335.663C207.041 336.527 207.041 337.929 207.905 338.794L216.984 347.872C217.848 348.737 219.25 348.737 220.114 347.872L233.889 334.098L247.663 347.872C248.527 348.737 249.929 348.737 250.794 347.872L259.872 338.794C260.737 337.929 260.737 336.527 259.872 335.663L246.098 321.889L259.872 308.114C260.737 307.25 260.737 305.848 259.872 304.984L250.794 295.905C249.929 295.04 248.527 295.04 247.663 295.905L233.889 309.679L220.114 295.905C219.25 295.04 217.848 295.04 216.984 295.905L207.905 304.984C207.041 305.848 207.041 307.25 207.905 308.114L221.679 321.889L207.905 335.663Z" fill="#DEF0F0"/>
</svg>
