<svg width="349" height="211" viewBox="0 0 349 211" fill="none" xmlns="http://www.w3.org/2000/svg">
    <rect x="-42" y="60.9126" width="86.1433" height="86.1433" rx="5" transform="rotate(-45 -42 60.9126)" fill="#DEF0F0"/>
    <path d="M81.8426 115.551C93.8491 122.483 97.9629 137.836 91.0309 149.843C84.0989 161.849 68.7462 165.963 56.7397 159.031C44.7332 152.099 40.6195 136.746 47.5514 124.74C54.4834 112.733 69.8361 108.62 81.8426 115.551ZM63.4266 147.449C69.0366 150.688 76.2099 148.766 79.4488 143.156C82.6877 137.546 80.7656 130.372 75.1557 127.134C69.5458 123.895 62.3724 125.817 59.1335 131.427C55.8946 137.037 57.8167 144.21 63.4266 147.449Z" fill="#DEF0F0"/>
    <path d="M310.08 202.291C310.396 203.472 311.61 204.173 312.791 203.857L325.193 200.534C326.373 200.217 327.074 199.003 326.758 197.823L321.716 179.006L340.532 173.965C341.713 173.648 342.414 172.434 342.097 171.253L338.774 158.852C338.458 157.671 337.244 156.97 336.063 157.287L317.247 162.328L312.205 143.512C311.889 142.331 310.675 141.63 309.494 141.947L297.093 145.27C295.912 145.586 295.211 146.8 295.527 147.981L300.569 166.797L281.753 171.839C280.572 172.155 279.871 173.369 280.188 174.55L283.511 186.952C283.827 188.133 285.041 188.833 286.222 188.517L305.038 183.475L310.08 202.291Z" fill="#DEF0F0"/>
</svg>
