<svg width="281" height="288" viewBox="0 0 281 288" fill="none" xmlns="http://www.w3.org/2000/svg">
    <path d="M281 198.5C281 247.929 240.929 288 191.5 288C142.071 288 102 247.929 102 198.5C102 149.071 142.071 109 191.5 109C240.929 109 281 149.071 281 198.5ZM149.682 198.5C149.682 221.595 168.405 240.318 191.5 240.318C214.595 240.318 233.318 221.595 233.318 198.5C233.318 175.405 214.595 156.682 191.5 156.682C168.405 156.682 149.682 175.405 149.682 198.5Z" fill="white"/>
    <path d="M7.49999 155.33C4.16666 153.406 4.16666 148.594 7.5 146.67L46.5 124.153C49.8333 122.229 54 124.634 54 128.483L54 173.517C54 177.366 49.8333 179.771 46.5 177.847L7.49999 155.33Z" fill="white"/>
    <path d="M91.8126 102.92C92.3021 104.747 94.1798 105.831 96.0065 105.341L115.191 100.201C117.018 99.7116 118.102 97.8339 117.612 96.0072L109.813 66.9L138.92 59.1007C140.747 58.6112 141.831 56.7335 141.341 54.9068L136.201 35.7225C135.712 33.8957 133.834 32.8117 132.007 33.3011L102.9 41.1004L95.1007 11.9932C94.6112 10.1664 92.7335 9.08236 90.9068 9.57183L71.7225 14.7122C69.8957 15.2017 68.8116 17.0794 69.3011 18.9062L77.1004 48.0134L47.9932 55.8126C46.1664 56.3021 45.0823 58.1798 45.5718 60.0065L50.7122 79.1908C51.2017 81.0176 53.0794 82.1017 54.9061 81.6122L84.0133 73.8129L91.8126 102.92Z" fill="white"/>
</svg>
