<svg width="312" height="208" viewBox="0 0 312 208" fill="none" xmlns="http://www.w3.org/2000/svg">
    <path d="M245.64 37.9522C281.944 58.9127 294.383 105.335 273.423 141.64C252.462 177.944 206.04 190.383 169.735 169.423C133.431 148.462 120.992 102.04 141.952 65.7352C162.913 29.4306 209.335 16.9917 245.64 37.9522ZM189.955 134.402C206.918 144.195 228.608 138.383 238.402 121.42C248.195 104.457 242.383 82.7669 225.42 72.9733C208.457 63.1797 186.767 68.9916 176.973 85.9546C167.18 102.918 172.992 124.608 189.955 134.402Z" fill="white"/>
    <path d="M44.3306 159.835C45.5356 160.158 46.7742 159.443 47.0971 158.238L50.4879 145.583C50.8108 144.378 50.0957 143.139 48.8907 142.817L29.6903 137.672L34.835 118.471C35.1579 117.266 34.4428 116.028 33.2378 115.705L20.583 112.314C19.378 111.991 18.1394 112.706 17.8165 113.911L12.6717 133.112L-6.52867 127.967C-7.73367 127.644 -8.97228 128.359 -9.29516 129.564L-12.686 142.219C-13.0089 143.424 -12.2938 144.663 -11.0888 144.986L8.11164 150.13L2.9669 169.331C2.64402 170.536 3.35913 171.774 4.56414 172.097L17.219 175.488C18.424 175.811 19.6626 175.096 19.9854 173.891L25.1302 154.69L44.3306 159.835Z" fill="white"/>
</svg>
