<svg width="220" height="386" viewBox="0 0 220 386" fill="none" xmlns="http://www.w3.org/2000/svg">
    <path d="M130 89.5C130 138.929 89.9295 179 40.5 179C-8.92949 179 -49 138.929 -49 89.5C-49 40.0705 -8.92949 0 40.5 0C89.9295 0 130 40.0705 130 89.5ZM-1.31804 89.5C-1.31804 112.595 17.4045 131.318 40.5 131.318C63.5955 131.318 82.318 112.595 82.318 89.5C82.318 66.4045 63.5955 47.682 40.5 47.682C17.4045 47.682 -1.31804 66.4045 -1.31804 89.5Z" fill="white"/>
    <path d="M12.5 326.33C9.16666 324.406 9.16666 319.594 12.5 317.67L51.5 295.153C54.8333 293.229 59 295.634 59 299.483L59 344.517C59 348.366 54.8333 350.771 51.5 348.847L12.5 326.33Z" fill="white"/>
    <path d="M160.813 373.92C161.302 375.747 163.18 376.831 165.007 376.341L184.191 371.201C186.018 370.712 187.102 368.834 186.612 367.007L178.813 337.9L207.92 330.101C209.747 329.611 210.831 327.734 210.341 325.907L205.201 306.723C204.712 304.896 202.834 303.812 201.007 304.301L171.9 312.1L164.101 282.993C163.611 281.166 161.734 280.082 159.907 280.572L140.722 285.712C138.896 286.202 137.812 288.079 138.301 289.906L146.1 319.013L116.993 326.813C115.166 327.302 114.082 329.18 114.572 331.007L119.712 350.191C120.202 352.018 122.079 353.102 123.906 352.612L153.013 344.813L160.813 373.92Z" fill="white"/>
</svg>
