<svg xmlns="http://www.w3.org/2000/svg" width="52" height="32" viewBox="0 0 52 32" fill="none">
    <path d="M32.7434 28.4546H18.8051V3.40552H32.7436L32.7434 28.4546Z" fill="#FF5F00"/>
    <path d="M19.6888 15.9307C19.6888 10.8495 22.0679 6.3231 25.7727 3.40612C22.9684 1.19487 19.4998 -0.00525946 15.9286 1.73268e-05C7.13125 1.73268e-05 0 7.1323 0 15.9307C0 24.729 7.13125 31.8613 15.9286 31.8613C19.4999 31.8666 22.9686 30.6665 25.773 28.4552C22.0684 25.5387 19.6888 21.0121 19.6888 15.9307Z" fill="#EB001B"/>
    <path d="M51.5477 15.9307C51.5477 24.729 44.4164 31.8613 35.6191 31.8613C32.0474 31.8665 28.5784 30.6664 25.7734 28.4552C29.4793 25.5382 31.8584 21.0121 31.8584 15.9307C31.8584 10.8492 29.4793 6.3231 25.7734 3.40612C28.5783 1.19493 32.0472 -0.00516696 35.6189 1.67224e-05C44.4162 1.67224e-05 51.5474 7.1323 51.5474 15.9307" fill="#F79E1B"/>
</svg>