<svg xmlns="http://www.w3.org/2000/svg" width="77" height="22" viewBox="0 0 77 22" fill="none">
    <path d="M0 0.864746H7.2238C7.88051 0.864746 9.85064 0.646031 10.7262 3.70803C11.383 5.67646 12.2586 8.73846 13.572 13.3315H14.0098C15.3232 8.51975 16.4177 5.23903 16.8555 3.70803C17.7311 0.646031 19.9202 0.864746 20.7958 0.864746H27.5818V21.8613H20.5769V9.39461H20.1391L16.4177 21.8613H11.1641L7.4427 9.39461H6.78599V21.8613H0M30.4275 0.864746H37.4324V13.3315H38.0891L42.6861 3.05189C43.5617 1.08346 45.5318 0.864746 45.5318 0.864746H52.0989V21.8613H45.094V9.39461H44.6562L40.0592 19.6742C39.1836 21.6426 36.9946 21.8613 36.9946 21.8613H30.4275M61.5117 15.5186V21.8613H54.9447V10.9256H76.3971C75.5215 13.5502 72.4569 15.5186 68.9544 15.5186" fill="#0F754E"/>
    <path d="M76.835 9.61332C77.7106 5.67646 75.0837 0.864746 69.3923 0.864746H54.5068C54.9447 5.45775 58.8849 9.61332 63.0441 9.61332" fill="url(#paint0_linear_2_139)"/>
    <defs>
        <linearGradient id="paint0_linear_2_139" x1="74.2081" y1="-1.97854" x2="56.6959" y2="-1.97854" gradientUnits="userSpaceOnUse">
            <stop stop-color="#1F5CD7"/>
            <stop offset="1" stop-color="#02AEFF"/>
        </linearGradient>
    </defs>
</svg>