<svg xmlns="http://www.w3.org/2000/svg" width="66" height="23" viewBox="0 0 66 23" fill="none">
    <path d="M28.6116 21.9163H23.2262L26.592 1.23095H31.978L28.6116 21.9163ZM18.6956 1.23095L13.5613 15.4585L12.9538 12.3947L12.9543 12.3958L11.1422 3.09342C11.1422 3.09342 10.9231 1.23095 8.58753 1.23095H0.0995978L0 1.5812C0 1.5812 2.59562 2.12124 5.63335 3.94553L10.3122 21.9168H15.9234L24.4916 1.23095H18.6956ZM61.055 21.9163H66L61.6885 1.23039H57.3594C55.3602 1.23039 54.8733 2.77194 54.8733 2.77194L46.8413 21.9163H52.4553L53.578 18.8437H60.4242L61.055 21.9163ZM55.1289 14.5992L57.9586 6.85821L59.5505 14.5992H55.1289ZM47.2624 6.20529L48.0309 1.76324C48.0309 1.76324 45.6594 0.861328 43.1872 0.861328C40.5146 0.861328 34.1681 2.02939 34.1681 7.70922C34.1681 13.0532 41.6169 13.1196 41.6169 15.9266C41.6169 18.7336 34.9355 18.2306 32.7305 16.4605L31.9299 21.1051C31.9299 21.1051 34.3346 22.2732 38.0087 22.2732C41.6838 22.2732 47.2281 20.3703 47.2281 15.1912C47.2281 9.81294 39.7123 9.31218 39.7123 6.97385C39.7129 4.63497 44.9578 4.93542 47.2624 6.20529Z" fill="#2566AF"/>
    <path d="M12.9543 12.3954L11.1422 3.09294C11.1422 3.09294 10.9231 1.23047 8.58753 1.23047H0.0995978L0 1.58072C0 1.58072 4.07963 2.42619 7.99271 5.59395C11.7343 8.62171 12.9543 12.3954 12.9543 12.3954Z" fill="#E6A540"/>
</svg>