<svg width="375" height="428" viewBox="0 0 375 428" fill="none" xmlns="http://www.w3.org/2000/svg">
    <path d="M288.637 80.469C289.02 81.8972 290.488 82.7448 291.917 82.3621L306.916 78.3431C308.344 77.9604 309.192 76.4923 308.809 75.064L302.711 52.3064L325.469 46.2085C326.897 45.8258 327.745 44.3577 327.362 42.9294L323.343 27.93C322.96 26.5018 321.492 25.6542 320.064 26.0369L297.306 32.1348L291.208 9.37712C290.826 7.94886 289.358 7.10126 287.929 7.48396L272.93 11.503C271.502 11.8857 270.654 13.3538 271.037 14.7821L277.135 37.5397L254.377 43.6376C252.949 44.0203 252.101 45.4884 252.484 46.9167L256.503 61.9161C256.886 63.3443 258.354 64.1919 259.782 63.8092L282.54 57.7113L288.637 80.469Z" fill="white"/>
    <path d="M380 77.0005C380 88.0462 371.046 97.0005 360 97.0005C348.954 97.0005 340 88.0462 340 77.0005C340 65.9548 348.954 57.0005 360 57.0005C371.046 57.0005 380 65.9548 380 77.0005ZM350.655 77.0005C350.655 82.1615 354.839 86.3453 360 86.3453C365.161 86.3453 369.345 82.1615 369.345 77.0005C369.345 71.8395 365.161 67.6557 360 67.6557C354.839 67.6557 350.655 71.8395 350.655 77.0005Z" fill="white"/>
    <path d="M80 248.5C80 283.018 52.0178 311 17.5 311C-17.0178 311 -45 283.018 -45 248.5C-45 213.982 -17.0178 186 17.5 186C52.0178 186 80 213.982 80 248.5ZM-20 248.5C-20 269.211 -3.21068 286 17.5 286C38.2107 286 55 269.211 55 248.5C55 227.789 38.2107 211 17.5 211C-3.21068 211 -20 227.789 -20 248.5Z" fill="white"/>
    <path d="M19.5 396.33C16.1667 394.406 16.1667 389.594 19.5 387.67L58.5 365.153C61.8333 363.229 66 365.634 66 369.483L66 414.517C66 418.366 61.8333 420.771 58.5 418.847L19.5 396.33Z" fill="white"/>
</svg>
