<svg viewBox="0 0 457 439" fill="none" xmlns="http://www.w3.org/2000/svg">
    <path d="M380.637 80.4687C381.02 81.897 382.488 82.7446 383.917 82.3619L398.916 78.3428C400.344 77.9601 401.192 76.492 400.809 75.0638L394.711 52.3061L417.469 46.2082C418.897 45.8255 419.745 44.3574 419.362 42.9292L415.343 27.9298C414.96 26.5015 413.492 25.6539 412.064 26.0366L389.306 32.1345L383.208 9.37687C382.826 7.94861 381.358 7.10101 379.929 7.48372L364.93 11.5028C363.502 11.8855 362.654 13.3536 363.037 14.7818L369.135 37.5395L346.377 43.6374C344.949 44.0201 344.101 45.4882 344.484 46.9164L348.503 61.9158C348.886 63.3441 350.354 64.1917 351.782 63.809L374.54 57.7111L380.637 80.4687Z" fill="#DEF0F0"/>
    <path d="M457 107C457 118.046 448.046 127 437 127C425.954 127 417 118.046 417 107C417 95.9543 425.954 87 437 87C448.046 87 457 95.9543 457 107ZM427.655 107C427.655 112.161 431.839 116.345 437 116.345C442.161 116.345 446.345 112.161 446.345 107C446.345 101.839 442.161 97.6552 437 97.6552C431.839 97.6552 427.655 101.839 427.655 107Z" fill="#DEF0F0"/>
    <path d="M125 269.5C125 304.018 97.0178 332 62.5 332C27.9822 332 0 304.018 0 269.5C0 234.982 27.9822 207 62.5 207C97.0178 207 125 234.982 125 269.5ZM25 269.5C25 290.211 41.7893 307 62.5 307C83.2107 307 100 290.211 100 269.5C100 248.789 83.2107 232 62.5 232C41.7893 232 25 248.789 25 269.5Z" fill="#DEF0F0"/>
    <path d="M7.49999 407.33C4.16666 405.406 4.16666 400.594 7.5 398.67L46.5 376.153C49.8333 374.229 54 376.634 54 380.483L54 425.517C54 429.366 49.8333 431.771 46.5 429.847L7.49999 407.33Z" fill="#DEF0F0"/>
</svg>
