<svg viewBox="0 0 604 441" xmlns="http://www.w3.org/2000/svg" xmlns:xlink="http://www.w3.org/1999/xlink"><style>:root&gt;svg{display:none}:root&gt;svg:target{display:block}</style><svg fill="none" viewBox="0 0 416 441" id="css--promo--promo_bg_figures" xmlns="http://www.w3.org/2000/svg"><path d="M342 294c0 66.274-53.726 120-120 120s-120-53.726-120-120 53.726-120 120-120 120 53.726 120 120zm-191.745 0c0 39.624 32.121 71.745 71.745 71.745s71.745-32.121 71.745-71.745-32.121-71.745-71.745-71.745-71.745 32.121-71.745 71.745zM443 391c0 27.614-22.386 50-50 50s-50-22.386-50-50 22.386-50 50-50 50 22.386 50 50zm-73.362 0c0 12.902 10.46 23.362 23.362 23.362 12.902 0 23.362-10.46 23.362-23.362 0-12.902-10.46-23.362-23.362-23.362-12.902 0-23.362 10.46-23.362 23.362zm-271.361 4.518a3.722 3.722 0 003.723-3.722v-21.592a3.722 3.722 0 00-3.723-3.722H65.518v-32.759A3.723 3.723 0 0061.796 330H40.204a3.723 3.723 0 00-3.722 3.723v32.759H3.722A3.722 3.722 0 000 370.204v21.592a3.722 3.722 0 003.723 3.722h32.759v32.759A3.723 3.723 0 0040.204 432h21.592a3.723 3.723 0 003.722-3.723v-32.759h32.76zM282.33 97.567c-1.924-3.334.481-7.5 4.33-7.5h162.813c3.849 0 6.255 4.166 4.33 7.5l-81.406 141c-1.925 3.333-6.736 3.333-8.66 0l-81.407-141z" fill="#fff"/></svg><svg fill="none" viewBox="0 0 238 143" id="css--promo--promo_bottom_dotted" xmlns="http://www.w3.org/2000/svg"><path d="M1.222 1.046a259 259 0 00235.3 140.405" stroke="#B7BDCF" stroke-linecap="round" stroke-dasharray="15 15"/></svg><svg fill="none" viewBox="0 0 604 28" id="css--promo--promo_delimeter" xmlns="http://www.w3.org/2000/svg"><path fill-rule="evenodd" clip-rule="evenodd" d="M293.382.346C294.23.041 295.09 0 295.802 0h1.024c1.73 0 3.416.543 4.827 1.556l.841.603a2.586 2.586 0 003.014 0l.84-.603A8.28 8.28 0 01311.175 0h1.025c.713 0 1.574.04 2.419.346 2.416.869 4.327 2.865 5.586 6.094 1.246 3.197 1.885 7.67 1.785 13.694-.022 1.273-.178 2.698-.662 3.981-.487 1.302-1.342 2.529-2.779 3.224a6.544 6.544 0 01-2.873.66 5.788 5.788 0 01-3.252-.95c-.79-.526-1.481-1.205-2.072-1.785l-.213-.207c-.677-.662-1.247-1.176-1.88-1.51a5.56 5.56 0 00-2.584-.638h-3.348c-.9 0-1.787.22-2.586.64-.633.332-1.203.848-1.88 1.51l-.213.207c-.591.578-1.282 1.259-2.072 1.785a5.788 5.788 0 01-3.252.949 6.542 6.542 0 01-2.873-.662c-1.438-.696-2.292-1.921-2.779-3.223-.484-1.283-.64-2.708-.662-3.98-.1-6.025.539-10.498 1.785-13.695 1.259-3.23 3.171-5.227 5.587-6.094zm2.42 2.2c-.643 0-1.151.045-1.579.198-1.574.567-3.029 1.909-4.091 4.633-1.073 2.754-1.707 6.848-1.609 12.715.019 1.123.159 2.22.496 3.117.332.882.82 1.497 1.517 1.833a4.04 4.04 0 001.79.412c.812 0 1.42-.23 1.875-.533.578-.385 1.093-.887 1.711-1.493l.208-.204c.671-.655 1.473-1.415 2.466-1.934a8.043 8.043 0 013.742-.927h3.347a8.05 8.05 0 013.742.925c.991.521 1.795 1.281 2.467 1.935l.207.203c.62.608 1.134 1.11 1.713 1.494.454.303 1.061.534 1.875.534.682 0 1.276-.163 1.788-.41.697-.34 1.186-.953 1.517-1.833.337-.9.478-1.996.496-3.12.097-5.866-.536-9.96-1.609-12.716-1.062-2.722-2.517-4.064-4.09-4.631-.429-.153-.938-.199-1.579-.199h-1.025c-1.209 0-2.389.38-3.377 1.088l-.841.604a5.068 5.068 0 01-5.913 0l-.841-.604a5.79 5.79 0 00-3.377-1.088h-1.026zm.664 5.939c.333 0 .653.134.888.372.236.24.368.563.368.9v1.273h1.256c.333 0 .652.134.888.373a1.284 1.284 0 010 1.8 1.248 1.248 0 01-.888.373h-1.256v1.272c0 .338-.132.661-.368.9a1.247 1.247 0 01-1.776 0 1.283 1.283 0 01-.367-.9v-1.273h-1.256c-.333 0-.653-.134-.888-.372a1.28 1.28 0 01-.368-.9c0-.338.132-.662.368-.9.235-.239.555-.373.888-.373h1.256V9.757c0-.337.132-.66.367-.9a1.25 1.25 0 01.888-.372z" fill="#D8E4E4"/><path d="M315.721 11.879c0 .337-.132.66-.368.9a1.247 1.247 0 01-1.776 0 1.283 1.283 0 010-1.8 1.248 1.248 0 011.776 0c.236.238.368.562.368.9zm-5.023 0c0 .337-.132.66-.368.9a1.247 1.247 0 01-1.776 0 1.283 1.283 0 010-1.8 1.248 1.248 0 011.776 0c.236.238.368.562.368.9zm1.256-3.819c.333 0 .652.135.888.373a1.284 1.284 0 010 1.8 1.247 1.247 0 01-1.776 0 1.28 1.28 0 01-.368-.9c0-.337.132-.661.368-.9a1.25 1.25 0 01.888-.373zm0 5.091a1.238 1.238 0 01.888.373 1.282 1.282 0 01-.408 2.076 1.238 1.238 0 01-1.368-.276 1.28 1.28 0 01-.368-.9c0-.338.132-.661.368-.9.235-.239.555-.373.888-.373z" fill="#D8E4E4"/><path d="M2 17h265m75 0h260" stroke="#D8E4E4" stroke-width="3" stroke-linecap="round"/></svg><svg fill="none" viewBox="0 0 480 410" id="css--promo--promo_figures" xmlns="http://www.w3.org/2000/svg"><rect x=".443" y="207" width="143.462" height="143.462" rx="5" transform="rotate(45 .443 207)" fill="#DEF0F0"/><rect x="90.094" y="142" width="86.143" height="86.143" rx="5" transform="rotate(15 90.094 142)" fill="#DEF0F0"/><path d="M347 309.5c0 49.429-40.071 89.5-89.5 89.5S168 358.929 168 309.5s40.071-89.5 89.5-89.5 89.5 40.071 89.5 89.5zm-131.318 0c0 23.095 18.723 41.818 41.818 41.818s41.818-18.723 41.818-41.818-18.723-41.818-41.818-41.818-41.818 18.723-41.818 41.818zM384 195.5c0 20.158-16.342 36.5-36.5 36.5S311 215.658 311 195.5s16.342-36.5 36.5-36.5 36.5 16.342 36.5 36.5zm-53.554 0c0 9.419 7.635 17.054 17.054 17.054 9.419 0 17.054-7.635 17.054-17.054 0-9.419-7.635-17.054-17.054-17.054-9.419 0-17.054 7.635-17.054 17.054zm90.367 145.42a3.423 3.423 0 004.194 2.421l19.184-5.14a3.423 3.423 0 002.421-4.194l-7.799-29.107 29.107-7.799a3.424 3.424 0 002.421-4.194l-5.14-19.184a3.425 3.425 0 00-4.194-2.422L431.9 279.1l-7.799-29.107a3.424 3.424 0 00-4.194-2.421l-19.185 5.14a3.425 3.425 0 00-2.421 4.194l7.799 29.107-29.107 7.8a3.423 3.423 0 00-2.421 4.194l5.14 19.184a3.424 3.424 0 004.194 2.421l29.107-7.799 7.8 29.107zM26.5 53.33c-3.333-1.924-3.333-6.736 0-8.66L85 10.895c3.333-1.925 7.5.481 7.5 4.33v67.55c0 3.849-4.167 6.255-7.5 4.33L26.5 53.33z" fill="#DEF0F0"/></svg><svg fill="none" viewBox="0 0 253 264" id="css--promo--promo_top_dotted" xmlns="http://www.w3.org/2000/svg"><path d="M251 261.5A259.501 259.501 0 002.232 2.222" stroke="#fff" stroke-width="2" stroke-linecap="round" stroke-dasharray="15 15"/></svg><svg fill="none" viewBox="0 0 160 33" id="css--site_logo" xmlns="http://www.w3.org/2000/svg"><path fill-rule="evenodd" clip-rule="evenodd" d="M4.355 8.735A4.361 4.361 0 008.71 4.368 4.361 4.361 0 004.355 0 4.361 4.361 0 000 4.368a4.361 4.361 0 004.355 4.367zm0-3.002a1.364 1.364 0 01-1.362-1.365c0-.755.61-1.366 1.362-1.366.752 0 1.362.611 1.362 1.366 0 .754-.61 1.365-1.362 1.365zm106.983 21.488c.756.758.763 1.999-.084 2.653a14.961 14.961 0 01-14.894 1.98A15.01 15.01 0 0188 23.093a5.702 5.702 0 01-1.92 1.271c-1.505.607-3.09.898-4.753.872a17.1 17.1 0 01-1.644-.113c-.523-.07-.902-.155-1.135-.256-.365-.152-.658-.904-.879-2.256a33.655 33.655 0 01-.397-4.455c-.044-1.611 0-3.112.133-4.502.132-1.39.378-2.196.737-2.417.36-.228.907-.395 1.645-.503 1.178-.164 2.45-.148 3.818.048 1.373.196 2.536.673 3.487 1.431.304.246.585.512.841.798a15.01 15.01 0 018.426-8.953 14.962 14.962 0 0114.895 1.98c.847.655.84 1.896.084 2.654l-2.415 2.422a10.473 10.473 0 011.692-.275 10.314 10.314 0 011.928.01c.618.056 1.049.198 1.295.426.353.34.769 1.09 1.248 2.246a56.233 56.233 0 011.417 3.782c.46 1.358.873 2.663 1.238 3.914.366 1.252.608 2.136.728 2.654.082.38.057.645-.076.797-.132.145-.362.246-.689.303a19.88 19.88 0 01-2.07.218c-.819.044-1.333.054-1.541.028a.574.574 0 01-.226-.085c-.227-.139-.448-.537-.662-1.194-.208-.664-.413-1.119-.614-1.365a.709.709 0 00-.473-.256l-1.55-.01c-.485.013-.8.174-.945.484-.189.398-.403.84-.643 1.327-.093.19-.178.353-.252.486l2.61 2.618zm-6.324-6.343c.197-.983.429-1.995.696-3.036.341-1.333.7-2.581 1.078-3.744.166-.503.323-.941.47-1.315l-3.789 3.8a1.945 1.945 0 000 2.745l1.545 1.55zm-22.77-4.154c-.107.347-.133.86-.076 1.535.063.67.205 1.065.425 1.185.101.063.303.088.605.076.492-.013.908-.123 1.248-.332.34-.215.529-.53.567-.948.044-.512-.142-.948-.558-1.308-.41-.36-.84-.562-1.295-.606a1.872 1.872 0 00-.557.047c-.183.038-.303.155-.36.35zm28.608-.17c-.208.22-.416.593-.624 1.118-.202.518-.274.859-.217 1.023.094.278.5.405 1.219.38.724-.032 1.118-.21 1.181-.531.038-.196-.151-.642-.567-1.337-.416-.701-.747-.92-.992-.654zM98.484 9.076a2.72 2.72 0 01.988-.112c.086.012.125.073.117.182-.005.11.081.176.257.2.127.019.335.019.626 0 .29-.02.583-.06.877-.118a3.53 3.53 0 00.773-.246c.217-.106.317-.235.301-.387-.017-1-.387-1.692-1.111-2.075-.72-.383-1.521-.555-2.404-.516-1.338.067-2.446.481-3.325 1.243-.875.762-1.393 1.823-1.552 3.183-.143 1.246.21 2.293 1.061 3.141.85.848 1.906 1.319 3.165 1.413a7.505 7.505 0 002.172-.182c.037.059.074.09.11.094.25.07.669.097 1.258.082.593-.016.922-.065.987-.147.07-.058.121-.256.154-.592.037-.336.057-.723.061-1.16.004-.438-.006-.881-.031-1.33a12.21 12.21 0 00-.092-1.12c-.024-.156-.208-.258-.552-.305a4.675 4.675 0 00-1.104-.023 4.752 4.752 0 00-1.067.21c-.32.106-.47.233-.454.382-.033.222-.07.445-.11.668-.041.219-.24.326-.596.322-.49-.023-.867-.156-1.128-.398-.262-.247-.413-.524-.454-.833a1.4 1.4 0 01.208-.92c.18-.3.469-.52.865-.656z" fill="#46D3BB"/><path d="M29.449 15.378a.494.494 0 01-.36-.104c-.131-.095-.2-.2-.207-.313 0-.114-.063-.222-.189-.323-.315-.246-.715-.202-1.2.133s-.284.594.605.777c.094.02.198.041.311.067l.1.016.059.01.117.019.074.012c1.45.252 2.593.685 3.43 1.298 1.034.758 1.626 1.75 1.778 2.976.157 1.22-.18 2.313-1.012 3.28-.983 1.144-2.315 1.8-3.997 1.971-1.676.165-3.125-.19-4.348-1.061-1.052-.74-1.71-1.672-1.975-2.796-.114-.531.151-.942.794-1.232a3.58 3.58 0 01.935-.285c.347-.057.678-.088.993-.095.517 0 .983.063 1.399.19.415.12.652.294.708.521a.376.376 0 00.048.133c.069.158.201.275.396.35.234.095.505.083.813-.037.315-.127.407-.338.274-.635-.069-.14-.258-.253-.567-.342a16.375 16.375 0 00-2.202-.483c-.73-.114-1.424-.414-2.079-.9-.473-.342-.844-.81-1.115-1.403-.265-.594-.353-1.38-.265-2.36.126-1.321.76-2.408 1.9-3.26a5.48 5.48 0 012.287-.996 6.14 6.14 0 012.495 0 5.12 5.12 0 012.174 1.005c.649.499 1.096 1.165 1.342 2 .094.322.003.6-.274.834a3.411 3.411 0 01-1.021.568 7.17 7.17 0 01-1.257.341 7.44 7.44 0 01-.964.124zM7.196 24.761c-.132.253-.79.405-1.975.455-1.185.045-2.023-.038-2.514-.246-.22-.095-.429-.746-.624-1.953a60.299 60.299 0 01-.5-4.066 93.494 93.494 0 01-.303-4.341c-.063-1.396-.067-2.329-.01-2.796.044-.386.397-.676 1.059-.872a8.193 8.193 0 012.183-.332 8.445 8.445 0 012.174.19c.661.151 1.01.388 1.049.71.1.91.154 2.076.16 3.498a84.489 84.489 0 01-.066 4.209 56.872 56.872 0 01-.255 3.668c-.113 1.061-.24 1.687-.378 1.876zm14.146.332c.378-.07.605-.18.68-.332.07-.177.136-.799.199-1.867a83.51 83.51 0 00.123-3.715 121.84 121.84 0 000-4.275c-.02-1.447-.076-2.635-.17-3.564-.032-.234-.334-.408-.908-.521a8.017 8.017 0 00-1.87-.133 7.745 7.745 0 00-1.863.265c-.567.158-.857.389-.87.692a9.786 9.786 0 00-.009 1.157c.026.518.048 1.115.067 1.791a42.59 42.59 0 00-1.428-1.924c-.648-.847-1.19-1.368-1.625-1.564-.296-.126-.721-.221-1.276-.284a11.02 11.02 0 00-1.644-.067 6.931 6.931 0 00-1.446.17c-.416.096-.637.235-.662.418-.145.91-.236 2.085-.274 3.526a87.636 87.636 0 00-.01 4.265 62.31 62.31 0 00.199 3.725c.1 1.08.22 1.716.36 1.905.119.253.746.405 1.88.455 1.14.05 1.944-.031 2.41-.246.157-.076.287-.515.387-1.318a72.46 72.46 0 00.293-2.9c.095.133.319.41.671.834a38.584 38.584 0 002.429 2.682c.41.405.722.654.936.75.151.069.435.122.85.16.423.038.86.051 1.314.038.46-.012.879-.053 1.257-.123zm22.669-.323c-.07.127-.3.228-.69.304-.39.076-.832.123-1.323.142-.485.02-.967.01-1.446-.028s-.841-.11-1.087-.218c-.258-.114-.491-1.043-.7-2.787a97.125 97.125 0 01-.462-5.308 26.824 26.824 0 01-2.41-.142c-.675-.082-1.046-.199-1.115-.35-.12-.24-.221-.626-.303-1.157a15.537 15.537 0 01-.16-1.64 13.324 13.324 0 01.009-1.516c.038-.455.12-.717.245-.787.183-.145.8-.262 1.853-.35a60.512 60.512 0 013.63-.18c1.366-.039 2.756-.048 4.167-.03 1.411.013 2.57.048 3.478.105.359.025.605.335.737.929a7.21 7.21 0 01.142 1.953 8.098 8.098 0 01-.331 1.952c-.176.594-.394.9-.652.92-.24.037-.624.075-1.153.113a84.3 84.3 0 01-1.786.086 89.379 89.379 0 01-.199 5.156c-.113 1.649-.261 2.594-.444 2.834z" fill="#46D3BB"/><path fill-rule="evenodd" clip-rule="evenodd" d="M49.065 24.913a.686.686 0 01-.189-.464c-.012-.613.095-1.536.322-2.768.227-1.232.51-2.512.85-3.839.34-1.333.7-2.581 1.078-3.744.384-1.163.718-1.98 1.001-2.455.114-.183.445-.347.993-.493a10.255 10.255 0 011.833-.312c.668-.057 1.31-.054 1.928.01.618.056 1.05.198 1.295.426.353.34.769 1.09 1.247 2.246a56.114 56.114 0 011.418 3.782c.46 1.358.873 2.663 1.238 3.914.366 1.252.608 2.136.728 2.654.082.38.057.645-.076.797-.132.145-.362.246-.69.303a19.82 19.82 0 01-2.07.218c-.818.044-1.332.054-1.54.028a.58.58 0 01-.227-.085c-.226-.139-.447-.537-.661-1.194-.208-.664-.413-1.119-.614-1.365a.706.706 0 00-.473-.256l-1.55-.01c-.485.013-.8.174-.945.484-.19.398-.403.84-.643 1.327-.24.486-.416.787-.529.9a.44.44 0 01-.255.143c-.258.056-.87.072-1.834.047-.957-.032-1.502-.13-1.635-.294zm6.125-8.36c-.208.221-.416.594-.624 1.119-.202.518-.274.859-.218 1.023.095.278.501.405 1.22.38.724-.032 1.118-.21 1.18-.531.039-.196-.15-.642-.566-1.337-.416-.701-.747-.92-.992-.654z" fill="#46D3BB"/><path d="M76.66 24.761c-.075.152-.302.263-.68.332-.378.07-.797.11-1.257.123-.454.013-.892 0-1.314-.038-.416-.038-.7-.091-.85-.16-.215-.096-.527-.345-.936-.75a37.52 37.52 0 01-1.257-1.326c-.429-.48-.82-.933-1.172-1.356a18.575 18.575 0 01-.671-.834 74.01 74.01 0 01-.293 2.9c-.1.803-.23 1.242-.388 1.318-.466.215-1.27.297-2.41.246-1.134-.05-1.76-.202-1.88-.455-.139-.19-.259-.824-.36-1.905a62.631 62.631 0 01-.198-3.725 87.623 87.623 0 01.01-4.265c.037-1.44.129-2.616.274-3.526.025-.183.245-.322.661-.417a6.93 6.93 0 011.446-.17 11.02 11.02 0 011.645.066c.554.063.98.158 1.275.284.435.196.977.717 1.626 1.564a42.59 42.59 0 011.427 1.924 87.949 87.949 0 00-.066-1.791c-.019-.525-.016-.91.01-1.157.012-.303.302-.534.869-.692a7.745 7.745 0 011.862-.265 8.017 8.017 0 011.871.133c.573.113.876.287.907.521.095.929.151 2.117.17 3.564.026 1.447.026 2.872 0 4.275a83.51 83.51 0 01-.122 3.715c-.063 1.068-.13 1.69-.199 1.867zm78.785-9.383a.494.494 0 01-.359-.104c-.133-.095-.202-.2-.208-.313 0-.114-.063-.222-.189-.323-.315-.246-.715-.202-1.2.133-.486.335-.284.594.604.777.095.02.199.041.312.067l.157.025.193.032c1.449.252 2.593.685 3.431 1.298 1.033.758 1.625 1.75 1.776 2.976.158 1.22-.179 2.313-1.011 3.28-.983 1.144-2.315 1.8-3.998 1.971-1.676.165-3.125-.19-4.347-1.061-1.052-.74-1.711-1.672-1.975-2.796-.114-.531.151-.942.794-1.232a3.58 3.58 0 01.935-.285c.347-.057.678-.088.993-.095.516 0 .983.063 1.398.19.416.12.652.294.709.521a.372.372 0 00.047.133c.07.158.202.275.397.35.233.095.504.083.813-.037.315-.127.407-.338.274-.635-.069-.14-.258-.253-.567-.342a16.368 16.368 0 00-2.202-.483c-.731-.114-1.424-.414-2.079-.9-.473-.342-.844-.81-1.115-1.403-.265-.594-.353-1.38-.265-2.36.126-1.321.759-2.408 1.9-3.26a5.49 5.49 0 012.287-.996 6.14 6.14 0 012.495 0 5.13 5.13 0 012.174 1.005c.648.499 1.096 1.165 1.342 2 .094.322.003.6-.274.834a3.427 3.427 0 01-1.021.568 7.17 7.17 0 01-1.257.341c-.429.076-.75.117-.964.124zm-11.963 4.815a66.566 66.566 0 002.986-.095c.889-.05 1.412.01 1.569.18.17.14.293.743.369 1.81.082 1.068.053 1.842-.085 2.323-.063.202-.558.37-1.484.502a32.06 32.06 0 01-3.119.275 49.25 49.25 0 01-3.317.019c-1.059-.032-1.749-.117-2.07-.256-.189-.076-.346-.585-.472-1.526a47.299 47.299 0 01-.284-3.317 87.408 87.408 0 01-.123-3.877c-.012-1.32 0-2.395.038-3.223 0-.455.038-.869.113-1.241.076-.38.193-.617.35-.711.158-.095.712-.177 1.663-.247a50.45 50.45 0 013.081-.123c1.103-.019 2.124 0 3.063.057.938.05 1.477.145 1.616.284.17.14.264.689.283 1.65.025.954-.031 1.674-.17 2.16-.069.228-.513.37-1.333.427-.812.05-1.764.095-2.854.133a8.374 8.374 0 00.029.53c.712.013 1.291.067 1.739.162.107.031.211.22.312.568.107.342.179.718.217 1.128.044.405.044.78 0 1.128-.044.348-.155.534-.331.56a4.304 4.304 0 01-.69.104c-.327.025-.693.044-1.096.057v.559zm-15.677-4.36c.623-.93 1.225-1.817 1.805-2.664.586-.847 1.102-1.485 1.55-1.914.195-.19.576-.329 1.143-.417a10.71 10.71 0 011.768-.124c.617.007 1.175.054 1.672.143.505.088.794.211.87.37.12.277.214 1.099.283 2.464a86.05 86.05 0 01.104 4.407c0 1.58-.037 3.046-.113 4.398-.076 1.346-.198 2.142-.369 2.389-.132.151-.775.25-1.928.293-1.153.038-1.962.01-2.428-.085-.189-.038-.363-.584-.52-1.64a33.56 33.56 0 01-.322-3.203c-.126.132-.352.37-.68.71a31.82 31.82 0 01-1.04 1.053c-.371.36-.73.679-1.077.957-.34.278-.592.417-.756.417-.164 0-.413-.133-.747-.398a17.652 17.652 0 01-1.03-.91 49.513 49.513 0 01-1.002-1.014l-.642-.683a43.753 43.753 0 01-.341 3.071c-.151 1.037-.315 1.583-.491 1.64-.233.07-.58.11-1.04.123a19.8 19.8 0 01-1.398-.01 11.795 11.795 0 01-1.276-.113c-.372-.063-.583-.133-.633-.208-.171-.24-.3-1.05-.388-2.427a75.338 75.338 0 01-.142-4.455 97.624 97.624 0 01.076-4.436c.057-1.364.151-2.151.283-2.36.095-.151.394-.272.898-.36a9.651 9.651 0 011.664-.133 10.32 10.32 0 011.739.124c.56.088.942.227 1.143.417.441.43.958 1.067 1.55 1.914a95.175 95.175 0 011.815 2.664z" fill="#46D3BB"/></svg></svg>