<svg xmlns="http://www.w3.org/2000/svg" width="160" height="33" viewBox="0 0 160 33" fill="none">
    <path fill-rule="evenodd" clip-rule="evenodd" d="M4.35498 8.73529C6.76017 8.73529 8.70996 6.77983 8.70996 4.36765C8.70996 1.95546 6.76017 0 4.35498 0C1.94979 0 0 1.95546 0 4.36765C0 6.77983 1.94979 8.73529 4.35498 8.73529ZM4.35498 5.73316C3.60301 5.73316 2.99342 5.1218 2.99342 4.36765C2.99342 3.61349 3.60301 3.00213 4.35498 3.00213C5.10695 3.00213 5.71654 3.61349 5.71654 4.36765C5.71654 5.1218 5.10695 5.73316 4.35498 5.73316Z" fill="#46D3BB"/>
    <path fill-rule="evenodd" clip-rule="evenodd" d="M111.338 27.2211C112.094 27.9791 112.101 29.2199 111.254 29.8741C109.431 31.2827 107.301 32.2572 105.027 32.7109C102.117 33.2914 99.1006 32.9935 96.3596 31.8548C93.6187 30.7162 91.2759 28.7879 89.6276 26.3139C88.9548 25.3041 88.41 24.2218 88.0009 23.0921C87.4573 23.6398 86.8173 24.0635 86.0808 24.3633C84.575 24.9699 82.9903 25.2606 81.327 25.2353C80.7599 25.2226 80.2118 25.1847 79.6825 25.1215C79.1596 25.052 78.7815 24.9667 78.5484 24.8656C78.183 24.714 77.89 23.962 77.6695 22.6098C77.449 21.2512 77.3167 19.7662 77.2725 18.1549C77.2284 16.5436 77.2725 15.0428 77.4048 13.6527C77.5372 12.2625 77.7829 11.4569 78.142 11.2357C78.5011 11.0082 79.0493 10.8408 79.7865 10.7333C80.9647 10.569 82.2374 10.5848 83.6046 10.7807C84.9782 10.9766 86.1406 11.4537 87.092 12.212C87.396 12.4583 87.6765 12.7244 87.9333 13.0102C88.3493 11.8116 88.9171 10.6643 89.6276 9.59782C91.2759 7.12383 93.6187 5.19559 96.3596 4.05694C99.1006 2.91828 102.117 2.62036 105.027 3.20084C107.301 3.65456 109.431 4.62902 111.254 6.03768C112.101 6.69191 112.094 7.93263 111.338 8.6907L108.923 11.1131C109.44 10.9815 110.004 10.8897 110.615 10.8376C111.283 10.7807 111.926 10.7839 112.543 10.8471C113.161 10.9039 113.592 11.0461 113.838 11.2736C114.191 11.6148 114.607 12.3636 115.086 13.52C115.571 14.6763 116.043 15.937 116.503 17.3019C116.963 18.6604 117.376 19.9653 117.741 21.2164C118.107 22.4676 118.349 23.3522 118.469 23.8704C118.551 24.2495 118.526 24.5149 118.393 24.6666C118.261 24.8119 118.031 24.913 117.704 24.9699C117.149 25.0647 116.459 25.1373 115.634 25.1879C114.815 25.2321 114.301 25.2416 114.093 25.2163C114.011 25.2037 113.936 25.1753 113.867 25.131C113.64 24.992 113.419 24.5939 113.205 23.9367C112.997 23.2733 112.792 22.8183 112.591 22.5719C112.471 22.4265 112.313 22.3412 112.118 22.3159L110.568 22.3065C110.083 22.3191 109.768 22.4802 109.623 22.7899C109.434 23.188 109.22 23.6303 108.98 24.1168C108.887 24.3075 108.802 24.4696 108.728 24.603L111.338 27.2211ZM105.014 20.8785C105.211 19.8955 105.443 18.8834 105.71 17.8421C106.051 16.5088 106.41 15.2608 106.788 14.0982C106.954 13.5953 107.111 13.1568 107.258 12.7827L103.469 16.5833C102.713 17.3413 102.713 18.5704 103.469 19.3285L105.014 20.8785ZM82.2437 16.7237C82.1366 17.0712 82.1114 17.5831 82.1681 18.2592C82.2311 18.929 82.3729 19.3239 82.5934 19.444C82.6942 19.5072 82.8958 19.5324 83.1982 19.5198C83.6897 19.5072 84.1055 19.3966 84.4458 19.1881C84.786 18.9732 84.975 18.6573 85.0128 18.2402C85.0569 17.7284 84.8711 17.2924 84.4552 16.9322C84.0457 16.572 83.6141 16.3698 83.1604 16.3256C82.9777 16.313 82.7919 16.3288 82.6028 16.373C82.4201 16.4109 82.3004 16.5278 82.2437 16.7237ZM110.852 16.5531C110.644 16.7742 110.436 17.1471 110.228 17.6715C110.026 18.1897 109.954 18.5309 110.011 18.6952C110.105 18.9732 110.511 19.0996 111.23 19.0743C111.954 19.0427 112.348 18.8658 112.411 18.5435C112.449 18.3476 112.26 17.9022 111.844 17.2071C111.428 16.5057 111.097 16.2877 110.852 16.5531ZM98.4844 9.07665C98.7706 8.98287 99.0998 8.94575 99.472 8.96529C99.5578 8.97701 99.5967 9.03758 99.5885 9.14698C99.5844 9.25639 99.6703 9.32282 99.8461 9.34626C99.9729 9.3658 100.181 9.3658 100.472 9.34626C100.762 9.32673 101.055 9.28765 101.349 9.22904C101.648 9.16652 101.905 9.08447 102.122 8.98287C102.339 8.87737 102.439 8.74843 102.423 8.59604C102.406 7.59574 102.036 6.90413 101.312 6.52121C100.592 6.13828 99.7909 5.96635 98.9076 6.00543C97.5704 6.07185 96.4621 6.48604 95.5829 7.24798C94.7077 8.00993 94.1904 9.07079 94.0309 10.4306C93.8878 11.677 94.2415 12.7242 95.0921 13.5721C95.9427 14.42 96.9978 14.8909 98.2574 14.9847C98.969 15.0315 99.6928 14.971 100.429 14.803C100.466 14.8616 100.503 14.8928 100.539 14.8967C100.789 14.9671 101.208 14.9944 101.797 14.9788C102.39 14.9632 102.719 14.9143 102.784 14.8323C102.854 14.7737 102.905 14.5763 102.938 14.2403C102.975 13.9043 102.995 13.5174 102.999 13.0798C103.003 12.6422 102.993 12.1987 102.968 11.7493C102.948 11.2961 102.917 10.9229 102.876 10.6298C102.852 10.4736 102.668 10.372 102.324 10.3251C101.985 10.2743 101.617 10.2665 101.22 10.3016C100.828 10.3368 100.472 10.4071 100.153 10.5126C99.8339 10.6181 99.6826 10.7451 99.6989 10.8936C99.6662 11.1163 99.6294 11.339 99.5885 11.5618C99.5476 11.7806 99.3493 11.888 98.9935 11.8841C98.5028 11.8607 98.1265 11.7278 97.8648 11.4856C97.6031 11.2394 97.4518 10.962 97.4109 10.6533C97.37 10.3407 97.4395 10.034 97.6194 9.7331C97.7994 9.43223 98.0877 9.21341 98.4844 9.07665Z" fill="#46D3BB"/>
    <path d="M29.449 15.3778C29.3167 15.3904 29.197 15.3556 29.0899 15.2735C28.9576 15.1787 28.8883 15.0744 28.882 14.9607C28.882 14.847 28.819 14.7395 28.693 14.6384C28.378 14.392 27.9779 14.4362 27.4927 14.7711C27.0076 15.106 27.2092 15.3651 28.0976 15.5484C28.1921 15.5673 28.296 15.5894 28.4094 15.6147L28.5092 15.6312L28.568 15.6409L28.6853 15.6598L28.7591 15.6716C30.2083 15.9243 31.3518 16.3572 32.1898 16.9701C33.2231 17.7284 33.8154 18.7205 33.9666 19.9463C34.1241 21.1659 33.787 22.2591 32.9553 23.2259C31.9724 24.3696 30.6399 25.0268 28.9576 25.1974C27.2816 25.3617 25.8325 25.0078 24.6102 24.1358C23.558 23.3965 22.8996 22.4644 22.6349 21.3397C22.5215 20.8089 22.7861 20.3981 23.4288 20.1075C23.7123 19.9748 24.0242 19.88 24.3644 19.8231C24.711 19.7662 25.0418 19.7347 25.3568 19.7283C25.8735 19.7283 26.3397 19.7915 26.7555 19.9179C27.1714 20.038 27.4076 20.2117 27.4643 20.4392C27.4707 20.4834 27.4864 20.5277 27.5116 20.5719C27.5809 20.7299 27.7132 20.8468 27.9085 20.9226C28.1417 21.0174 28.4126 21.0048 28.7213 20.8847C29.0364 20.7583 29.1277 20.5466 28.9954 20.2496C28.9261 20.1106 28.7371 19.9969 28.4283 19.9084C27.6912 19.6936 26.9572 19.5324 26.2263 19.425C25.4954 19.3113 24.8023 19.0111 24.1471 18.5246C23.6745 18.1834 23.3028 17.7158 23.0319 17.1218C22.7672 16.5278 22.6791 15.7411 22.7672 14.7617C22.8933 13.441 23.5265 12.3541 24.6669 11.5011C25.3348 11.0019 26.0971 10.6701 26.954 10.5059C27.8109 10.3352 28.6426 10.3352 29.449 10.5059C30.2555 10.6701 30.9801 11.0051 31.6227 11.5106C32.2717 12.0098 32.7191 12.6764 32.9648 13.5105C33.0593 13.8328 32.9679 14.1108 32.6907 14.3446C32.4198 14.5721 32.0795 14.7617 31.67 14.9133C31.2605 15.065 30.8415 15.1787 30.413 15.2545C29.9846 15.3304 29.6633 15.3714 29.449 15.3778Z" fill="#46D3BB"/>
    <path d="M7.19593 24.7614C7.06361 25.0141 6.40521 25.1658 5.22069 25.2163C4.03619 25.2606 3.19819 25.1784 2.70674 24.9699C2.48624 24.8751 2.27832 24.2243 2.08298 23.0173C1.88767 21.8104 1.72072 20.455 1.58208 18.9511C1.44348 17.4472 1.34268 16.0002 1.27966 14.61C1.21666 13.2135 1.2135 12.2815 1.2702 11.8139C1.31433 11.4284 1.66714 11.1377 2.32871 10.9419C2.99659 10.7397 3.72431 10.6291 4.51187 10.6101C5.30574 10.5848 6.03033 10.648 6.68558 10.7997C7.34714 10.9513 7.69683 11.1883 7.73463 11.5106C7.83546 12.4205 7.889 13.5863 7.89529 15.0081C7.9079 16.4299 7.88584 17.8327 7.82914 19.2165C7.77243 20.6003 7.68737 21.8231 7.57396 22.8846C7.46055 23.9462 7.33456 24.5718 7.19593 24.7614Z" fill="#46D3BB"/>
    <path d="M21.342 25.0931C21.7201 25.0236 21.9469 24.913 22.0225 24.7614C22.0918 24.5844 22.158 23.962 22.221 22.8941C22.284 21.8199 22.3249 20.5814 22.3438 19.1786C22.3691 17.7758 22.3691 16.3509 22.3438 14.9038C22.3249 13.4568 22.2682 12.2688 22.1737 11.34C22.1422 11.1062 21.8398 10.9324 21.2664 10.8186C20.6994 10.7049 20.0756 10.6607 19.3952 10.6859C18.721 10.7049 18.1004 10.7934 17.5333 10.9513C16.9663 11.1093 16.6765 11.34 16.6638 11.6433C16.6387 11.8897 16.6355 12.2752 16.6544 12.7996C16.6796 13.3178 16.7017 13.9149 16.7206 14.591C16.4244 14.155 15.9487 13.5137 15.2935 12.6669C14.6445 11.8202 14.1026 11.2989 13.6679 11.103C13.3718 10.9766 12.9465 10.8818 12.392 10.8186C11.8439 10.7555 11.2957 10.7333 10.7476 10.7523C10.2057 10.7649 9.72375 10.8218 9.30159 10.9229C8.88575 11.0177 8.66525 11.1567 8.64003 11.34C8.49513 12.2499 8.40375 13.4252 8.36595 14.8659C8.32815 16.3066 8.32501 17.7284 8.3565 19.1312C8.3943 20.534 8.46046 21.7757 8.55497 22.8562C8.6558 23.9367 8.7755 24.5718 8.9141 24.7614C9.03383 25.0141 9.66072 25.1658 10.7948 25.2163C11.9353 25.2669 12.7386 25.1847 13.2048 24.9699C13.3624 24.8941 13.4915 24.4549 13.5923 23.6524C13.6931 22.8436 13.7908 21.8768 13.8853 20.752C13.9798 20.8847 14.2035 21.1627 14.5563 21.5861C14.9091 22.0095 15.2998 22.4613 15.7282 22.9415C16.1567 23.4154 16.5757 23.8578 16.9852 24.2685C17.3947 24.6729 17.7066 24.9225 17.9208 25.0173C18.072 25.0868 18.3556 25.1405 18.7714 25.1784C19.1936 25.2163 19.6314 25.229 20.0851 25.2163C20.545 25.2037 20.964 25.1626 21.342 25.0931Z" fill="#46D3BB"/>
    <path d="M44.011 24.7708C43.9417 24.8972 43.7117 24.9983 43.3211 25.0742C42.9305 25.15 42.4894 25.1974 41.998 25.2163C41.5128 25.2353 41.0308 25.2258 40.552 25.1879C40.0731 25.15 39.7108 25.0773 39.4651 24.9699C39.2068 24.8561 38.9737 23.9273 38.7657 22.1832C38.5641 20.4329 38.4098 18.6636 38.3027 16.8753C37.3702 16.8564 36.5668 16.809 35.8927 16.7332C35.2185 16.651 34.8468 16.5341 34.7775 16.3825C34.6578 16.1423 34.557 15.7569 34.475 15.2261C34.3931 14.689 34.3396 14.1424 34.3144 13.5863C34.2892 13.0239 34.2923 12.5184 34.3238 12.0698C34.3616 11.6148 34.4436 11.3526 34.5695 11.2831C34.7523 11.1377 35.3697 11.0208 36.4219 10.9324C37.4741 10.8439 38.6838 10.7839 40.0511 10.7523C41.4183 10.7144 42.8076 10.7049 44.2189 10.7239C45.6303 10.7365 46.7896 10.7712 47.6969 10.8281C48.056 10.8534 48.3017 11.163 48.434 11.757C48.5663 12.351 48.6136 13.0018 48.5758 13.7096C48.538 14.4173 48.4277 15.0681 48.245 15.6621C48.0686 16.2561 47.8512 16.5625 47.5929 16.5815C47.3535 16.6194 46.9691 16.6573 46.4399 16.6952C45.9106 16.7268 45.3152 16.7553 44.6537 16.7806C44.6348 18.5625 44.5686 20.2812 44.4552 21.9368C44.3418 23.586 44.1937 24.5307 44.011 24.7708Z" fill="#46D3BB"/>
    <path fill-rule="evenodd" clip-rule="evenodd" d="M49.0654 24.913C48.9456 24.7866 48.8827 24.6318 48.8763 24.4486C48.8637 23.8356 48.9708 22.9131 49.1977 21.6809C49.4245 20.4487 49.708 19.1691 50.0482 17.8421C50.3885 16.5088 50.7476 15.2608 51.1256 14.0982C51.51 12.9355 51.8439 12.1172 52.1274 11.6433C52.2409 11.46 52.5716 11.2957 53.1198 11.1504C53.6743 10.9987 54.2854 10.8945 54.9533 10.8376C55.6211 10.7807 56.2638 10.7839 56.8813 10.8471C57.4987 10.9039 57.9303 11.0461 58.176 11.2736C58.5289 11.6148 58.9447 12.3636 59.4235 13.52C59.9087 14.6763 60.3812 15.937 60.8412 17.3019C61.3011 18.6604 61.7138 19.9653 62.0792 21.2164C62.4447 22.4676 62.6873 23.3522 62.807 23.8704C62.8889 24.2495 62.8637 24.5149 62.7314 24.6666C62.5991 24.8119 62.3691 24.913 62.0414 24.9699C61.487 25.0647 60.7971 25.1373 59.9717 25.1879C59.1526 25.2321 58.6391 25.2416 58.4312 25.2163C58.3493 25.2037 58.2737 25.1753 58.2044 25.131C57.9776 24.992 57.7571 24.5939 57.5428 23.9367C57.3349 23.2733 57.1301 22.8183 56.9285 22.5719C56.8088 22.4265 56.6513 22.3412 56.456 22.3159L54.906 22.3065C54.4209 22.3191 54.1058 22.4802 53.9609 22.7899C53.7719 23.188 53.5577 23.6303 53.3183 24.1168C53.0789 24.6034 52.9024 24.9035 52.789 25.0173C52.7323 25.0868 52.6472 25.1342 52.5338 25.1595C52.2755 25.2163 51.6643 25.2321 50.7004 25.2068C49.7427 25.1753 49.1977 25.0773 49.0654 24.913ZM55.1895 16.5531C54.9816 16.7742 54.7737 17.1471 54.5658 17.6715C54.3642 18.1897 54.2917 18.5309 54.3484 18.6952C54.4429 18.9732 54.8493 19.0996 55.5676 19.0743C56.2922 19.0427 56.6859 18.8658 56.7489 18.5435C56.7867 18.3476 56.5977 17.9022 56.1819 17.2071C55.766 16.5057 55.4353 16.2877 55.1895 16.5531Z" fill="#46D3BB"/>
    <path d="M76.6601 24.7614C76.5845 24.913 76.3577 25.0236 75.9796 25.0931C75.6016 25.1626 75.1826 25.2037 74.7227 25.2163C74.269 25.229 73.8312 25.2163 73.409 25.1784C72.9932 25.1405 72.7096 25.0868 72.5584 25.0173C72.3442 24.9225 72.0323 24.6729 71.6228 24.2685C71.2133 23.8578 70.7943 23.4154 70.3658 22.9415C69.9374 22.4613 69.5467 22.0095 69.1939 21.5861C68.8411 21.1627 68.6174 20.8847 68.5229 20.752C68.4284 21.8768 68.3307 22.8436 68.2299 23.6524C68.1291 24.4549 67.9999 24.8941 67.8424 24.9699C67.3762 25.1847 66.5729 25.2669 65.4324 25.2163C64.2983 25.1658 63.6714 25.0141 63.5517 24.7614C63.4131 24.5718 63.2934 23.9367 63.1926 22.8562C63.0981 21.7757 63.0319 20.534 62.9941 19.1312C62.9626 17.7284 62.9657 16.3066 63.0035 14.8659C63.0414 13.4252 63.1327 12.2499 63.2776 11.34C63.3028 11.1567 63.5233 11.0177 63.9392 10.9229C64.3613 10.8218 64.8433 10.7649 65.3852 10.7523C65.9333 10.7333 66.4815 10.7555 67.0296 10.8186C67.5841 10.8818 68.0094 10.9766 68.3055 11.103C68.7402 11.2989 69.2821 11.8202 69.9311 12.6669C70.5863 13.5137 71.062 14.155 71.3582 14.591C71.3393 13.9149 71.3172 13.3178 71.292 12.7996C71.2731 12.2752 71.2763 11.8897 71.3014 11.6433C71.3141 11.34 71.6039 11.1093 72.1709 10.9513C72.738 10.7934 73.3586 10.7049 74.0328 10.6859C74.7132 10.6607 75.337 10.7049 75.904 10.8186C76.4774 10.9324 76.7798 11.1062 76.8113 11.34C76.9058 12.2688 76.9625 13.4568 76.9814 14.9038C77.0067 16.3509 77.0067 17.7758 76.9814 19.1786C76.9625 20.5814 76.9216 21.8199 76.8586 22.8941C76.7956 23.962 76.7294 24.5844 76.6601 24.7614Z" fill="#46D3BB"/>
    <path d="M155.445 15.3778C155.313 15.3904 155.193 15.3556 155.086 15.2735C154.953 15.1787 154.884 15.0744 154.878 14.9607C154.878 14.847 154.815 14.7395 154.689 14.6384C154.374 14.392 153.974 14.4362 153.489 14.7711C153.003 15.106 153.205 15.3651 154.093 15.5484C154.188 15.5673 154.292 15.5894 154.405 15.6147C154.457 15.6233 154.509 15.6319 154.562 15.6405C154.625 15.6509 154.69 15.6612 154.755 15.6716C156.204 15.9243 157.348 16.3572 158.186 16.9701C159.219 17.7284 159.811 18.7205 159.962 19.9463C160.12 21.1659 159.783 22.2591 158.951 23.2259C157.968 24.3696 156.636 25.0268 154.953 25.1974C153.277 25.3617 151.828 25.0078 150.606 24.1358C149.554 23.3965 148.895 22.4644 148.631 21.3397C148.517 20.8089 148.782 20.3981 149.425 20.1075C149.708 19.9748 150.02 19.88 150.36 19.8231C150.707 19.7662 151.038 19.7347 151.353 19.7283C151.869 19.7283 152.336 19.7915 152.751 19.9179C153.167 20.038 153.403 20.2117 153.46 20.4392C153.466 20.4834 153.482 20.5277 153.507 20.5719C153.577 20.7299 153.709 20.8468 153.904 20.9226C154.137 21.0174 154.408 21.0048 154.717 20.8847C155.032 20.7583 155.124 20.5466 154.991 20.2496C154.922 20.1106 154.733 19.9969 154.424 19.9084C153.687 19.6936 152.953 19.5324 152.222 19.425C151.491 19.3113 150.798 19.0111 150.143 18.5246C149.67 18.1834 149.299 17.7158 149.028 17.1218C148.763 16.5278 148.675 15.7411 148.763 14.7617C148.889 13.441 149.522 12.3541 150.663 11.5011C151.331 11.0019 152.093 10.6701 152.95 10.5059C153.807 10.3352 154.638 10.3352 155.445 10.5059C156.251 10.6701 156.976 11.0051 157.619 11.5106C158.267 12.0098 158.715 12.6764 158.961 13.5105C159.055 13.8328 158.964 14.1108 158.687 14.3446C158.416 14.5721 158.075 14.7617 157.666 14.9133C157.256 15.065 156.837 15.1787 156.409 15.2545C155.98 15.3304 155.659 15.3714 155.445 15.3778Z" fill="#46D3BB"/>
    <path d="M143.482 20.1928C144.584 20.1801 145.58 20.1485 146.468 20.098C147.357 20.0474 147.88 20.1075 148.037 20.2781C148.207 20.4171 148.33 21.0206 148.406 22.0885C148.488 23.1564 148.459 23.9304 148.321 24.4107C148.258 24.6129 147.763 24.7803 146.837 24.913C145.911 25.0457 144.871 25.1373 143.718 25.1879C142.565 25.2321 141.459 25.2384 140.401 25.2068C139.342 25.1753 138.652 25.09 138.331 24.9509C138.142 24.8751 137.985 24.3664 137.859 23.4249C137.739 22.4771 137.644 21.3713 137.575 20.1075C137.506 18.8374 137.465 17.5451 137.452 16.2308C137.44 14.9101 137.452 13.8359 137.49 13.0082C137.49 12.5532 137.528 12.1393 137.603 11.7665C137.679 11.3873 137.796 11.1504 137.953 11.0556C138.111 10.9608 138.665 10.8787 139.616 10.8092C140.568 10.7397 141.595 10.6986 142.697 10.6859C143.8 10.667 144.821 10.6859 145.76 10.7428C146.698 10.7934 147.237 10.8882 147.376 11.0272C147.546 11.1662 147.64 11.7159 147.659 12.6764C147.684 13.6306 147.628 14.3509 147.489 14.8375C147.42 15.065 146.976 15.2071 146.156 15.264C145.344 15.3146 144.392 15.3588 143.302 15.3967C143.302 15.4725 143.305 15.561 143.312 15.6621C143.318 15.7632 143.324 15.8517 143.331 15.9275C144.043 15.9401 144.622 15.9938 145.07 16.0886C145.177 16.1202 145.281 16.3098 145.382 16.6573C145.489 16.9986 145.561 17.3745 145.599 17.7853C145.643 18.1897 145.643 18.5657 145.599 18.9132C145.555 19.2607 145.444 19.4471 145.268 19.4724C145.142 19.5103 144.912 19.5451 144.578 19.5767C144.251 19.602 143.885 19.6209 143.482 19.6336V20.1928Z" fill="#46D3BB"/>
    <path d="M127.805 15.8327C128.428 14.9038 129.03 14.016 129.61 13.1693C130.196 12.3225 130.712 11.6843 131.16 11.2546C131.355 11.0651 131.736 10.9261 132.303 10.8376C132.87 10.7491 133.459 10.7081 134.071 10.7144C134.688 10.7207 135.246 10.7681 135.743 10.8566C136.248 10.945 136.537 11.0682 136.613 11.2262C136.733 11.5042 136.827 12.3257 136.896 13.6906C136.966 15.0492 137 16.5183 137 18.098C137 19.6778 136.963 21.1438 136.887 22.496C136.811 23.842 136.689 24.6381 136.518 24.8846C136.386 25.0362 135.743 25.1342 134.59 25.1784C133.437 25.2163 132.628 25.1879 132.162 25.0931C131.973 25.0552 131.799 24.5086 131.642 23.4533C131.484 22.3981 131.377 21.3302 131.32 20.2496C131.194 20.3823 130.968 20.6193 130.64 20.9605C130.319 21.3017 129.972 21.6525 129.6 22.0126C129.229 22.3728 128.87 22.6919 128.523 22.9699C128.183 23.248 127.931 23.387 127.767 23.387C127.603 23.387 127.354 23.2543 127.02 22.9889C126.693 22.7235 126.349 22.4202 125.99 22.079C125.637 21.7314 125.303 21.3934 124.988 21.0648C124.68 20.7362 124.465 20.5087 124.346 20.3823C124.27 21.3934 124.157 22.417 124.005 23.4533C123.854 24.4896 123.69 25.0362 123.514 25.0931C123.281 25.1626 122.934 25.2037 122.474 25.2163C122.014 25.229 121.548 25.2258 121.076 25.2068C120.603 25.1879 120.178 25.15 119.8 25.0931C119.428 25.0299 119.217 24.9604 119.167 24.8846C118.996 24.6445 118.867 23.8356 118.779 22.4581C118.691 21.0806 118.644 19.5956 118.637 18.0033C118.631 16.4046 118.656 14.9259 118.713 13.5674C118.77 12.2025 118.864 11.4158 118.996 11.2073C119.091 11.0556 119.39 10.9355 119.894 10.8471C120.398 10.7586 120.953 10.7144 121.558 10.7144C122.163 10.7081 122.742 10.7491 123.297 10.8376C123.857 10.9261 124.239 11.0651 124.44 11.2546C124.881 11.6843 125.398 12.3225 125.99 13.1693C126.589 14.016 127.194 14.9038 127.805 15.8327Z" fill="#46D3BB"/>
</svg>