<?xml version="1.0" encoding="utf-8"?><svg viewBox="0 0 1920 1080" xmlns="http://www.w3.org/2000/svg" xmlns:xlink="http://www.w3.org/1999/xlink"><style>:root>svg{display:none}:root>svg:target{display:block}</style><svg fill="none" viewBox="0 0 96 96" id="css--advantages--advantages-slide1_icon" xmlns="http://www.w3.org/2000/svg"><g filter="url(#aafilter0_d_28_287)"><path d="M12 23.7A11.7 11.7 0 0123.7 12h36a11.7 11.7 0 0111.7 11.7v17.1a3.6 3.6 0 01-3.6 3.6H44.4v23.4a3.6 3.6 0 01-3.6 3.6H23.7A11.7 11.7 0 0112 59.7v-36zm54 0a6.3 6.3 0 00-6.3-6.3H44.4V39H66V23.7zm-27-6.3H23.7a6.3 6.3 0 00-6.3 6.3V39H39V17.4zM17.4 59.7c0 3.478 2.822 6.3 6.3 6.3H39V44.4H17.4v15.3zm32.4-1.8a8.1 8.1 0 018.1-8.1h18a8.1 8.1 0 018.1 8.1v18a8.1 8.1 0 01-8.1 8.1h-18a8.1 8.1 0 01-8.1-8.1v-18z" fill="#fff"/></g><defs><filter id="aafilter0_d_28_287" x="0" y="0" width="96" height="96" filterUnits="userSpaceOnUse" color-interpolation-filters="sRGB"><feFlood flood-opacity="0" result="BackgroundImageFix"/><feColorMatrix in="SourceAlpha" values="0 0 0 0 0 0 0 0 0 0 0 0 0 0 0 0 0 0 127 0" result="hardAlpha"/><feOffset/><feGaussianBlur stdDeviation="6"/><feComposite in2="hardAlpha" operator="out"/><feColorMatrix values="0 0 0 0 1 0 0 0 0 1 0 0 0 0 1 0 0 0 0.25 0"/><feBlend in2="BackgroundImageFix" result="effect1_dropShadow_28_287"/><feBlend in="SourceGraphic" in2="effect1_dropShadow_28_287" result="shape"/></filter></defs></svg><svg fill="none" viewBox="0 0 94 94" id="css--advantages--advantages-slide2_icon" xmlns="http://www.w3.org/2000/svg"><g filter="url(#abfilter0_d_28_779)"><path d="M55.333 45.333h5V59.5l9.534 5.633-2.5 4.067L55.333 62V45.333zm3.334-10c2.3 0 4.566.334 6.666.967V21l-10 3.867v10.7c1.1-.234 2.2-.234 3.334-.234zM82 58.667A23.333 23.333 0 0158.667 82c-10 0-18.667-6.4-21.934-15.333L32 65l-17.8 6.9-.533.1A1.666 1.666 0 0112 70.333v-50.4c0-.766.5-1.366 1.2-1.6L32 12l20 7 17.8-6.9.533-.1A1.666 1.666 0 0172 13.667V39.5c6.033 4.167 10 11.233 10 19.167zm-46.667 0c0-9.3 5.434-17.334 13.334-21.1V24.9l-13.334-4.667V59.1v-.433zM58.667 42a16.666 16.666 0 100 33.332 16.666 16.666 0 000-33.332zm-40-18.467v39.5l10-3.866v-39l-10 3.366z" fill="#fff"/></g><defs><filter id="abfilter0_d_28_779" x="0" y="0" width="94" height="94" filterUnits="userSpaceOnUse" color-interpolation-filters="sRGB"><feFlood flood-opacity="0" result="BackgroundImageFix"/><feColorMatrix in="SourceAlpha" values="0 0 0 0 0 0 0 0 0 0 0 0 0 0 0 0 0 0 127 0" result="hardAlpha"/><feOffset/><feGaussianBlur stdDeviation="6"/><feComposite in2="hardAlpha" operator="out"/><feColorMatrix values="0 0 0 0 1 0 0 0 0 1 0 0 0 0 1 0 0 0 0.25 0"/><feBlend in2="BackgroundImageFix" result="effect1_dropShadow_28_779"/><feBlend in="SourceGraphic" in2="effect1_dropShadow_28_779" result="shape"/></filter></defs></svg><svg fill="none" viewBox="0 0 94 94" id="css--advantages--advantages-slide3_icon" xmlns="http://www.w3.org/2000/svg"><g filter="url(#acfilter0_d_28_782)"><path d="M54.929 79.985C53.585 81.328 51.92 82 49.935 82c-1.986 0-3.65-.672-4.994-2.015L14.103 49.146a7.3 7.3 0 01-1.535-2.277A6.915 6.915 0 0112 44.065V19.01c0-1.928.687-3.578 2.06-4.952 1.374-1.374 3.024-2.06 4.949-2.057h25.056c.993 0 1.928.19 2.804.571a7.33 7.33 0 012.277 1.532L79.985 45.03C81.328 46.372 82 48.023 82 49.98c0 1.958-.672 3.608-2.015 4.949L54.929 79.985zm-4.994-4.906L74.99 50.023 44.065 19.009H19.01v25.056L49.935 75.08zM27.77 33.026c1.46 0 2.702-.511 3.725-1.535 1.023-1.023 1.534-2.264 1.531-3.721 0-1.46-.511-2.702-1.535-3.725-1.023-1.024-2.263-1.534-3.721-1.532-1.46 0-2.702.512-3.725 1.535-1.024 1.023-1.534 2.264-1.532 3.722 0 1.46.512 2.702 1.535 3.725 1.023 1.023 2.264 1.534 3.722 1.531zM53 63.865l9.813-9.812a7.3 7.3 0 001.534-2.278c.381-.876.57-1.81.568-2.804 0-1.986-.7-3.68-2.102-5.081-1.402-1.402-3.096-2.103-5.082-2.103-1.11 0-2.205.322-3.287.964-1.082.642-2.38 1.723-3.897 3.242-1.752-1.636-3.125-2.746-4.117-3.33-.993-.584-2.015-.876-3.067-.876-1.986 0-3.68.701-5.081 2.103-1.402 1.402-2.103 3.095-2.103 5.081 0 .993.19 1.928.572 2.804a7.33 7.33 0 001.53 2.278l9.813 9.812c.701.7 1.519 1.051 2.453 1.051.935 0 1.752-.35 2.453-1.051z" fill="#fff"/></g><defs><filter id="acfilter0_d_28_782" x="0" y="0" width="94" height="94" filterUnits="userSpaceOnUse" color-interpolation-filters="sRGB"><feFlood flood-opacity="0" result="BackgroundImageFix"/><feColorMatrix in="SourceAlpha" values="0 0 0 0 0 0 0 0 0 0 0 0 0 0 0 0 0 0 127 0" result="hardAlpha"/><feOffset/><feGaussianBlur stdDeviation="6"/><feComposite in2="hardAlpha" operator="out"/><feColorMatrix values="0 0 0 0 1 0 0 0 0 1 0 0 0 0 1 0 0 0 0.25 0"/><feBlend in2="BackgroundImageFix" result="effect1_dropShadow_28_782"/><feBlend in="SourceGraphic" in2="effect1_dropShadow_28_782" result="shape"/></filter></defs></svg><svg fill="none" viewBox="0 0 96 96" id="css--advantages--advantages-slide4_icon" xmlns="http://www.w3.org/2000/svg"><g filter="url(#adfilter0_d_28_785)"><path d="M76 12H20a8 8 0 00-8 8v56a8 8 0 008 8h56a8 8 0 008-8V20a8 8 0 00-8-8zm0 64H20V20h56v56zm-40-8h-8V48h8v20zm16 0h-8V40h8v28zm16 0h-8V28h8v40z" fill="#fff"/></g><defs><filter id="adfilter0_d_28_785" x="0" y="0" width="96" height="96" filterUnits="userSpaceOnUse" color-interpolation-filters="sRGB"><feFlood flood-opacity="0" result="BackgroundImageFix"/><feColorMatrix in="SourceAlpha" values="0 0 0 0 0 0 0 0 0 0 0 0 0 0 0 0 0 0 127 0" result="hardAlpha"/><feOffset/><feGaussianBlur stdDeviation="6"/><feComposite in2="hardAlpha" operator="out"/><feColorMatrix values="0 0 0 0 1 0 0 0 0 1 0 0 0 0 1 0 0 0 0.25 0"/><feBlend in2="BackgroundImageFix" result="effect1_dropShadow_28_785"/><feBlend in="SourceGraphic" in2="effect1_dropShadow_28_785" result="shape"/></filter></defs></svg><svg fill="none" viewBox="0 0 95 95" id="css--advantages--advantages-slide5_icon" xmlns="http://www.w3.org/2000/svg"><g filter="url(#aefilter0_d_28_789)" fill-rule="evenodd" clip-rule="evenodd" fill="#fff"><path d="M34.327 30h27.392c1.047 0 1.92.175 2.966.699 1.221.524 1.92 1.397 2.268 2.096 0 0 0 .174.175.174.523.874.872 1.922.872 3.145 0 1.048-.174 2.096-.872 3.144L49.855 68.952c-.35.699-1.047 1.048-1.92 1.048-.697 0-1.395-.35-1.919-1.048L29.092 39.258c-.349-.7-1.047-1.572-1.047-2.97-.174-1.222.175-2.27.698-3.319.524-1.048 1.396-1.921 2.617-2.27C32.407 30 33.63 30 34.327 30zm11.515 4.192H34.327c-.698 0-1.047 0-1.222.175-.349.175-.523.35-.698.699-.174.174-.174.523-.174.873 0 .175.174.35.523 1.048l13.086 22.707V34.192zm4.187 0V59.87l13.26-22.882c.175-.35.175-.699.175-1.048 0-.35 0-.699-.175-.873-.174-.175-.174-.35-.349-.35l-.174-.175c-.35-.174-.698-.174-1.222-.174H50.03v-.175z"/><path d="M47.5 78C64.345 78 78 64.345 78 47.5S64.345 17 47.5 17 17 30.655 17 47.5 30.655 78 47.5 78zm0 5C67.106 83 83 67.106 83 47.5S67.106 12 47.5 12 12 27.894 12 47.5 27.894 83 47.5 83z"/></g><defs><filter id="aefilter0_d_28_789" x="0" y="0" width="95" height="95" filterUnits="userSpaceOnUse" color-interpolation-filters="sRGB"><feFlood flood-opacity="0" result="BackgroundImageFix"/><feColorMatrix in="SourceAlpha" values="0 0 0 0 0 0 0 0 0 0 0 0 0 0 0 0 0 0 127 0" result="hardAlpha"/><feOffset/><feGaussianBlur stdDeviation="6"/><feComposite in2="hardAlpha" operator="out"/><feColorMatrix values="0 0 0 0 1 0 0 0 0 1 0 0 0 0 1 0 0 0 0.25 0"/><feBlend in2="BackgroundImageFix" result="effect1_dropShadow_28_789"/><feBlend in="SourceGraphic" in2="effect1_dropShadow_28_789" result="shape"/></filter></defs></svg><svg fill="none" viewBox="0 0 96 88" id="css--advantages--advantages-slide6_icon" xmlns="http://www.w3.org/2000/svg"><g filter="url(#affilter0_d_28_798)"><path fill-rule="evenodd" clip-rule="evenodd" d="M32.314 12.961a3.289 3.289 0 010 4.642l-9.818 9.846a3.266 3.266 0 01-4.628 0l-4.91-4.923a3.289 3.289 0 010-4.642 3.266 3.266 0 014.629 0l2.595 2.603 7.504-7.526a3.266 3.266 0 014.628 0zm5.868 7.244a3.277 3.277 0 013.273-3.282h39.272A3.277 3.277 0 0184 20.205a3.277 3.277 0 01-3.273 3.282H41.454a3.277 3.277 0 01-3.272-3.282zM21.818 39.897a3.277 3.277 0 00-3.273 3.282 3.277 3.277 0 003.273 3.282 3.277 3.277 0 003.273-3.282 3.277 3.277 0 00-3.273-3.282zM12 43.18c0-5.437 4.396-9.846 9.818-9.846 5.423 0 9.818 4.409 9.818 9.846 0 5.438-4.395 9.847-9.818 9.847-5.422 0-9.818-4.409-9.818-9.847zm26.182 0a3.277 3.277 0 013.273-3.282h39.272A3.277 3.277 0 0184 43.18a3.277 3.277 0 01-3.273 3.282H41.454a3.277 3.277 0 01-3.272-3.282zM21.818 62.873a3.277 3.277 0 00-3.273 3.282 3.277 3.277 0 003.273 3.282 3.277 3.277 0 003.273-3.282 3.277 3.277 0 00-3.273-3.282zM12 66.154c0-5.438 4.396-9.846 9.818-9.846 5.423 0 9.818 4.408 9.818 9.846S27.241 76 21.818 76C16.396 76 12 71.592 12 66.154zm26.182 0a3.277 3.277 0 013.273-3.282h39.272A3.277 3.277 0 0184 66.154a3.277 3.277 0 01-3.273 3.282H41.454a3.277 3.277 0 01-3.272-3.282z" fill="#fff"/></g><defs><filter id="affilter0_d_28_798" x="0" y="0" width="96" height="88" filterUnits="userSpaceOnUse" color-interpolation-filters="sRGB"><feFlood flood-opacity="0" result="BackgroundImageFix"/><feColorMatrix in="SourceAlpha" values="0 0 0 0 0 0 0 0 0 0 0 0 0 0 0 0 0 0 127 0" result="hardAlpha"/><feOffset/><feGaussianBlur stdDeviation="6"/><feComposite in2="hardAlpha" operator="out"/><feColorMatrix values="0 0 0 0 1 0 0 0 0 1 0 0 0 0 1 0 0 0 0.25 0"/><feBlend in2="BackgroundImageFix" result="effect1_dropShadow_28_798"/><feBlend in="SourceGraphic" in2="effect1_dropShadow_28_798" result="shape"/></filter></defs></svg><svg fill="none" viewBox="0 0 36 36" id="css--advantages--advantages-switch_icon" xmlns="http://www.w3.org/2000/svg"><rect width="36" height="36" rx="2" fill="#fff"/><path fill-rule="evenodd" clip-rule="evenodd" d="M26 12.53v10.958c0 .418-.07.767-.28 1.186-.21.489-.558.768-.838.907 0 0-.07 0-.07.07-.35.21-.768.349-1.257.349-.42 0-.839-.07-1.258-.349l-11.878-6.91c-.28-.139-.419-.418-.419-.767 0-.279.14-.558.42-.768l11.877-6.77c.28-.139.629-.418 1.188-.418.489-.07.908.07 1.327.28.42.209.769.558.909 1.046.279.419.279.907.279 1.187zm-1.677 4.607V12.53c0-.28 0-.42-.07-.489a.546.546 0 00-.28-.28c-.07-.069-.209-.069-.348-.069-.07 0-.14.07-.42.21l-9.083 5.234h10.201zm0 1.675h-10.27l9.152 5.304c.14.07.28.07.42.07.14 0 .279 0 .349-.07.07-.07.14-.07.14-.14l.07-.07c.07-.14.07-.279.07-.488v-4.606h.07z" fill="#DD3974"/></svg><svg fill="none" viewBox="0 0 280 63" id="css--create_shop--create_shop__arrow" xmlns="http://www.w3.org/2000/svg"><path d="M279.164 0l-11.102 3.177 8.302 8.025L279.164 0zM1.543 31.17a1 1 0 00-1.088 1.678l1.088-1.679zm275.13-30.032a1 1 0 001.414 1.415l-1.414-1.415zm-2.379 4.995a1 1 0 00-1.336-1.49l1.336 1.49zm-5.228 1.858a1 1 0 001.275 1.542l-1.275-1.542zm-2.793 4.788a1 1 0 10-1.222-1.583l1.222 1.583zm-5.328 1.49a1 1 0 001.175 1.618l-1.175-1.619zm-3.075 4.615a1 1 0 00-1.131-1.65l1.131 1.65zm-5.41 1.205a1 1 0 101.089 1.678l-1.089-1.678zm-3.291 4.448a1 1 0 10-1.049-1.703l1.049 1.703zm-5.46.947a1 1 0 101.01 1.726l-1.01-1.726zm-3.502 4.3a1 1 0 00-.972-1.747l.972 1.748zm-5.502.71a1 1 0 00.935 1.768l-.935-1.768zm-3.676 4.144a1 1 0 00-.898-1.787l.898 1.787zm-5.517.474a1 1 0 10.861 1.806l-.861-1.806zm-3.842 3.99a1 1 0 00-.824-1.821l.824 1.822zm-5.534.253a1 1 0 10.788 1.839l-.788-1.839zm-4 3.836a1 1 0 00-.752-1.854l.752 1.854zm-5.542.035a1 1 0 10.715 1.868l-.715-1.868zm-4.148 3.677a1 1 0 00-.679-1.881l.679 1.88zm-5.538-.18a1 1 0 10.643 1.894l-.643-1.894zm-4.279 3.512a1 1 0 10-.607-1.905l.607 1.905zm-5.523-.392a1 1 0 00.57 1.917l-.57-1.917zm-4.412 3.347a.999.999 0 10-.533-1.927l.533 1.927zm-5.507-.6a1 1 0 00.498 1.937l-.498-1.937zm-4.538 3.18a1 1 0 10-.461-1.947l.461 1.947zm-5.486-.806a1 1 0 00.424 1.954l-.424-1.954zm-4.661 3.008a1 1 0 10-.388-1.962l.388 1.962zm-5.439-1.012a1 1 0 10.351 1.969l-.351-1.969zm-4.757 2.832a1 1 0 00-.315-1.975l.315 1.975zm-5.41-1.214a1 1 0 10.274 1.981l-.274-1.98zm-4.834 2.629a1 1 0 10-.229-1.987l.229 1.987zm-5.303-1.46a1 1 0 00.185 1.992l-.185-1.992zm-4.957 2.41a1 1 0 10-.139-1.995l.139 1.995zm-5.241-1.695a1 1 0 00.095 1.997l-.095-1.997zm-5.053 2.186a1 1 0 00-.051-2l.051 2zm-5.156-1.926a1 1 0 00.007 2l-.007-2zm-5.14 1.963a1 1 0 00.037-2l-.037 2zm-5.066-2.148a1 1 0 00-.08 1.998l.08-1.998zm-5.229 1.738a1 1 0 00.123-1.997l-.123 1.997zm-4.975-2.364a1 1 0 10-.165 1.993l.165-1.994zm-5.296 1.513a1 1 0 10.208-1.99l-.208 1.99zm-4.868-2.573a1 1 0 10-.25 1.985l.25-1.985zm-5.353 1.29a1 1 0 10.29-1.98l-.29 1.98zm-4.756-2.774a1 1 0 00-.332 1.972l.332-1.972zm-5.401 1.065a1 1 0 00.373-1.965l-.373 1.965zm-4.636-2.97a1 1 0 10-.414 1.957l.414-1.957zm-5.442.84a1 1 0 00.454-1.948l-.454 1.948zm-4.51-3.16a1 1 0 10-.494 1.938l.494-1.938zm-5.472.612a1 1 0 10.535-1.927l-.535 1.927zm-4.374-3.347a1 1 0 00-.576 1.916l.576-1.916zm-5.493.38a1 1 0 10.617-1.903l-.617 1.902zm-4.22-3.532a1 1 0 10-.66 1.889l.66-1.889zm-5.496.14a1 1 0 10.702-1.874l-.702 1.873zm-4.064-3.724a1 1 0 10-.746 1.856l.746-1.856zm-5.513-.13a1 1 0 10.793-1.836l-.793 1.836zm-3.852-3.915a1 1 0 10-.842 1.814l.842-1.814zm-5.503-.435a1 1 0 00.898-1.788l-.898 1.788zm-3.6-4.143a1 1 0 00-.96 1.754l.96-1.754zm-5.444-.826a1 1 0 001.038-1.71l-1.038 1.71zM272.958 4.644a127.7 127.7 0 01-3.892 3.347l1.275 1.542a129.282 129.282 0 003.953-3.4l-1.336-1.49zm-7.907 6.552a172.604 172.604 0 01-4.106 3.072l1.175 1.619a176.71 176.71 0 004.153-3.108l-1.222-1.583zm-8.312 6.039a207.521 207.521 0 01-4.279 2.854l1.089 1.678c1.491-.968 2.932-1.93 4.321-2.883l-1.131-1.65zm-8.619 5.6c-1.429.88-2.9 1.764-4.411 2.649l1.01 1.726a227.008 227.008 0 004.45-2.673l-1.049-1.703zm-8.885 5.202c-1.475.82-2.985 1.64-4.53 2.457l.935 1.768c1.557-.823 3.08-1.65 4.567-2.477l-.972-1.748zm-9.104 4.814c-1.51.759-3.05 1.513-4.619 2.261l.861 1.806a253.309 253.309 0 004.656-2.28l-.898-1.787zm-9.285 4.43c-1.544.698-3.114 1.39-4.71 2.074l.788 1.839a265.43 265.43 0 004.746-2.091l-.824-1.822zm-9.462 4.056a263.63 263.63 0 01-4.79 1.889l.715 1.868a264.1 264.1 0 004.827-1.903l-.752-1.854zm-9.617 3.685a268.17 268.17 0 01-4.859 1.701l.643 1.894a267.933 267.933 0 004.895-1.714l-.679-1.881zm-9.745 3.308c-1.619.515-3.258 1.02-4.916 1.513l.57 1.917c1.67-.497 3.321-1.005 4.953-1.525l-.607-1.905zm-9.861 2.933c-1.64.454-3.298.897-4.974 1.327l.498 1.937c1.687-.433 3.357-.88 5.009-1.337l-.533-1.927zm-9.973 2.56c-1.659.393-3.334.773-5.025 1.14l.424 1.955c1.704-.37 3.391-.753 5.062-1.148l-.461-1.947zm-10.074 2.188c-1.669.33-3.352.646-5.051.95l.351 1.968a270.23 270.23 0 005.088-.957l-.388-1.962zm-10.123 1.806c-.849.135-1.701.267-2.557.395l.296 1.978a283.56 283.56 0 002.576-.398l-.315-1.975zm-2.557.395c-.848.128-1.694.25-2.538.366l.274 1.981c.851-.117 1.705-.24 2.56-.369l-.296-1.977zm-7.601 1.008c-1.698.196-3.39.372-5.074.527l.185 1.992a224.98 224.98 0 005.118-.532l-.229-1.987zm-10.17.942c-1.709.12-3.41.219-5.102.3l.095 1.997c1.707-.081 3.422-.182 5.146-.302l-.139-1.995zm-10.206.486c-1.712.044-3.414.068-5.105.074l.007 2c1.706-.006 3.423-.03 5.149-.074l-.051-2zm-10.208.037c-1.713-.031-3.414-.08-5.103-.148l-.08 1.998c1.704.068 3.419.118 5.146.15l.037-2zm-10.209-.407a238.981 238.981 0 01-5.098-.367l-.165 1.993c1.7.14 3.413.264 5.14.37l.123-1.996zm-10.186-.843c-1.708-.178-3.4-.373-5.076-.584l-.25 1.985a244.8 244.8 0 005.118.588l.208-1.99zm-10.138-1.273c-1.7-.25-3.383-.515-5.047-.795l-.332 1.972c1.678.282 3.374.55 5.088.801l.29-1.978zM70.64 56.467c-1.69-.321-3.36-.656-5.01-1.005l-.413 1.957c1.662.351 3.346.69 5.05 1.013l.373-1.965zm-9.997-2.113a245.009 245.009 0 01-4.964-1.212l-.494 1.938c1.643.42 3.312.827 5.004 1.222l.454-1.948zm-9.901-2.527a240.455 240.455 0 01-4.909-1.42l-.576 1.916c1.62.487 3.27.965 4.95 1.43l.535-1.926zm-9.785-2.943a232 232 0 01-4.837-1.629l-.66 1.889c1.59.555 3.218 1.103 4.88 1.642l.617-1.902zm-9.631-3.363a214.594 214.594 0 01-4.766-1.85l-.746 1.856c1.557.626 3.161 1.25 4.81 1.867l.702-1.873zm-9.486-3.816c-1.61-.695-3.159-1.39-4.645-2.08l-.842 1.815c1.503.697 3.068 1.399 4.694 2.1l.793-1.835zm-9.25-4.302a143.43 143.43 0 01-4.498-2.355l-.96 1.754a145.36 145.36 0 004.56 2.389l.898-1.788zm-8.904-4.89a86.963 86.963 0 01-2.144-1.344L.455 32.848c.69.447 1.422.906 2.194 1.374l1.038-1.71z" fill="#3698C8"/></svg><svg fill="none" viewBox="0 0 395 832" id="css--create_shop--create_shop__pic" xmlns="http://www.w3.org/2000/svg"><rect x="386" y="350" width="9" height="52" rx="3" fill="#fff"/><rect x="386" y="206" width="9" height="102" rx="3" fill="#fff"/><g filter="url(#aifilter0_ii_28_263)"><rect width="392" height="832" rx="48" fill="#fff"/></g><defs><filter id="aifilter0_ii_28_263" x="0" y="-4" width="392" height="836" filterUnits="userSpaceOnUse" color-interpolation-filters="sRGB"><feFlood flood-opacity="0" result="BackgroundImageFix"/><feBlend in="SourceGraphic" in2="BackgroundImageFix" result="shape"/><feColorMatrix in="SourceAlpha" values="0 0 0 0 0 0 0 0 0 0 0 0 0 0 0 0 0 0 127 0" result="hardAlpha"/><feMorphology radius="2" in="SourceAlpha" result="effect1_innerShadow_28_263"/><feOffset dy="-4"/><feGaussianBlur stdDeviation="8"/><feComposite in2="hardAlpha" operator="arithmetic" k2="-1" k3="1"/><feColorMatrix values="0 0 0 0 0.716667 0 0 0 0 0.716667 0 0 0 0 0.716667 0 0 0 0.72 0"/><feBlend in2="shape" result="effect1_innerShadow_28_263"/><feColorMatrix in="SourceAlpha" values="0 0 0 0 0 0 0 0 0 0 0 0 0 0 0 0 0 0 127 0" result="hardAlpha"/><feOffset dy="-2"/><feGaussianBlur stdDeviation="1"/><feComposite in2="hardAlpha" operator="arithmetic" k2="-1" k3="1"/><feColorMatrix values="0 0 0 0 0.841667 0 0 0 0 0.841667 0 0 0 0 0.841667 0 0 0 0.72 0"/><feBlend in2="effect1_innerShadow_28_263" result="effect2_innerShadow_28_263"/></filter></defs></svg><svg fill="none" viewBox="0 0 1160 2" id="css--footer--footer_delimeter" xmlns="http://www.w3.org/2000/svg"><path d="M0 1h1160" stroke="#003C5E" stroke-dasharray="5 5"/></svg><svg fill="none" viewBox="0 0 234 214" id="css--footer--footer_plane" xmlns="http://www.w3.org/2000/svg"><path d="M61.97 99.966l16.768 51.284a5.443 5.443 0 006.274 3.646 5.436 5.436 0 002.366-1.13l50.067-41.345S84.24 91.686 84.24 92.806c0 1.12-22.27 7.16-22.27 7.16z" fill="#B5D1DB"/><g filter="url(#akfilter0_d_268_442)"><path d="M194.093 1.406C161.387 14.345 55.833 57.667 15.883 73.98a6.096 6.096 0 00.485 11.459l45.616 14.528 16.713 51.146a5.53 5.53 0 004.271 3.733c1.534.29 3.801-41.401 3.801-41.401s47.953 35.567 70.693 52.362a9.468 9.468 0 009.075 1.19 9.478 9.478 0 005.854-7.037L201.889 7.903a5.773 5.773 0 00-4.754-6.83 5.78 5.78 0 00-3.042.333z" fill="#fff"/><path d="M194.093 1.406C161.387 14.345 55.833 57.667 15.883 73.98a6.096 6.096 0 00.485 11.459l45.616 14.528 16.713 51.146a5.53 5.53 0 004.271 3.733c1.534.29 3.801-41.401 3.801-41.401s47.953 35.567 70.693 52.362a9.468 9.468 0 009.075 1.19 9.478 9.478 0 005.854-7.037L201.889 7.903a5.773 5.773 0 00-4.754-6.83 5.78 5.78 0 00-3.042.333z" stroke="#EFEFEF"/></g><path d="M82.954 154.831c1.535.29 3.802-41.401 3.802-41.401l78.792-73.996a.606.606 0 00.086-.826.607.607 0 00-.819-.141l-102.844 61.5 16.712 51.145a5.529 5.529 0 004.271 3.719z" fill="#D6E2EA"/><defs><filter id="akfilter0_d_268_442" x=".595" y=".5" width="232.905" height="212.649" filterUnits="userSpaceOnUse" color-interpolation-filters="sRGB"><feFlood flood-opacity="0" result="BackgroundImageFix"/><feColorMatrix in="SourceAlpha" values="0 0 0 0 0 0 0 0 0 0 0 0 0 0 0 0 0 0 127 0" result="hardAlpha"/><feOffset dx="10" dy="24"/><feGaussianBlur stdDeviation="10.5"/><feComposite in2="hardAlpha" operator="out"/><feColorMatrix values="0 0 0 0 0.0275 0 0 0 0 0.0982143 0 0 0 0 0.1375 0 0 0 0.29 0"/><feBlend in2="BackgroundImageFix" result="effect1_dropShadow_268_442"/><feBlend in="SourceGraphic" in2="effect1_dropShadow_268_442" result="shape"/></filter></defs></svg><svg fill="none" viewBox="0 0 263 168" id="css--footer--footer_plane-tracer" xmlns="http://www.w3.org/2000/svg"><path d="M2 166.215c54.104-.165 126.04-30.673 140.472-89.256 5.833-23.652.65-48.976-18.095-66.228-23.679-21.813-49.68-1.88-43.28 28.545 10.505 50 71.577 87.087 117.981 87.543 26.831.304 51.989-12.551 61.638-38.843" stroke="url(#alpaint0_linear_28_322)" stroke-width="3" stroke-miterlimit="10" stroke-linecap="round" stroke-dasharray="5 5"/><defs><linearGradient id="alpaint0_linear_28_322" x1="167.5" y1="105" x2="264" y2="87" gradientUnits="userSpaceOnUse"><stop stop-color="#A7E2FF"/><stop offset="1" stop-color="#fff"/></linearGradient></defs></svg><svg fill="none" viewBox="0 0 160 91" id="css--footer--footer_plane-tracer_mobile" xmlns="http://www.w3.org/2000/svg"><path d="M2 101.048c32.573-.1 75.882-18.467 84.57-53.736 3.512-14.24.391-29.486-10.894-39.872C61.42-5.692 45.766 6.308 49.62 24.625c6.325 30.102 43.093 52.43 71.03 52.705 16.153.183 31.3-7.557 37.109-23.386" stroke="url(#ampaint0_linear_34_840)" stroke-width="3" stroke-miterlimit="10" stroke-linecap="round" stroke-dasharray="5 5"/><defs><linearGradient id="ampaint0_linear_34_840" x1="101.638" y1="64.194" x2="159.735" y2="53.357" gradientUnits="userSpaceOnUse"><stop stop-color="#A7E2FF"/><stop offset="1" stop-color="#fff"/></linearGradient></defs></svg><svg fill="none" viewBox="0 0 24 17" id="css--footer--mail_logo" xmlns="http://www.w3.org/2000/svg"><path d="M20.53.21H3.654a2.916 2.916 0 00-1.988.774 2.56 2.56 0 00-.825 1.864v11.304c0 .7.297 1.37.825 1.864a2.913 2.913 0 001.988.773h16.874a2.91 2.91 0 001.988-.773 2.56 2.56 0 00.825-1.864V2.848c0-.7-.297-1.37-.825-1.864A2.913 2.913 0 0020.53.21zm-.713 4.363l-7.232 5.275a.838.838 0 01-.493.159.839.839 0 01-.493-.159L4.367 4.573a.772.772 0 01-.21-.222.723.723 0 01-.082-.576.736.736 0 01.142-.266.792.792 0 01.24-.193.841.841 0 01.615-.069.824.824 0 01.281.137l6.739 4.915 6.739-4.915a.843.843 0 011.119.138.72.72 0 01-.133 1.051z" fill="#fff"/></svg><svg fill="none" viewBox="0 0 25 21" id="css--footer--telegram_logo" xmlns="http://www.w3.org/2000/svg"><path d="M22.744.974l-20.98 8.2C.332 9.757.34 10.566 1.5 10.927l5.386 1.703L19.35 4.661c.59-.363 1.127-.168.685.23L9.938 14.127h-.002l.002.001-.372 5.627c.545 0 .785-.253 1.09-.552l2.617-2.578 5.441 4.074c1.004.56 1.725.272 1.974-.942l3.573-17.063c.365-1.486-.56-2.159-1.517-1.72z" fill="#fff"/></svg><svg fill="none" viewBox="0 0 42 36" id="css--free_access--play" xmlns="http://www.w3.org/2000/svg"><path d="M39.471 17.078c.817.343.817 1.5 0 1.844L3.325 34.1a1 1 0 01-1.388-.922V2.822A1 1 0 013.325 1.9L39.47 17.078z" stroke="#DD3974" stroke-width="2"/></svg><svg fill="none" viewBox="0 0 10 10" id="css--header--header-icon" xmlns="http://www.w3.org/2000/svg"><path fill-rule="evenodd" clip-rule="evenodd" d="M1.486 0h6.432c.245 0 .45.042.696.167.287.126.45.335.533.503 0 0 0 .042.04.042.123.209.205.46.205.753 0 .251-.04.503-.204.754L5.132 9.336c-.082.167-.246.25-.45.25a.563.563 0 01-.452-.25L.256 2.219C.175 2.05.011 1.842.011 1.507-.03 1.214.05.963.175.712.297.46.502.252.789.167 1.035 0 1.322 0 1.486 0zm2.703 1.005H1.486c-.164 0-.246 0-.287.042a.323.323 0 00-.164.167c-.041.042-.041.126-.041.21 0 .041.04.083.123.25l3.072 5.443V1.005zm.984 0v6.154l3.113-5.484c.041-.084.041-.168.041-.252 0-.083 0-.167-.04-.209-.042-.042-.042-.084-.083-.084l-.04-.042c-.083-.041-.165-.041-.287-.041H5.173v-.042z" fill="#A7E2FF"/></svg><svg fill="none" viewBox="0 0 36 36" id="css--logo" xmlns="http://www.w3.org/2000/svg"><path d="M0 32.439c0-.538.439-.975.98-.975h2.49c.54 0 .979.437.979.975v2.475a.977.977 0 01-.98.975H.98a.977.977 0 01-.98-.975V32.44zm0-5.654c0-.538.439-.974.98-.974h2.49c.54 0 .979.436.979.974v2.476a.977.977 0 01-.98.974H.98a.977.977 0 01-.98-.974v-2.476z" fill="#A7E2FF"/><path d="M5.685 32.439c0-.538.439-.975.98-.975h2.489c.541 0 .98.437.98.975v2.475a.977.977 0 01-.98.975h-2.49a.977.977 0 01-.98-.975V32.44zm0-5.654c0-.538.439-.974.98-.974h2.489c.541 0 .98.436.98.974v2.476a.977.977 0 01-.98.974h-2.49a.977.977 0 01-.98-.974v-2.476zM0 .975C0 .436.439 0 .98 0h8.174c.541 0 .98.436.98.975v8.129a.977.977 0 01-.98.974H.98A.977.977 0 010 9.104V.974zm0 13.028c0-.538.439-.975.98-.975h8.174c.541 0 .98.437.98.975v8.13a.977.977 0 01-.98.974H.98a.977.977 0 01-.98-.975v-8.13zM12.853.975c0-.539.438-.975.98-.975h8.174c.54 0 .98.436.98.975v8.129a.977.977 0 01-.98.974h-8.174a.977.977 0 01-.98-.974V.974zm.08 25.921c0-.538.439-.974.98-.974h8.174c.541 0 .98.436.98.974v8.13a.977.977 0 01-.98.974h-8.174a.977.977 0 01-.98-.975v-8.129zM25.866.975c0-.539.439-.975.98-.975h8.174c.541 0 .98.436.98.975v8.129a.977.977 0 01-.98.974h-8.174a.977.977 0 01-.98-.974V.974zm0 12.96c0-.538.439-.974.98-.974h8.174c.541 0 .98.436.98.974v8.13a.977.977 0 01-.98.974h-8.174a.977.977 0 01-.98-.974v-8.13zm0 12.961c0-.538.439-.974.98-.974h8.174c.541 0 .98.436.98.974v8.13a.977.977 0 01-.98.974h-8.174a.977.977 0 01-.98-.975v-8.129z" fill="#fff"/><path fill-rule="evenodd" clip-rule="evenodd" d="M14.833 13.028h6.432c.245 0 .45.042.696.168.287.125.45.335.533.502 0 0 0 .042.04.042.124.21.206.46.206.754 0 .25-.041.502-.205.753l-4.056 7.117c-.082.167-.246.251-.45.251a.563.563 0 01-.451-.251l-3.974-7.117c-.082-.167-.246-.377-.246-.712-.041-.293.04-.544.164-.795.123-.251.327-.46.614-.544.246-.168.533-.168.697-.168zm2.704 1.005h-2.704c-.164 0-.246 0-.287.042a.323.323 0 00-.164.167c-.041.042-.041.126-.041.21 0 .042.041.083.123.25l3.072 5.443v-6.112zm.983 0v6.154l3.113-5.484a.542.542 0 00.041-.251c0-.084 0-.168-.04-.21-.042-.042-.042-.083-.083-.083l-.04-.042c-.082-.042-.164-.042-.287-.042H18.52v-.042z" fill="#A7E2FF"/></svg><svg fill="none" viewBox="0 0 19 19" id="css--parallax__phones--front-cam" xmlns="http://www.w3.org/2000/svg"><path d="M9.816 18.371a9.079 9.079 0 100-18.157 9.079 9.079 0 000 18.157z" fill="#E0E1E4"/><path d="M9.816 14.208a4.916 4.916 0 100-9.831 4.916 4.916 0 000 9.831z" fill="#A8AEB8"/></svg><svg fill="none" viewBox="0 0 399 810" id="css--parallax__phones--phone_frame" xmlns="http://www.w3.org/2000/svg"><path d="M1.613 155.743h2.2v30.9h-2.2a.747.747 0 01-.744-.744v-29.412c0-.409.335-.744.744-.744z" fill="#EAEAEC"/><path d="M327.636 1.307H71.29c-37.266 0-67.477 30.21-67.477 67.477v673.009c0 37.266 30.21 67.476 67.477 67.476h256.346c37.266 0 67.477-30.21 67.477-67.476V68.783c0-37.266-30.211-67.476-67.477-67.476z" fill="#fff" stroke="#E0E1E6" stroke-miterlimit="10"/><path d="M326.663 5.74h-254.4C37.124 5.74 8.64 34.226 8.64 69.365v670.743c0 35.138 28.486 63.624 63.624 63.624h254.4c35.139 0 63.624-28.486 63.624-63.624V69.365c0-35.14-28.485-63.625-63.624-63.625z" fill="#fff" stroke="#E0E1E6" stroke-miterlimit="10"/><path d="M327.865 17.69H71.069c-27.663 0-50.088 22.425-50.088 50.088v673.916c0 27.663 22.425 50.089 50.088 50.089h256.796c27.663 0 50.088-22.426 50.088-50.089V67.778c0-27.663-22.425-50.088-50.088-50.088z" fill="#EAEAEC"/><path d="M3.821 155.743H1.613v30.9h2.208v-30.9z" fill="#E0E1E4"/><path d="M1.613 214.427h2.2v61.146h-2.2a.747.747 0 01-.744-.744v-59.666a.74.74 0 01.744-.736z" fill="#EAEAEC"/><path d="M3.821 214.427H1.613v61.146h2.208v-61.146z" fill="#E0E1E4"/><path d="M1.613 292.381h2.2v61.146h-2.2a.734.734 0 01-.744-.736v-59.665c0-.409.335-.745.744-.745z" fill="#EAEAEC"/><path d="M3.821 292.381H1.613v61.146h2.208v-61.146z" fill="#E0E1E4"/><path opacity=".48" d="M326.671 5.74H72.263C37.126 5.74 8.64 34.22 8.64 69.356v670.752c0 35.137 28.487 63.624 63.624 63.624h254.408c35.137 0 63.624-28.487 63.624-63.624V69.356c0-35.137-28.487-63.624-63.624-63.624v.008zm60.353 734.842c0 32.863-26.639 59.502-59.502 59.502H71.404c-32.863 0-59.502-26.639-59.502-59.502V68.89C11.911 36.035 38.55 9.396 71.405 9.396H327.53c32.863 0 59.502 26.64 59.502 59.502v671.676l-.008.008z" fill="#EAEAEC"/><path d="M397.329 353.495h-2.208v-96.856h2.208c.409 0 .745.335.745.744v95.367a.748.748 0 01-.745.745z" fill="#EAEAEC"/><path d="M395.113 353.495h2.208v-96.856h-2.208v96.856z" fill="#E0E1E4"/></svg><svg fill="none" viewBox="0 0 411 360" id="css--plane" xmlns="http://www.w3.org/2000/svg"><path d="M108.523 213.479l36.17 110.625a11.745 11.745 0 0013.534 7.865 11.745 11.745 0 005.102-2.438l108.001-89.186s-114.77-44.727-114.77-42.312c0 2.416-48.037 15.446-48.037 15.446z" fill="#B5D1DB"/><path d="M393.524.877C322.975 28.787 95.284 122.236 9.11 157.42a13.149 13.149 0 00-5.454 20.178 13.157 13.157 0 006.498 4.542l98.399 31.338 36.05 110.327a11.93 11.93 0 009.214 8.051c3.31.626 8.2-89.305 8.2-89.305s103.439 76.722 152.489 112.951a20.452 20.452 0 0019.577 2.566 20.447 20.447 0 0012.627-15.179L410.341 14.89a12.449 12.449 0 00-.475-6.584 12.463 12.463 0 00-16.342-7.43z" fill="#fff"/><path d="M153.787 331.827c3.31.626 8.2-89.305 8.2-89.305L331.95 82.906a1.31 1.31 0 00.186-1.782 1.312 1.312 0 00-1.766-.305l-221.847 132.66 36.05 110.327a11.927 11.927 0 009.214 8.021z" fill="#D6E2EA"/></svg><svg fill="none" viewBox="0 0 206 1080" id="css--promo--promo-big-curve" xmlns="http://www.w3.org/2000/svg"><path d="M150-17.5C88 0 1.5 122 1.5 275c0 198.5 148.5 357.5 190 510.5C239.164 961.225 139.667 1093 67 1143" stroke="#fff" stroke-width="3" stroke-linecap="round" stroke-linejoin="round" stroke-dasharray="5 5"/></svg><svg fill="none" viewBox="0 0 157 857" id="css--promo--promo-big-curve_tablet" xmlns="http://www.w3.org/2000/svg"><path d="M114.228-17C67.372-3.73 2 88.782 2 204.801c0 150.521 112.228 271.09 143.591 387.109 36.022 133.251-39.173 233.175-94.09 271.09" stroke="#fff" stroke-width="3" stroke-linecap="round" stroke-linejoin="round" stroke-dasharray="5 5"/></svg><svg fill="none" viewBox="0 0 562 319" id="css--promo--promo-small-curve" xmlns="http://www.w3.org/2000/svg"><path d="M2 357.366c116.708-.358 271.881-66.166 303.011-192.535 12.583-51.019 1.401-105.646-39.032-142.858-51.078-47.053-107.166-4.056-93.36 61.574C195.281 191.399 327.017 271.4 427.116 272.384c57.877.656 112.145-27.074 132.958-83.788" stroke="#fff" stroke-width="3" stroke-miterlimit="10" stroke-linecap="round" stroke-dasharray="5 5"/></svg><svg fill="none" viewBox="0 0 229 166" id="css--promo--promo-small-curve_mobile" xmlns="http://www.w3.org/2000/svg"><path d="M-26.502 164c53.07-.163 123.63-30.087 137.785-87.55 5.722-23.199.637-48.039-17.748-64.96-23.227-21.396-48.73-1.844-42.453 27.999 10.304 49.042 70.208 85.421 115.725 85.868 26.317.298 50.994-12.311 60.459-38.1" stroke="#fff" stroke-width="3" stroke-miterlimit="10" stroke-linecap="round" stroke-dasharray="5 5"/></svg><svg fill="none" viewBox="0 0 397 212" id="css--promo--promo-small-curve_tablet" xmlns="http://www.w3.org/2000/svg"><path d="M2 252.455c82.249-.252 191.605-46.63 213.544-135.687 8.868-35.955.988-74.452-27.507-100.678-35.997-33.16-75.525-2.857-65.795 43.394 15.971 76.008 108.81 132.388 179.354 133.082 40.788.462 79.034-19.081 93.701-59.05" stroke="#fff" stroke-width="3" stroke-miterlimit="10" stroke-linecap="round" stroke-dasharray="5 5"/></svg><svg fill="none" viewBox="0 0 259 55" id="css--promo--promo-title" xmlns="http://www.w3.org/2000/svg"><path d="M14.33 39.528c0 4.472-1.063 7.837-3.19 10.093C9.052 51.918 6.04 53.71 2.107 55L0 49.258c1.766-.685 3.091-1.47 3.974-2.357.923-.846 1.546-1.853 1.867-3.022.32-1.209.481-2.76.481-4.654V3.868h8.009v35.66zm34.715 6.104h-6.683l-.422-4.473c-1.164 1.813-2.549 3.163-4.155 4.05-1.565.886-3.432 1.33-5.6 1.33-2.85 0-5.057-.867-6.623-2.6-1.525-1.772-2.288-4.21-2.288-7.313V13.66h7.707v22c0 1.813.301 3.103.903 3.869.643.765 1.646 1.148 3.011 1.148 2.449 0 4.596-1.511 6.443-4.533V13.659h7.707v31.973zm19.338-32.879c4.295 0 8.068 1.269 11.32 3.807l-3.01 4.533c-2.73-1.732-5.4-2.599-8.01-2.599-1.525 0-2.709.303-3.552.907-.843.564-1.264 1.33-1.264 2.297 0 .725.18 1.33.542 1.813.36.483 1.003.947 1.926 1.39.964.403 2.369.866 4.215 1.39 3.453.927 6.002 2.156 7.648 3.687 1.686 1.531 2.529 3.667 2.529 6.407 0 3.183-1.285 5.68-3.854 7.494-2.57 1.773-5.76 2.66-9.574 2.66-2.61 0-4.998-.404-7.166-1.21-2.127-.805-3.974-1.913-5.54-3.324l3.854-4.351c2.77 2.095 5.66 3.143 8.671 3.143 1.726 0 3.091-.343 4.095-1.028 1.044-.685 1.565-1.632 1.565-2.84 0-.927-.2-1.652-.602-2.176-.361-.564-1.044-1.048-2.047-1.45-.964-.444-2.489-.968-4.576-1.572-3.252-.887-5.64-2.116-7.166-3.687-1.525-1.612-2.288-3.606-2.288-5.984 0-1.772.502-3.364 1.506-4.774 1.043-1.41 2.488-2.519 4.335-3.325 1.887-.805 4.034-1.208 6.443-1.208zm36.825 31.367a12.246 12.246 0 01-3.793 1.814 14.81 14.81 0 01-4.215.605c-3.131-.04-5.52-.927-7.165-2.66-1.606-1.773-2.409-4.372-2.409-7.797V19.22h-4.998v-5.56h4.998V6.587l7.707-.907v7.978h7.407l-.783 5.56h-6.624V35.9c0 1.571.261 2.7.783 3.385.562.685 1.425 1.027 2.59 1.027 1.163 0 2.428-.383 3.793-1.148l2.709 4.956z" fill="#187BB2"/><path d="M117.752 3.868v35.236h16.68l-.904 6.528h-23.724V3.868h7.948zm45.226 33.302c0 1.25.181 2.176.542 2.78.402.565 1.024 1.008 1.867 1.33l-1.626 5.138c-1.806-.162-3.292-.605-4.456-1.33-1.124-.725-1.987-1.833-2.589-3.324-1.084 1.611-2.449 2.82-4.094 3.626-1.606.766-3.412 1.148-5.42 1.148-3.171 0-5.68-.906-7.526-2.72-1.847-1.813-2.77-4.19-2.77-7.131 0-3.465 1.244-6.105 3.733-7.918 2.529-1.853 6.122-2.78 10.778-2.78h3.974v-1.813c0-2.055-.481-3.485-1.445-4.291-.923-.847-2.428-1.27-4.516-1.27-2.328 0-5.138.565-8.43 1.693l-1.806-5.259c3.974-1.53 7.828-2.296 11.561-2.296 8.149 0 12.223 3.666 12.223 11V37.17zm-13.728 3.748c2.609 0 4.656-1.31 6.141-3.929v-6.467H152.2c-4.977 0-7.466 1.854-7.466 5.56 0 1.532.381 2.72 1.144 3.566.762.846 1.886 1.27 3.372 1.27zm47.764-27.258l-10.357 31.972h-9.212l-10.538-31.973h8.37l6.804 25.748 6.985-25.748h7.948zM209.473 0v45.632h-7.708V.846L209.473 0zm19.087 13.66l-10.597 14.082 11.621 17.89h-8.852l-10.958-17.467 10.657-14.506h8.129zm28.031 23.51c0 1.25.181 2.176.542 2.78.402.565 1.024 1.008 1.867 1.33l-1.626 5.138c-1.806-.162-3.291-.605-4.456-1.33-1.124-.725-1.987-1.833-2.589-3.324-1.084 1.611-2.448 2.82-4.094 3.626-1.606.766-3.412 1.148-5.419 1.148-3.172 0-5.681-.906-7.527-2.72-1.847-1.813-2.77-4.19-2.77-7.131 0-3.465 1.244-6.105 3.733-7.918 2.529-1.853 6.122-2.78 10.778-2.78h3.975v-1.813c0-2.055-.482-3.485-1.446-4.291-.923-.847-2.428-1.27-4.516-1.27-2.328 0-5.138.565-8.429 1.693l-1.807-5.259c3.974-1.53 7.828-2.296 11.561-2.296 8.149 0 12.223 3.666 12.223 11V37.17zm-13.728 3.748c2.609 0 4.656-1.31 6.142-3.929v-6.467h-3.192c-4.977 0-7.466 1.854-7.466 5.56 0 1.532.381 2.72 1.144 3.566.763.846 1.887 1.27 3.372 1.27z" fill="#000"/></svg><svg fill="none" viewBox="0 0 1920 836" id="css--why-telegram--why_telegram-curve" xmlns="http://www.w3.org/2000/svg"><path d="M1981.99 1.77c2.15 114.762-173.09 333.147-452.54 424.509-362.54 118.532-734.626-36.37-1036.896-14.831-347.165 24.739-533.11 270.828-584.458 422.945" stroke="#A7E2FF" stroke-width="3" stroke-linecap="round" stroke-linejoin="round" stroke-dasharray="5 5"/></svg><svg fill="none" viewBox="0 0 1000 836" id="css--why-telegram--why_telegram-curve_tablet" xmlns="http://www.w3.org/2000/svg"><path d="M1722.23 1.77c2.14 114.762-173.1 333.147-452.54 424.509-362.542 118.532-734.628-36.37-1036.898-14.831-347.165 24.739-533.111 270.828-584.459 422.945" stroke="#A7E2FF" stroke-width="3" stroke-linecap="round" stroke-linejoin="round" stroke-dasharray="5 5"/></svg></svg>