<svg xmlns="http://www.w3.org/2000/svg" viewBox="0 0 16 16">
    <path d="M7.17513 1.20359C7.57233 0.624016 8.42766 0.624015 8.82487 1.20359L10.973 4.33798C11.103 4.52771 11.2945 4.66682 11.5151 4.73186L15.1599 5.80628C15.8339 6.00494 16.0982 6.81841 15.6697 7.37528L13.3526 10.3869C13.2123 10.5692 13.1392 10.7942 13.1455 11.0242L13.25 14.8226C13.2693 15.5249 12.5773 16.0277 11.9153 15.7923L8.33505 14.5191C8.11833 14.4421 7.88167 14.4421 7.66495 14.5191L4.08472 15.7923C3.42271 16.0277 2.73073 15.5249 2.75005 14.8226L2.85452 11.0242C2.86084 10.7942 2.78771 10.5692 2.64745 10.3869L0.330272 7.37528C-0.0981904 6.81841 0.16612 6.00494 0.84007 5.80628L4.48487 4.73186C4.7055 4.66682 4.89696 4.52771 5.02699 4.33798L7.17513 1.20359Z"/>
</svg>