<svg xmlns="http://www.w3.org/2000/svg" width="14" height="16" viewBox="0 0 14 16" fill="none">
    <path fill-rule="evenodd" clip-rule="evenodd" d="M12.9269 12.9269C13.3301 13.33 13.3336 13.9898 12.8819 14.3377C11.9095 15.0868 10.7737 15.605 9.56072 15.8463C8.00887 16.155 6.40034 15.9965 4.93854 15.391C3.47672 14.7855 2.22729 13.7602 1.34824 12.4445C0.469191 11.129 0 9.58224 0 8C0 6.41775 0.469191 4.87103 1.34824 3.55543C2.22729 2.23985 3.47672 1.21446 4.93854 0.608962C6.40034 0.00346243 8.00887 -0.154954 9.56072 0.153716C10.7737 0.395003 11.9095 0.913176 12.8819 1.66226C13.3336 2.01016 13.3301 2.66994 12.9269 3.07306L8.72991 7.27008C8.3268 7.6732 8.3268 8.3268 8.72991 8.72992L12.9269 12.9269ZM5.99305 3.3674C6.12027 3.32571 6.26659 3.30922 6.43198 3.3179C6.47015 3.32312 6.48742 3.35004 6.48378 3.39867C6.48196 3.44728 6.52013 3.47681 6.59829 3.48723C6.65463 3.49591 6.74732 3.49591 6.87637 3.48723C7.00542 3.47854 7.13537 3.46118 7.26623 3.43513C7.39891 3.40735 7.51342 3.37088 7.60975 3.32571C7.70608 3.27884 7.75061 3.22153 7.74334 3.15379C7.73607 2.70921 7.57158 2.40184 7.24988 2.23164C6.92999 2.06146 6.57375 1.98505 6.18116 2.00241C5.58683 2.03194 5.09427 2.21602 4.7035 2.55466C4.31455 2.89329 4.08463 3.36479 4.01374 3.96915C3.95013 4.52313 4.10735 4.98854 4.4854 5.36539C4.86344 5.74223 5.33237 5.95151 5.89217 5.99318C6.20842 6.01402 6.53013 5.9871 6.85729 5.91243C6.87364 5.93848 6.89 5.95236 6.90636 5.9541C7.01723 5.98537 7.20353 5.99753 7.46525 5.99057C7.7288 5.98363 7.87511 5.96191 7.90419 5.92544C7.93509 5.8994 7.95781 5.81171 7.97235 5.66235C7.98871 5.513 7.99779 5.34108 7.99961 5.14657C8.00143 4.95207 7.99688 4.75496 7.98598 4.55525C7.97689 4.3538 7.96326 4.18796 7.94508 4.05771C7.93418 3.98825 7.85239 3.94308 7.69972 3.92226C7.54886 3.89967 7.38528 3.89621 7.20898 3.91183C7.0345 3.92746 6.87637 3.95872 6.7346 4.00561C6.59283 4.0525 6.52559 4.10893 6.53286 4.17493C6.51831 4.27392 6.50196 4.37291 6.48378 4.47189C6.46561 4.56915 6.37746 4.6169 6.21933 4.61517C6.00122 4.60475 5.83401 4.5457 5.71769 4.43803C5.60137 4.32863 5.53412 4.20532 5.51594 4.06813C5.49777 3.9292 5.52866 3.79288 5.60864 3.65915C5.68861 3.52544 5.81674 3.42818 5.99305 3.3674Z" fill="url(#paint0_linear_9_326)"/>
    <defs>
        <linearGradient id="paint0_linear_9_326" x1="8" y1="0" x2="8" y2="16" gradientUnits="userSpaceOnUse">
            <stop stop-color="#4DD4AF"/>
            <stop offset="1" stop-color="#31CFDB"/>
        </linearGradient>
    </defs>
</svg>