<svg width="550" height="519" viewBox="0 0 550 519" fill="none" xmlns="http://www.w3.org/2000/svg">
    <path d="M39.7908 428.29C39.5293 429.266 40.1085 430.269 41.0844 430.531L51.3334 433.277C52.3093 433.539 53.3125 432.959 53.574 431.984L57.7406 416.433L73.2909 420.6C74.2668 420.861 75.2699 420.282 75.5314 419.306L78.2776 409.057C78.5391 408.081 77.96 407.078 76.9841 406.817L61.4338 402.65L65.6005 387.1C65.862 386.124 65.2828 385.121 64.3069 384.859L54.0579 382.113C53.082 381.852 52.0788 382.431 51.8173 383.407L47.6507 398.957L32.1004 394.79C31.1245 394.529 30.1214 395.108 29.8599 396.084L27.1137 406.333C26.8522 407.309 27.4313 408.312 28.4072 408.573L43.9575 412.74L39.7908 428.29Z" fill="#DEF0F0"/>
    <path d="M550 320.5C550 357.779 519.779 388 482.5 388C445.221 388 415 357.779 415 320.5C415 283.22 445.221 253 482.5 253C519.779 253 550 283.22 550 320.5ZM450.961 320.5C450.961 337.918 465.082 352.038 482.5 352.038C499.918 352.038 514.039 337.918 514.039 320.5C514.039 303.081 499.918 288.961 482.5 288.961C465.082 288.961 450.961 303.081 450.961 320.5Z" fill="#DEF0F0"/>
    <path d="M67.3724 433.289C93.6299 462.001 126.019 484.428 162.133 498.905C198.248 513.381 237.16 519.535 275.979 516.91C314.799 514.284 352.528 502.946 386.364 483.737C420.2 464.529 449.273 437.945 471.425 405.958" stroke="#B7BDCF" stroke-linecap="round" stroke-dasharray="15 15"/>
</svg>
