<svg width="633" height="552" viewBox="0 0 633 552" fill="none" xmlns="http://www.w3.org/2000/svg">
    <path d="M493.766 93.0683C492.346 94.4882 492.346 96.7904 493.766 98.2103L508.678 113.122C510.098 114.542 512.4 114.542 513.82 113.122L536.444 90.4974L559.069 113.122C560.489 114.542 562.791 114.542 564.211 113.122L579.122 98.2103C580.542 96.7904 580.542 94.4882 579.122 93.0683L556.498 70.4439L579.122 47.8195C580.542 46.3996 580.542 44.0974 579.122 42.6775L564.211 27.766C562.791 26.3461 560.489 26.3461 559.069 27.766L536.444 50.3904L513.82 27.766C512.4 26.3461 510.098 26.3461 508.678 27.766L493.766 42.6775C492.346 44.0974 492.346 46.3996 493.766 47.8195L516.391 70.4439L493.766 93.0683Z" fill="#DEF0F0"/>
    <path d="M156 316C156 359.078 121.078 394 78 394C34.9218 394 0 359.078 0 316C0 272.921 34.9218 238 78 238C121.078 238 156 272.921 156 316ZM31.2 316C31.2 341.846 52.1531 362.8 78 362.8C103.847 362.8 124.8 341.846 124.8 316C124.8 290.153 103.847 269.2 78 269.2C52.1531 269.2 31.2 290.153 31.2 316Z" fill="#DEF0F0"/>
    <path d="M484.264 58.9091C449.624 42.7013 411.825 34.3659 373.581 34.5016C335.337 34.6374 297.597 43.241 263.073 59.6944C228.549 76.1478 198.097 100.043 173.905 129.663C149.713 159.283 132.38 193.893 123.152 231.007" stroke="#B7BDCF" stroke-linecap="round" stroke-dasharray="15 15"/>
</svg>
